<svg width="424" height="410" viewBox="0 0 424 410" fill="none" xmlns="http://www.w3.org/2000/svg">
<path d="M72.3285 39.9497C71.6917 39.9497 71.0757 39.5707 69.5633 33.1959C63.8876 32.0262 63.3979 31.3496 63.2335 31.1229C63.0761 30.9066 63.012 30.5103 63.0882 30.2525C63.1955 29.8891 63.4446 29.0482 69.9804 26.5114C72.3216 20.6384 73.1314 20.5363 73.5709 20.4809C73.8962 20.4446 74.334 20.6436 74.5192 20.8997C74.9293 21.4655 75.2892 22.9277 75.8326 25.2672C76.0039 26.0009 76.2081 26.8834 76.3292 27.2745C76.6683 27.432 77.4176 27.7106 78.0388 27.9442C81.3647 29.1866 82.2212 29.6053 82.3683 30.4048C82.4219 30.7059 82.2645 31.1402 82.036 31.3409C81.3491 31.9396 78.1029 33.0973 76.4001 33.6787C73.5675 39.9047 72.9774 39.9272 72.4583 39.9497C72.4133 39.9479 72.37 39.9497 72.3285 39.9497ZM65.4433 30.4082C66.5767 30.7509 68.6428 31.2492 70.4476 31.6091C70.7798 31.6749 71.0428 31.931 71.1207 32.2615C71.5585 34.1407 72.1347 36.2829 72.5552 37.5063C73.2006 36.3816 74.1818 34.3847 74.9777 32.6214C75.0764 32.4034 75.2615 32.2338 75.4882 32.1594C77.0404 31.6351 78.795 30.9897 79.8869 30.5294C79.1307 30.1989 78.0994 29.813 77.4315 29.5638C75.5315 28.8543 75.175 28.7021 74.9328 28.3681C74.7217 28.0791 74.5953 27.5963 74.1454 25.6583C73.9758 24.9298 73.718 23.8137 73.4844 22.9762C72.903 24.0508 72.0863 25.8798 71.4495 27.4994C71.3612 27.7244 71.1813 27.9009 70.9546 27.9891C68.9387 28.7644 66.6459 29.7559 65.4433 30.4082Z" fill="#2A1D25"/>
<path d="M249.54 399.751C248.904 399.751 248.288 399.372 246.774 392.998C241.1 391.828 240.61 391.155 240.445 390.928C240.288 390.71 240.224 390.312 240.3 390.054C240.409 389.691 240.658 388.85 247.192 386.315C249.533 380.442 250.343 380.34 250.783 380.284C251.094 380.25 251.546 380.445 251.731 380.7C252.141 381.267 252.501 382.728 253.044 385.065C253.214 385.799 253.42 386.685 253.541 387.074C253.88 387.232 254.63 387.511 255.251 387.744C258.577 388.987 259.433 389.405 259.58 390.205C259.634 390.506 259.476 390.94 259.248 391.141C258.561 391.741 255.315 392.899 253.612 393.48C250.779 399.706 250.189 399.727 249.67 399.75C249.625 399.75 249.582 399.751 249.54 399.751ZM242.657 390.21C243.789 390.551 245.856 391.047 247.659 391.409C247.992 391.475 248.255 391.731 248.333 392.061C248.77 393.941 249.347 396.083 249.767 397.306C250.413 396.182 251.394 394.185 252.19 392.421C252.288 392.203 252.473 392.034 252.702 391.958C254.254 391.433 256.009 390.788 257.101 390.328C256.344 389.997 255.313 389.613 254.645 389.362C252.745 388.653 252.389 388.5 252.146 388.166C251.937 387.877 251.809 387.396 251.359 385.457C251.189 384.728 250.932 383.614 250.698 382.778C250.117 383.851 249.3 385.682 248.663 387.301C248.575 387.526 248.395 387.704 248.168 387.791C246.151 388.566 243.86 389.558 242.657 390.21Z" fill="#2A1D25"/>
<path d="M20.2174 52.675C20.2174 52.675 18.6791 39.6918 31.0999 44.049C43.5207 48.4061 39.3003 60.2178 34.5971 56.096C29.8938 51.9742 38.9975 38.3179 48.4627 44.575C57.928 50.8321 55.6387 62.7027 48.8556 63.4934C42.0724 64.2842 53.1348 49.6918 61.5463 58.9027C69.9578 68.1136 51.1172 84.459 43.5813 78.2607C36.0454 72.0624 42.1329 62.296 43.8824 68.3195C45.6318 74.343 40.6275 80.1624 27.1217 79.7523C13.616 79.3439 20.0357 58.6414 24.6784 64.7532C29.3211 70.8649 21.3941 77.5893 11.9582 70.3389C2.52238 63.0868 13.5848 48.4943 20.2174 52.675Z" fill="white"/>
<path d="M28.4125 80.6365C27.9799 80.6365 27.5421 80.6296 27.0957 80.6157C22.6607 80.4808 19.5754 78.169 18.5319 74.2375C16.3759 73.9399 13.9464 72.9553 11.4321 71.0224C5.9952 66.8435 6.72543 60.4358 9.86091 55.9385C12.1433 52.6646 15.926 50.2853 19.2899 51.3045C19.2968 49.2869 19.6948 45.6963 22.1952 43.6908C24.3167 41.9932 27.4089 41.8392 31.3853 43.2322C33.2542 43.888 34.725 44.6857 35.8809 45.5388C39.0874 42.2597 44.0536 40.6228 48.9402 43.8517C53.7317 47.0183 55.495 51.353 55.623 54.992C57.9972 55.1045 60.2761 56.2258 62.1847 58.3161C66.0002 62.4915 65.0676 68.7694 59.8071 74.3067C55.0486 79.3197 47.5507 82.6455 43.0309 78.9234C42.427 78.4285 41.8993 77.9025 41.4442 77.3609C38.5336 79.4996 34.0415 80.6365 28.4125 80.6365ZM20.3627 74.3275C21.1033 76.5303 22.9064 78.7573 27.1476 78.8853C33.0344 79.0601 37.6459 78.0357 40.4423 75.9592C38.8139 73.2425 38.7136 70.2801 39.5459 68.1015C40.1602 66.4905 41.2382 65.5665 42.3613 65.5647C42.9738 65.5907 44.0951 65.9506 44.7129 68.0755C45.4898 70.7542 45.0226 73.3844 43.396 75.4834C43.1953 75.7412 42.979 75.9904 42.7471 76.2309C43.1365 76.6947 43.5933 77.1498 44.128 77.591C47.7082 80.5309 54.2716 77.6273 58.5526 73.1179C62.2003 69.2747 64.7353 63.6769 60.9059 59.4841C59.0786 57.4838 57.2202 56.7708 55.5625 56.7016C55.5123 57.1706 55.4344 57.6187 55.3323 58.0427C54.4896 61.5744 52.0463 63.9918 48.9524 64.3517C46.7911 64.594 46.1664 63.4692 45.9986 62.9709C45.3895 61.1539 47.3898 58.1413 50.3661 56.3884C51.5272 55.7032 52.7142 55.2723 53.8944 55.0872C53.7923 51.9188 52.2384 48.1085 47.9816 45.2948C43.749 42.4968 39.7484 44.1026 37.1995 46.6601C39.6584 49.0758 40.0633 51.6385 40.1204 52.6335C40.2519 54.8622 39.3642 56.7778 37.8588 57.5149C36.6527 58.105 35.2528 57.8229 34.0225 56.7449C31.3663 54.4158 32.3717 50.0309 34.7475 46.8557C33.7387 46.1272 32.4495 45.4402 30.8091 44.864C27.4314 43.6752 24.8963 43.7392 23.275 45.0405C20.4821 47.2796 21.0687 52.521 21.0739 52.5729C21.112 52.9034 20.958 53.2287 20.6776 53.4052C20.3956 53.5852 20.0357 53.5852 19.7536 53.4052C17.0109 51.6748 13.4117 53.8672 11.2781 56.9266C8.61156 60.749 7.95228 66.1652 12.4842 69.6485C14.5295 71.2197 16.4797 72.0901 18.2101 72.4379C17.8207 68.4355 19.3937 64.061 21.7522 62.9986C22.3527 62.7303 23.91 62.3081 25.3653 64.2254C27.4746 67.001 27.4297 70.1918 25.2545 72.3548C24.1246 73.483 22.4236 74.2392 20.3627 74.3275ZM42.2851 67.2934C42.1 67.2934 41.5722 67.6464 41.1638 68.7175C40.6689 70.0136 40.4474 72.3773 41.747 74.767C41.8456 74.6545 41.9391 74.5403 42.0308 74.4244C43.3286 72.7493 43.6816 70.7213 43.0534 68.5583C42.7887 67.6499 42.4461 67.2986 42.292 67.2934C42.2886 67.2934 42.2851 67.2934 42.2851 67.2934ZM22.8389 64.4884C22.6676 64.4884 22.543 64.5455 22.4651 64.5801C21.0583 65.2135 19.4612 68.8611 19.9716 72.6196C21.7124 72.6161 23.1262 72.0381 24.0381 71.1314C25.585 69.5931 25.5677 67.3488 23.9914 65.2758C23.5068 64.639 23.114 64.4884 22.8389 64.4884ZM53.8009 56.8591C52.7869 57.0806 51.9113 57.4907 51.2469 57.8818C48.6322 59.4218 47.4088 61.7302 47.6424 62.4223C47.7238 62.6663 48.2913 62.6871 48.7568 62.6334C51.1067 62.3618 52.9825 60.4479 53.6521 57.643C53.711 57.3903 53.7611 57.129 53.8009 56.8591ZM36.073 47.9821C33.9567 50.8546 33.5622 54.0385 35.168 55.4471C35.656 55.8745 36.3914 56.3175 37.1043 55.9645C37.9539 55.5492 38.4852 54.222 38.3986 52.739C38.3502 51.9465 38.0249 49.9444 36.073 47.9821Z" fill="#2A1D25"/>
<path d="M344.543 364.631C344.543 364.631 343.004 351.648 355.425 356.005C367.846 360.361 363.625 372.174 358.922 368.052C354.219 363.931 363.323 350.274 372.788 356.531C382.253 362.788 379.964 374.659 373.181 375.45C366.398 376.239 377.46 361.648 385.871 370.859C394.283 380.068 375.442 396.415 367.906 390.217C360.371 384.019 366.458 374.252 368.208 380.276C369.957 386.299 364.953 392.119 351.447 391.709C337.941 391.299 344.361 370.598 349.004 376.708C353.646 382.82 345.719 389.544 336.282 382.294C326.847 375.041 337.91 360.451 344.543 364.631Z" fill="white"/>
<path d="M352.738 392.591C352.305 392.591 351.868 392.584 351.421 392.57C346.986 392.437 343.899 390.124 342.856 386.192C340.7 385.894 338.272 384.91 335.756 382.977C330.319 378.8 331.049 372.392 334.183 367.895C336.465 364.619 340.246 362.24 343.614 363.259C343.621 361.241 344.017 357.651 346.519 355.645C348.64 353.948 351.731 353.794 355.709 355.187C357.578 355.843 359.047 356.639 360.205 357.493C363.411 354.214 368.379 352.577 373.264 355.806C378.054 358.973 379.817 363.308 379.947 366.947C382.321 367.057 384.6 368.18 386.508 370.271C390.322 374.448 389.39 380.726 384.131 386.263C379.372 391.276 371.878 394.6 367.355 390.878C366.751 390.383 366.225 389.857 365.768 389.315C362.859 391.452 358.367 392.591 352.738 392.591ZM344.688 386.284C345.429 388.487 347.232 390.715 351.473 390.842C357.356 391.022 361.973 389.992 364.768 387.916C363.139 385.199 363.041 382.235 363.871 380.056C364.486 378.445 365.564 377.502 366.687 377.521C367.301 377.547 368.422 377.907 369.038 380.032C369.817 382.71 369.35 385.341 367.723 387.44C367.523 387.698 367.306 387.947 367.076 388.187C367.465 388.651 367.922 389.106 368.457 389.547C372.035 392.487 378.599 389.584 382.88 385.076C386.527 381.233 389.064 375.633 385.235 371.44C383.408 369.44 381.549 368.727 379.891 368.658C379.841 369.125 379.763 369.575 379.661 370.001C378.819 373.531 376.375 375.95 373.281 376.31C371.117 376.554 370.495 375.429 370.327 374.929C369.717 373.114 371.717 370.099 374.693 368.346C375.854 367.663 377.041 367.23 378.223 367.045C378.121 363.879 376.567 360.066 372.311 357.253C368.076 354.453 364.077 356.061 361.528 358.618C363.987 361.032 364.392 363.596 364.449 364.591C364.581 366.82 363.693 368.738 362.188 369.473C360.982 370.061 359.583 369.779 358.351 368.703C355.695 366.374 356.701 361.989 359.075 358.814C358.066 358.085 356.778 357.398 355.136 356.822C351.762 355.637 349.225 355.697 347.6 356.998C344.808 359.238 345.394 364.479 345.401 364.533C345.439 364.863 345.285 365.188 345.003 365.365C344.721 365.545 344.361 365.545 344.079 365.365C341.333 363.636 337.735 365.827 335.602 368.888C332.937 372.711 332.278 378.125 336.81 381.608C338.855 383.179 340.805 384.05 342.536 384.398C342.146 380.395 343.719 376.021 346.078 374.96C346.68 374.687 348.234 374.268 349.691 376.185C351.8 378.961 351.755 382.152 349.58 384.315C348.452 385.438 346.749 386.194 344.688 386.284ZM366.611 379.248C366.425 379.248 365.898 379.601 365.489 380.67C364.994 381.968 364.773 384.332 366.072 386.722C366.171 386.609 366.265 386.495 366.356 386.379C367.652 384.704 368.007 382.676 367.379 380.513C367.114 379.604 366.772 379.255 366.618 379.248C366.614 379.248 366.611 379.248 366.611 379.248ZM347.164 376.443C346.993 376.443 346.868 376.5 346.791 376.535C345.384 377.168 343.787 380.816 344.297 384.574C346.038 384.571 347.45 383.993 348.364 383.086C349.911 381.548 349.893 379.303 348.317 377.23C347.832 376.594 347.44 376.443 347.164 376.443ZM378.126 368.814C377.112 369.035 376.235 369.445 375.571 369.838C372.956 371.378 371.734 373.685 371.966 374.377C372.048 374.621 372.617 374.642 373.081 374.588C375.432 374.316 377.308 372.402 377.978 369.598C378.036 369.347 378.087 369.084 378.126 368.814ZM360.398 359.935C358.282 362.809 357.888 365.993 359.493 367.4C359.983 367.829 360.715 368.269 361.43 367.917C362.279 367.502 362.811 366.175 362.724 364.692C362.676 363.901 362.352 361.899 360.398 359.935Z" fill="#2A1D25"/>
<path d="M9.45123 370.092C9.30588 370.092 9.16053 370.056 9.02382 369.977C8.93557 369.926 0.480846 363.458 0.773284 362.003C0.949784 361.119 1.03457 360.672 12.7684 361.932C13.2425 361.982 13.5869 362.408 13.5367 362.885C13.4865 363.358 13.0574 363.699 12.585 363.652C9.1588 363.285 5.4021 362.967 3.37753 362.898C5.27924 364.711 9.28685 368.085 9.90979 368.49C10.3026 368.745 10.4324 369.276 10.1867 369.677C10.0205 369.942 9.74021 370.092 9.45123 370.092Z" fill="#2A1D25"/>
<path d="M22.8446 368.931C22.8446 368.931 20.6176 355.605 13.8725 358.77C4.53006 363.155 2.66988 388.608 21.533 392.131C40.396 395.654 45.428 379.918 45.428 379.918L35.364 378.684C35.364 378.684 41.7388 371.593 40.5327 366.453C39.3266 361.316 34.305 366.476 34.305 366.476C34.305 366.476 39.4789 353.799 34.1043 354C28.728 354.202 22.8446 368.931 22.8446 368.931Z" fill="#E84271"/>
<path d="M14.2427 368.229C13.8049 368.229 13.4173 368.04 13.1508 367.689C12.2648 366.535 13.021 363.468 13.5488 361.741C13.6889 361.285 14.1752 361.023 14.6303 361.169C15.0871 361.307 15.3449 361.792 15.2048 362.248C14.7012 363.891 14.3949 365.706 14.478 366.42C15.1096 366.085 16.1063 364.69 16.7016 363.437C16.9075 363.008 17.4231 362.821 17.8557 363.029C18.2866 363.233 18.47 363.75 18.2658 364.181C17.8229 365.112 16.2274 368.159 14.298 368.227C14.2773 368.229 14.26 368.229 14.2427 368.229Z" fill="#2A1D25"/>
<path d="M32.1607 378.966C31.9427 378.966 31.7246 378.883 31.5568 378.718C31.2142 378.386 31.209 377.838 31.5412 377.495C33.102 375.894 35.445 372.714 35.0833 370.992C35.0487 370.833 35.0107 370.785 35.0107 370.785C34.5556 370.65 32.7369 372.043 31.3128 373.562C31.0567 373.837 30.6483 373.917 30.3092 373.75C29.9683 373.586 29.7727 373.223 29.8264 372.849C30.1673 370.432 30.1932 367.952 29.9129 367.113C28.9058 367.964 26.6373 371.712 24.9501 375.057C24.7355 375.483 24.2164 375.654 23.789 375.439C23.3616 375.225 23.1903 374.704 23.4066 374.277C28.179 364.815 29.7762 365.157 30.3092 365.268C31.5481 365.531 32.0482 367.362 31.8025 370.717C32.993 369.731 34.4431 368.836 35.5332 369.149C35.9035 369.253 36.5611 369.584 36.7808 370.636C37.4488 373.818 33.263 378.213 32.7819 378.703C32.6089 378.878 32.3839 378.966 32.1607 378.966Z" fill="#2A1D25"/>
<path d="M23.1315 388.727C21.0049 388.727 18.61 388.353 16.3242 387.187C12.5623 385.266 9.95802 381.625 8.58581 376.37C8.46469 375.908 8.74155 375.436 9.2053 375.316C9.66385 375.19 10.1397 375.47 10.2608 375.934C11.5015 380.684 13.803 383.951 17.1011 385.638C22.5778 388.445 29.0876 385.984 29.1516 385.962C29.5929 385.784 30.0981 386.009 30.2694 386.455C30.4425 386.9 30.2227 387.402 29.7763 387.573C29.5911 387.647 26.7515 388.727 23.1315 388.727Z" fill="#2A1D25"/>
<path d="M415.897 154.518C415.704 154.518 415.506 154.452 415.345 154.319C414.979 154.012 414.927 153.469 415.233 153.101C415.671 152.517 418.275 147.972 419.436 145.615C417.562 146.374 414.141 147.965 411.049 149.487C410.618 149.7 410.102 149.524 409.89 149.093C409.678 148.665 409.855 148.146 410.282 147.935C420.862 142.723 421.101 143.111 421.571 143.881C422.35 145.151 416.629 154.125 416.564 154.205C416.394 154.412 416.147 154.518 415.897 154.518Z" fill="#2A1D25"/>
<path d="M403.227 157.975C403.227 157.975 400.737 144.696 408.159 145.35C418.439 146.257 428.938 169.517 412.435 179.311C395.932 189.103 385.797 176.056 385.797 176.056L394.825 171.437C394.825 171.437 386.399 166.97 385.768 161.73C385.134 156.49 391.623 159.61 391.623 159.61C391.623 159.61 382.407 149.484 387.524 147.826C392.639 146.167 403.227 157.975 403.227 157.975Z" fill="#E84271"/>
<path d="M410.369 154.474C408.628 154.474 406.552 152.583 405.899 151.941C405.558 151.607 405.553 151.06 405.887 150.719C406.221 150.375 406.768 150.373 407.111 150.705C408.102 151.678 409.516 152.642 410.224 152.742C410.056 152.043 409.144 150.442 408.107 149.074C407.818 148.693 407.894 148.151 408.275 147.862C408.656 147.573 409.199 147.65 409.486 148.03C410.577 149.468 412.34 152.09 411.906 153.478C411.769 153.914 411.452 154.234 411.013 154.377C410.807 154.443 410.59 154.474 410.369 154.474Z" fill="#2A1D25"/>
<path d="M397.632 170.652C397.507 170.652 397.381 170.624 397.26 170.567C396.642 170.271 391.2 167.584 390.734 164.369C390.58 163.305 391.082 162.766 391.395 162.542C392.318 161.877 393.979 162.216 395.437 162.732C394.053 159.666 393.894 157.774 394.965 157.099C395.42 156.816 396.81 155.94 404.546 163.187C404.896 163.514 404.913 164.063 404.586 164.41C404.259 164.76 403.712 164.775 403.363 164.45C400.558 161.822 397.031 159.006 395.879 158.665C395.899 159.323 396.808 161.78 398.023 164.054C398.201 164.384 398.142 164.796 397.879 165.066C397.616 165.336 397.208 165.404 396.87 165.234C395.041 164.313 392.911 163.696 392.427 163.933C392.433 163.948 392.43 164.011 392.446 164.116C392.698 165.859 395.991 168.039 398.007 169.003C398.438 169.209 398.62 169.726 398.414 170.157C398.263 170.472 397.953 170.652 397.632 170.652Z" fill="#2A1D25"/>
<path d="M403.24 177.864C403.183 177.864 403.144 177.864 403.127 177.864C402.65 177.854 402.271 177.461 402.281 176.982C402.29 176.506 402.705 176.148 403.162 176.134C403.229 176.135 410.187 176.206 414.366 171.69C416.882 168.972 417.92 165.113 417.453 160.224C417.408 159.749 417.756 159.325 418.232 159.28C418.73 159.254 419.132 159.584 419.175 160.058C419.692 165.466 418.498 169.778 415.628 172.875C411.165 177.686 404.245 177.864 403.24 177.864Z" fill="#2A1D25"/>
<path d="M291.589 392.998L291.568 392.982C288.961 390.961 288.486 387.196 290.508 384.588C292.52 381.992 296.277 381.51 298.881 383.512C300.165 384.507 300.971 385.92 301.172 387.505C301.371 389.089 300.944 390.658 299.964 391.921C297.95 394.515 294.192 394.998 291.589 392.998ZM297.841 384.894C295.974 383.46 293.306 383.804 291.876 385.649C290.438 387.502 290.778 390.179 292.629 391.615L292.643 391.627C294.493 393.05 297.163 392.707 298.595 390.862C299.291 389.966 299.597 388.85 299.452 387.723C299.312 386.593 298.739 385.59 297.841 384.894Z" fill="#2A1D25"/>
<path d="M59.4748 109.861L59.4541 109.846C56.8464 107.825 56.3722 104.059 58.3933 101.452C60.4058 98.8559 64.1625 98.3732 66.7667 100.375C68.0507 101.37 68.8571 102.784 69.0578 104.369C69.2585 105.952 68.8294 107.522 67.85 108.785C65.8358 111.381 62.0791 111.863 59.4748 109.861ZM65.7285 101.758C63.8614 100.323 61.1931 100.668 59.7638 102.511C58.3258 104.364 58.665 107.041 60.5165 108.477L60.5304 108.489C62.3802 109.911 65.0502 109.569 66.4829 107.724C67.1786 106.826 67.4831 105.712 67.3395 104.585C67.1993 103.459 66.6248 102.455 65.7285 101.758Z" fill="#2A1D25"/>
<path d="M344.127 22.5851L344.107 22.5695C341.499 20.5484 341.025 16.7831 343.046 14.1754C345.058 11.5798 348.815 11.097 351.419 13.0991C352.703 14.094 353.51 15.5078 353.71 17.0928C353.911 18.6761 353.482 20.2456 352.503 21.5088C350.488 24.1044 346.73 24.5872 344.127 22.5851ZM350.379 14.4816C348.512 13.0471 345.844 13.3915 344.415 15.2361C342.977 17.0894 343.316 19.7663 345.167 21.2025L345.181 21.2146C347.031 22.637 349.701 22.2944 351.134 20.4498C351.829 19.5534 352.134 18.4373 351.99 17.3108C351.85 16.1809 351.277 15.179 350.379 14.4816Z" fill="#2A1D25"/>
<path d="M296.381 16.7727H296.376L293.029 16.7605L296.575 14.357C296.971 14.0888 297.073 13.5507 296.805 13.1544C296.535 12.7564 295.993 12.6595 295.602 12.9242L290.817 16.167L290.923 10.5778C290.933 10.1002 290.553 9.70571 290.075 9.69705H290.07C289.596 9.69013 289.203 10.0691 289.193 10.5467L289.099 15.4783L286.173 12.3048C285.848 11.9552 285.303 11.9293 284.95 12.2546C284.598 12.5782 284.576 13.1267 284.9 13.478L287.91 16.7432L282.366 16.7242C281.889 16.7225 281.499 17.1084 281.498 17.5859C281.496 18.0601 281.877 18.4477 282.351 18.4546H282.359L287.416 18.4719L283.465 21.1506C283.069 21.4188 282.967 21.9569 283.235 22.3532C283.401 22.5972 283.667 22.7287 283.939 22.7321C284.112 22.7339 284.285 22.6854 284.436 22.5833L289.02 19.4755L288.912 25.1063C288.902 25.5838 289.283 25.9784 289.76 25.987H289.765C290.24 25.994 290.632 25.615 290.641 25.1391L290.741 19.8216L293.86 23.2045C294.027 23.3862 294.254 23.4797 294.484 23.4831C294.697 23.4866 294.913 23.4105 295.083 23.2547C295.434 22.9311 295.457 22.3826 295.133 22.0313L291.868 18.4892L296.362 18.5048C296.839 18.5065 297.229 18.1206 297.23 17.643C297.239 17.1655 296.858 16.7796 296.381 16.7727Z" fill="#2A1D25"/>
<path d="M15.8707 225.436H15.8655L12.5189 225.424L16.0645 223.021C16.4607 222.752 16.5628 222.214 16.2946 221.818C16.0247 221.42 15.4831 221.323 15.0937 221.588L10.3092 224.831L10.4147 219.241C10.4251 218.764 10.0444 218.369 9.56683 218.361H9.56164C9.08751 218.354 8.69471 218.733 8.68433 219.21L8.59089 224.142L5.66478 220.968C5.33947 220.619 4.79439 220.593 4.44139 220.918C4.09012 221.242 4.06762 221.79 4.39121 222.142L7.4021 225.407L1.85963 225.388C1.38204 225.386 0.992703 225.772 0.990973 226.25C0.989242 226.725 1.36993 227.111 1.84406 227.118H1.85271L6.90894 227.136L2.95844 229.814C2.56218 230.082 2.46008 230.621 2.72829 231.017C2.89441 231.261 3.16089 231.392 3.43257 231.396C3.60561 231.397 3.77865 231.349 3.92919 231.247L8.51302 228.139L8.40573 233.77C8.39535 234.247 8.77604 234.642 9.25363 234.651H9.25882C9.73295 234.658 10.1257 234.279 10.1344 233.803L10.2348 228.485L13.3529 231.868C13.5208 232.05 13.7475 232.143 13.9776 232.147C14.1905 232.15 14.4068 232.074 14.5746 231.918C14.9259 231.595 14.9484 231.046 14.6248 230.695L11.3595 227.153L15.8534 227.168C16.331 227.17 16.7203 226.784 16.722 226.307C16.729 225.829 16.3483 225.443 15.8707 225.436Z" fill="#2A1D25"/>
<path d="M401.222 337.807H401.217L397.87 337.795L401.416 335.391C401.812 335.123 401.914 334.585 401.646 334.188C401.376 333.79 400.834 333.694 400.443 333.958L395.66 337.201L395.766 331.612C395.776 331.134 395.396 330.74 394.918 330.731H394.913C394.439 330.724 394.046 331.103 394.035 331.581L393.942 336.512L391.016 333.339C390.691 332.989 390.146 332.965 389.793 333.289C389.441 333.612 389.419 334.161 389.742 334.512L392.753 337.777L387.209 337.758C386.731 337.756 386.342 338.142 386.34 338.62C386.339 339.094 386.719 339.482 387.193 339.487H387.202L392.258 339.504L388.308 342.183C387.912 342.451 387.809 342.989 388.078 343.385C388.244 343.629 388.51 343.761 388.782 343.764C388.955 343.766 389.128 343.718 389.279 343.616L393.862 340.508L393.755 346.139C393.746 346.616 394.125 347.011 394.605 347.019H394.61C395.084 347.026 395.477 346.647 395.486 346.17L395.586 340.852L398.704 344.235C398.872 344.417 399.099 344.51 399.329 344.514C399.542 344.517 399.758 344.441 399.927 344.285C400.279 343.962 400.299 343.413 399.978 343.062L396.712 339.52L401.206 339.535C401.684 339.537 402.073 339.151 402.075 338.674C402.08 338.199 401.699 337.814 401.222 337.807Z" fill="#2A1D25"/>
<path d="M381.475 37.1567C381.248 37.1567 381.023 37.0875 380.824 36.9525C380.198 36.5303 378.492 33.7357 376.645 30.2299C372.087 30.7386 368.279 30.91 367.744 30.1693C367.51 29.844 367.453 29.3215 367.85 28.8837C368.715 27.9233 370.75 25.6911 373.207 23.137C371.428 19.1017 370.18 15.4644 370.648 14.3172C370.873 13.7652 371.402 13.4745 371.987 13.5817C373.093 13.7807 376.303 15.3398 379.431 16.9664C382.662 13.9642 385.647 11.5918 387.048 11.5624C387.597 11.5347 387.912 11.7752 388.097 11.9638C388.291 12.1611 388.379 12.438 388.334 12.7114C387.933 15.1512 387.426 18.0669 386.858 21.019C394.43 25.3433 394.52 26.1168 394.572 26.5511C394.615 26.9318 394.342 27.4007 393.993 27.553C393.908 27.5893 389.949 28.3247 385.126 29.074C384.074 33.3412 382.958 36.622 381.947 37.0563C381.791 37.1221 381.632 37.1567 381.475 37.1567ZM378.415 30.0205C379.656 32.3998 380.783 34.3431 381.444 35.1615C381.932 34.2998 382.572 32.187 383.267 29.3561C381.667 29.5931 380.016 29.8215 378.415 30.0205ZM373.975 24.8397C372.655 26.2171 371.326 27.636 370.035 29.0498C371.295 29.0446 373.382 28.8733 375.804 28.6068C375.185 27.3817 374.564 26.1046 373.975 24.8397ZM375.252 23.5194C375.991 25.146 376.798 26.8297 377.588 28.4026C379.564 28.1673 381.672 27.8904 383.683 27.6066C384.084 25.8676 384.496 23.9347 384.903 21.8998C383.214 20.9463 381.432 19.9686 379.734 19.0671C378.324 20.4168 376.804 21.9275 375.252 23.5194ZM386.505 22.8169C386.195 24.3604 385.87 25.8883 385.538 27.3401C388.263 26.937 390.651 26.5442 392.065 26.2621C390.937 25.4488 388.888 24.1943 386.505 22.8169ZM372.255 15.4523C372.394 16.6169 373.293 19.036 374.493 21.8081C375.661 20.6158 376.889 19.389 378.107 18.2175C375.579 16.9058 373.401 15.8572 372.255 15.4523ZM381.058 17.823C382.17 18.4147 383.222 18.9858 384.102 19.472C384.5 19.6935 384.884 19.9064 385.252 20.1123C385.669 17.9493 386.074 15.7067 386.448 13.4918C385.366 14.0317 383.425 15.6288 381.058 17.823Z" fill="#2A1D25"/>
<path d="M328.852 108.596C350.06 108.596 367.251 91.4044 367.251 70.1971C367.251 48.9897 350.06 31.7978 328.852 31.7978C307.645 31.7978 290.453 48.9897 290.453 70.1971C290.453 91.4044 307.645 108.596 328.852 108.596Z" fill="#76AEA6"/>
<path d="M350.343 100.493C349.873 100.493 349.487 100.116 349.478 99.645C349.155 82.5815 307.43 41.9137 307.009 41.5053C306.666 41.1731 306.658 40.6228 306.99 40.2819C307.322 39.9376 307.871 39.9324 308.213 40.2611C309.954 41.9517 350.871 81.8374 351.209 99.6104C351.217 100.088 350.838 100.484 350.359 100.493C350.356 100.493 350.349 100.493 350.343 100.493Z" fill="#2A1D25"/>
<path d="M335.816 99.3819C330.134 80.0724 299.142 53.2944 297.825 52.1662C297.464 51.8547 296.919 51.898 296.606 52.2579C296.294 52.6213 296.336 53.1664 296.699 53.4779C296.836 53.5955 302.691 58.6569 309.779 65.8762C301.473 68.6483 290.297 81.4671 289.796 82.045C289.483 82.4067 289.523 82.9517 289.885 83.2649C290.047 83.4068 290.25 83.4761 290.451 83.4761C290.693 83.4761 290.933 83.374 291.105 83.1767C291.227 83.0331 303.347 69.1432 311.162 67.2951C313.596 69.818 316.135 72.559 318.614 75.4262C317.353 75.8017 303.778 80.0827 301.425 91.2732C301.326 91.7404 301.625 92.199 302.093 92.2976C302.153 92.3115 302.212 92.3167 302.273 92.3167C302.674 92.3167 303.032 92.0381 303.119 91.6297C305.318 81.1712 319.064 77.0995 319.203 77.058C319.416 76.9974 319.58 76.8573 319.689 76.6825C323.193 80.8164 326.507 85.158 329.156 89.4096C328.974 89.3404 328.77 89.3213 328.569 89.3888C322.658 91.429 310.535 102.886 310.021 103.374C309.675 103.701 309.661 104.25 309.99 104.596C310.16 104.776 310.388 104.866 310.618 104.866C310.833 104.866 311.046 104.786 311.214 104.627C311.336 104.511 323.576 92.9413 329.134 91.0241C329.461 90.9116 329.67 90.6209 329.706 90.2973C331.702 93.6093 333.269 96.8503 334.159 99.8733C334.269 100.251 334.614 100.493 334.988 100.493C335.067 100.493 335.15 100.481 335.232 100.456C335.69 100.321 335.951 99.8422 335.816 99.3819Z" fill="#2A1D25"/>
<path d="M366.999 63.021C362.141 63.021 352.666 69.4892 351.702 70.1554C349.148 66.3503 346.19 62.2735 343.148 58.2468C345.142 57.1463 354.801 52.0174 360.549 52.604C361.02 52.6559 361.449 52.3098 361.499 51.8357C361.55 51.3616 361.205 50.9342 360.729 50.884C354.211 50.1884 343.674 55.9593 342.089 56.8521C340.134 54.2894 338.165 51.7665 336.261 49.3699C340.167 46.8176 348.663 41.7406 352.133 41.7406C352.19 41.7406 352.247 41.7423 352.302 41.744C352.806 41.789 353.186 41.4031 353.212 40.9255C353.237 40.448 352.87 40.0413 352.394 40.0171C352.316 40.0119 352.238 40.0102 352.159 40.0102C347.68 40.0102 337.98 46.1687 335.178 48.0098C328.476 39.626 322.863 33.0799 322.29 32.4137C321.98 32.0503 321.434 32.0123 321.07 32.322C320.709 32.6335 320.667 33.1786 320.979 33.5419C321.333 33.9538 356.543 74.9988 357.833 85.6321C357.886 86.0699 358.26 86.3918 358.691 86.3918C358.726 86.3918 358.76 86.3901 358.796 86.3849C359.271 86.3278 359.61 85.8969 359.553 85.421C359.193 82.4499 356.471 77.411 352.659 71.5951C355.455 69.6519 363.311 64.7462 367 64.7462C367.004 64.7462 367.007 64.7462 367.011 64.7462C367.488 64.7462 367.874 64.3586 367.876 63.8828C367.874 63.4052 367.4 63.0089 366.999 63.021Z" fill="#2A1D25"/>
<path d="M352.825 302.264C352.556 302.264 352.292 302.14 352.122 301.906C351.842 301.518 351.93 300.979 352.316 300.698C359.173 295.746 362.563 291.169 362.679 286.711C362.864 279.617 354.911 273.214 345.701 265.8C335.46 257.554 323.854 248.21 320.79 235.377C317.784 222.787 321.606 211.271 331.553 202.955C335.017 200.058 339.528 197.499 344.302 195.689C340.698 187.459 339.942 172.33 361.355 150.069C377.36 133.431 383.723 120.247 380.267 110.884C376.124 99.6605 358.779 97.8367 358.604 97.8194C358.128 97.7727 357.78 97.3504 357.827 96.8729C357.874 96.3987 358.284 96.063 358.772 96.0959C359.53 96.1703 377.365 98.0391 381.888 110.278C385.598 120.316 379.109 134.108 362.601 151.268C341.76 172.934 342.499 187.368 345.936 195.104C353.008 192.709 360.457 192.029 365.813 194.374C369.189 195.852 371.06 198.369 371.224 201.657C371.392 205.038 369.661 207.544 366.477 208.535C360.599 210.363 350.869 206.75 345.754 198.463C345.507 198.063 345.261 197.636 345.022 197.184C340.727 198.774 336.431 201.131 332.662 204.284C323.245 212.159 319.625 223.06 322.472 234.978C325.4 247.236 336.761 256.383 346.786 264.453C356.353 272.157 364.616 278.809 364.408 286.758C364.276 291.794 360.653 296.814 353.328 302.103C353.178 302.212 353.001 302.264 352.825 302.264ZM346.68 196.606C346.86 196.937 347.043 197.252 347.229 197.551C351.856 205.044 360.821 208.48 365.965 206.881C367.666 206.352 369.66 205.033 369.495 201.74C369.365 199.115 367.893 197.17 365.121 195.957C360.854 194.09 353.868 194.272 346.68 196.606Z" fill="#2A1D25"/>
<path d="M285.18 287.303C285.18 287.303 317.734 288.9 340.162 325.263C362.589 361.626 298.874 318.009 266.881 325.263C234.888 332.517 269.395 283.344 285.18 287.303Z" fill="#403955"/>
<path d="M283.207 170.92C283.207 170.92 309.717 151.96 349.876 166.537C390.033 181.116 313.006 186.487 292.432 212.038C271.856 237.589 268.374 177.617 283.207 170.92Z" fill="#403955"/>
<path d="M273.244 334.273C264.232 331.316 292.017 278.307 292.105 237.281C292.342 127.61 340.452 111.95 326.216 108.181C263.68 91.6315 222.055 143.782 222.055 143.782C222.055 143.782 177.437 122.133 151.121 137.965C124.806 153.796 200.162 196.293 133.178 240.33C97.8261 263.571 95.2356 294.55 104.831 320.267C85.3585 328.578 53.623 336.139 35.8207 308.414C5.91591 261.847 154.974 277.741 121.583 196.362C99.8818 143.467 34.7236 129.577 24.6769 177.954C14.6302 226.331 42.6557 195.554 59.6102 192.605C88.4352 187.592 125.492 232.704 70.2435 238.298C-54.79 250.96 17.3885 403.832 114.839 339.655C124.016 353.372 135.791 363.664 145.142 367.343C173.476 378.49 301.835 367.343 316.144 367.343C330.451 367.343 292.107 340.461 273.244 334.273Z" fill="#403955"/>
<path d="M273.244 334.273C273.244 334.273 213.188 326.099 227.011 270.766C227.011 270.766 279.068 256.478 291.165 251.039C291.165 251.039 287 289.793 273.244 334.273Z" fill="#EEEBD6"/>
<path d="M242.693 128.818C242.693 128.818 222.974 186.672 301.079 196.345C301.079 196.345 300.189 202.837 298.909 212.003L286.251 231.967L293.605 249.119C292.043 259.695 290.691 268.333 290.112 270.768C288.319 278.295 147.534 277.724 133.18 240.333C133.18 240.333 139.153 236.44 145.218 228.689L162.403 215.251L157.816 192.607C157.828 186.452 156.916 179.705 154.722 172.368C154.722 172.368 212.162 159.923 242.693 128.818Z" fill="#FEC601"/>
<path d="M222.057 143.784C222.057 143.784 223.085 210.991 301.079 196.345L304.239 155.859C304.239 155.859 259.971 191.055 242.693 128.818C242.693 128.818 226.672 142.573 222.057 143.784Z" fill="#E84271"/>
<path d="M157.81 192.605C157.81 192.605 193.766 252.437 298.909 212.002C298.909 212.002 296.86 236.27 293.605 249.117C291.577 257.122 169.293 263.649 145.215 228.684C145.215 228.684 159.195 205.002 157.81 192.605Z" fill="#E84271"/>
<path d="M97.2326 179.28C96.8381 179.28 96.4834 179.01 96.3916 178.61C96.3588 178.479 95.6337 175.68 92.0034 175.601C91.5258 175.591 91.1468 175.194 91.1572 174.717C91.1676 174.239 91.6002 173.825 92.0414 173.87C96.0577 173.959 97.7465 176.757 98.0788 178.224C98.1843 178.691 97.8919 179.153 97.4264 179.259C97.3607 179.273 97.2966 179.28 97.2326 179.28Z" fill="white"/>
<path d="M90.0114 181.424C89.6169 181.424 89.2605 181.154 89.1687 180.752C89.1324 180.605 88.4022 177.826 84.7805 177.745C84.3029 177.734 83.9239 177.338 83.9343 176.861C83.9447 176.385 84.2769 176.023 84.8185 176.014C88.8348 176.104 90.5219 178.901 90.8542 180.368C90.958 180.835 90.6673 181.297 90.2001 181.403C90.1378 181.417 90.0737 181.424 90.0114 181.424Z" fill="white"/>
<path d="M87.7465 172.694C87.352 172.694 86.9973 172.424 86.9056 172.024C86.8727 171.893 86.1477 169.094 82.5173 169.015C82.0397 169.005 81.6607 168.61 81.6711 168.131C81.6815 167.655 82.0864 167.302 82.5553 167.284C86.5716 167.373 88.2605 170.171 88.5927 171.638C88.6983 172.105 88.4058 172.567 87.9403 172.673C87.8746 172.687 87.8106 172.694 87.7465 172.694Z" fill="white"/>
<path d="M79.6982 173.889C79.3037 173.889 78.949 173.62 78.8555 173.218C78.8192 173.074 78.0907 170.292 74.4672 170.211C73.9896 170.2 73.6107 169.804 73.6211 169.326C73.6314 168.849 73.9654 168.427 74.5053 168.48C78.5216 168.57 80.2087 171.367 80.5409 172.834C80.6465 173.301 80.354 173.763 79.8886 173.869C79.8263 173.883 79.7605 173.889 79.6982 173.889Z" fill="white"/>
<path d="M82.0725 182.441C81.6797 182.441 81.3215 182.171 81.2298 181.77C81.1934 181.623 80.4632 178.844 76.8415 178.762C76.3639 178.752 75.9849 178.356 75.9953 177.878C76.0057 177.4 76.3397 176.973 76.8796 177.032C80.8958 177.122 82.583 179.918 82.9152 181.386C83.0207 181.853 82.7283 182.315 82.2628 182.42C82.2005 182.434 82.1365 182.441 82.0725 182.441Z" fill="white"/>
<path d="M76.6911 165.698C76.2966 165.698 75.9401 165.428 75.8484 165.026C75.8121 164.879 75.0819 162.1 71.4601 162.019C70.9826 162.009 70.6036 161.612 70.614 161.135C70.6244 160.659 70.9808 160.285 71.4982 160.289C75.5145 160.379 77.2033 163.175 77.5356 164.642C77.6411 165.109 77.3487 165.571 76.8832 165.677C76.8192 165.691 76.7552 165.698 76.6911 165.698Z" fill="white"/>
<path d="M70.6675 167.638C70.363 167.638 70.0671 167.477 69.9096 167.191C69.8473 167.079 68.4422 164.706 64.6959 165.608C64.2356 165.717 63.765 165.431 63.6525 164.969C63.5418 164.504 63.8273 164.037 64.2927 163.924C68.3609 162.946 70.7385 165.089 71.4289 166.359C71.6573 166.778 71.5016 167.304 71.0811 167.532C70.9479 167.605 70.8077 167.638 70.6675 167.638Z" fill="white"/>
<path d="M113.599 273.019C113.253 273.019 112.926 272.809 112.793 272.468C111.336 268.722 113.274 266.09 114.502 265.223C114.893 264.945 115.433 265.04 115.708 265.431C115.983 265.82 115.892 266.357 115.506 266.632C115.399 266.71 113.089 268.451 114.405 271.839C114.578 272.285 114.359 272.787 113.912 272.96C113.81 273 113.705 273.019 113.599 273.019Z" fill="white"/>
<path d="M118.345 278.869C117.999 278.869 117.672 278.66 117.539 278.317C116.084 274.573 118.022 271.941 119.249 271.074C119.64 270.797 120.18 270.889 120.455 271.282C120.73 271.671 120.638 272.207 120.252 272.482C120.145 272.56 117.835 274.301 119.152 277.691C119.325 278.136 119.105 278.637 118.659 278.81C118.555 278.85 118.449 278.869 118.345 278.869Z" fill="white"/>
<path d="M111.147 284.303C110.801 284.303 110.474 284.093 110.34 283.751C108.885 280.006 110.823 277.374 112.05 276.507C112.441 276.229 112.981 276.324 113.256 276.715C113.531 277.104 113.44 277.641 113.054 277.916C112.946 277.994 110.636 279.734 111.953 283.124C112.126 283.569 111.906 284.071 111.46 284.242C111.358 284.284 111.252 284.303 111.147 284.303Z" fill="white"/>
<path d="M115.333 291.28C114.987 291.28 114.659 291.07 114.526 290.729C113.069 286.983 115.007 284.351 116.236 283.486C116.629 283.207 117.167 283.301 117.442 283.694C117.717 284.083 117.625 284.619 117.24 284.895C117.132 284.972 114.822 286.715 116.139 290.101C116.312 290.548 116.092 291.05 115.646 291.223C115.544 291.262 115.436 291.28 115.333 291.28Z" fill="white"/>
<path d="M122.326 285.812C121.979 285.812 121.652 285.602 121.519 285.261C120.062 281.515 122 278.885 123.229 278.018C123.62 277.739 124.16 277.835 124.435 278.226C124.71 278.615 124.618 279.151 124.232 279.426C124.125 279.504 121.815 281.247 123.132 284.633C123.305 285.08 123.085 285.582 122.639 285.755C122.535 285.793 122.429 285.812 122.326 285.812Z" fill="white"/>
<path d="M108.918 297.193C108.572 297.193 108.245 296.983 108.112 296.642C106.655 292.898 108.593 290.266 109.821 289.399C110.214 289.12 110.752 289.214 111.027 289.606C111.303 289.996 111.211 290.532 110.823 290.809C110.707 290.894 108.409 292.635 109.724 296.012C109.897 296.459 109.678 296.961 109.231 297.132C109.127 297.175 109.022 297.193 108.918 297.193Z" fill="white"/>
<path d="M114.931 302.264C114.663 302.264 114.4 302.141 114.231 301.908C111.77 298.523 112.839 295.507 113.748 294.384C114.047 294.012 114.594 293.953 114.964 294.256C115.335 294.555 115.393 295.097 115.096 295.467C115.009 295.578 113.369 297.779 115.631 300.89C115.913 301.278 115.826 301.818 115.44 302.098C115.284 302.211 115.108 302.264 114.931 302.264Z" fill="white"/>
<path d="M306.249 113.896C306.131 113.896 306.012 113.872 305.898 113.822C305.462 113.628 305.265 113.116 305.458 112.68C307.466 108.167 318.345 106.072 319.578 105.847C320.047 105.772 320.499 106.073 320.584 106.542C320.67 107.013 320.357 107.463 319.888 107.549C316.784 108.113 308.428 110.261 307.042 113.382C306.898 113.704 306.581 113.896 306.249 113.896Z" fill="white"/>
<path d="M310.617 118.591C310.394 118.591 310.17 118.505 310.001 118.333C309.665 117.994 309.669 117.446 310.01 117.11C310.292 116.833 317.006 110.296 324.768 110.053C325.26 110.067 325.645 110.415 325.661 110.891C325.675 111.368 325.301 111.768 324.823 111.784C317.748 112.005 311.29 118.28 311.226 118.344C311.055 118.508 310.837 118.591 310.617 118.591Z" fill="white"/>
<path d="M307.659 362.868C307.339 362.868 307.031 362.69 306.882 362.384C304.906 358.355 302.215 355.806 298.881 354.813C293.226 353.124 287.5 356.462 287.443 356.498C287.035 356.748 286.502 356.609 286.258 356.197C286.014 355.787 286.149 355.256 286.559 355.01C286.817 354.856 292.972 351.25 299.362 353.15C303.185 354.285 306.237 357.137 308.436 361.622C308.647 362.051 308.469 362.569 308.042 362.78C307.917 362.84 307.787 362.868 307.659 362.868Z" fill="white"/>
<path d="M304.34 368.753C304.19 368.753 304.038 368.715 303.899 368.632C303.771 368.554 291.068 361.075 283.602 364.462C283.166 364.652 282.653 364.463 282.456 364.029C282.259 363.593 282.453 363.081 282.887 362.884C291.191 359.137 304.233 366.82 304.785 367.146C305.195 367.391 305.329 367.921 305.085 368.333C304.924 368.603 304.636 368.753 304.34 368.753Z" fill="white"/>
<path d="M105.777 134.492C105.777 134.492 87.7605 68.9615 100.032 39.8406C103.334 32.0054 137.897 63.0574 137.897 63.0574C137.897 63.0574 189.677 34.8899 193.254 31.4949C196.829 28.0981 181.05 -2.22019 189.349 0.129692C198.101 2.60762 222.759 15.5822 222.759 15.5822C222.759 15.5822 285.666 39.3561 260.78 97.4023C235.891 155.45 122.389 212.463 105.777 134.492Z" fill="#403955"/>
<path d="M129.46 70.6193C129.46 70.6193 102.348 46.6463 103.941 52.4951C105.537 58.3421 104.473 85.4557 108.195 86.5182C111.917 87.5807 129.46 70.6193 129.46 70.6193Z" fill="#E84271"/>
<path d="M200.589 32.7944C200.589 32.7944 193.311 8.87513 196.384 8.00301C199.458 7.13088 215.853 15.3832 216.483 17.8109C217.113 20.2404 200.589 32.7944 200.589 32.7944Z" fill="#E84271"/>
<path d="M156.307 98.5461C156.251 98.5461 156.196 98.5409 156.141 98.5305C155.672 98.4371 155.365 97.9837 155.457 97.5148C157.278 88.1914 161.093 82.4984 166.795 80.5949C178.51 76.6704 193.737 90.2246 194.379 90.8043C194.734 91.1244 194.763 91.6695 194.443 92.026C194.121 92.3807 193.576 92.4101 193.221 92.0883C193.071 91.9533 178.105 78.6292 167.342 82.2371C162.275 83.9311 158.849 89.1829 157.156 97.847C157.075 98.2606 156.713 98.5461 156.307 98.5461Z" fill="white"/>
<path d="M227.013 58.2192C226.765 58.2192 226.519 58.1153 226.35 57.9094C219.606 49.8752 216.961 43.111 218.487 37.8074C220.023 32.4691 225.197 30.7421 225.417 30.6712C225.87 30.5189 226.357 30.7716 226.504 31.2267C226.651 31.68 226.403 32.168 225.95 32.3168C225.905 32.3324 221.411 33.8534 220.143 38.304C218.817 42.9536 221.423 49.3491 227.675 56.7968C227.983 57.1619 227.935 57.707 227.568 58.015C227.405 58.1534 227.208 58.2192 227.013 58.2192Z" fill="white"/>
<path d="M137.433 123.531C137.015 123.531 136.648 123.227 136.58 122.801C136.506 122.33 136.828 121.887 137.298 121.811L172.384 116.229C172.862 116.155 173.299 116.478 173.374 116.949C173.448 117.42 173.126 117.863 172.656 117.939L137.57 123.521C137.523 123.528 137.478 123.531 137.433 123.531Z" fill="white"/>
<path d="M142.484 142.936C142.172 142.936 141.871 142.767 141.717 142.472C141.496 142.048 141.659 141.526 142.082 141.303L175.574 123.758C175.997 123.54 176.521 123.703 176.742 124.123C176.964 124.547 176.801 125.07 176.377 125.293L142.885 142.837C142.757 142.903 142.621 142.936 142.484 142.936Z" fill="white"/>
<path d="M244.548 54.1562C244.137 54.1562 243.773 53.862 243.697 53.4433L240.511 35.634C240.427 35.1651 240.74 34.7151 241.21 34.6304C241.679 34.5594 242.131 34.8605 242.214 35.3294L245.4 53.1387C245.485 53.6076 245.171 54.0575 244.701 54.1423C244.651 54.151 244.6 54.1562 244.548 54.1562Z" fill="white"/>
<path d="M250.934 56.9923C250.913 56.9923 250.89 56.9923 250.87 56.9905C250.394 56.9542 250.036 56.5406 250.07 56.0648L251.245 39.7783C251.28 39.3041 251.705 38.9442 252.171 38.9771C252.647 39.0134 253.005 39.427 252.97 39.9029L251.795 56.1894C251.763 56.6445 251.384 56.9923 250.934 56.9923Z" fill="white"/>
<path d="M120.927 75.3328C119.468 75.3328 116.063 74.6286 107.622 71.4291C107.176 71.2595 106.951 70.7594 107.119 70.313C107.29 69.8648 107.79 69.645 108.235 69.8094C113.031 71.6281 118.683 73.4484 120.566 73.6301C119.866 72.1576 116.92 68.5185 114.199 65.5509C113.876 65.1996 113.9 64.6511 114.253 64.3292C114.606 64.0057 115.153 64.0299 115.476 64.3812C123.765 73.4208 122.623 74.4849 122.073 74.9971C121.936 75.1269 121.714 75.3328 120.927 75.3328Z" fill="white"/>
<path d="M208.667 25.2205C205.395 25.2205 199.485 20.5277 198.277 19.5379C197.909 19.2351 197.853 18.6917 198.156 18.3214C198.457 17.9494 199.002 17.8957 199.373 18.2003C202.294 20.5865 207.17 23.8206 208.876 23.4745C209.3 22.6872 207.187 18.0965 204.323 13.6909C204.062 13.2911 204.176 12.7547 204.576 12.4952C204.976 12.2356 205.512 12.3481 205.772 12.7495C207.123 14.826 211.454 21.7926 210.435 24.1909C210.212 24.717 209.774 25.0665 209.203 25.1755C209.034 25.2049 208.855 25.2205 208.667 25.2205Z" fill="white"/>
<path d="M192.207 50.9775C191.937 50.9775 191.671 50.8512 191.503 50.6158C191.418 50.4999 189.676 48.2037 186.296 49.5136C185.851 49.6883 185.35 49.4686 185.177 49.0204C185.003 48.5757 185.223 48.0739 185.67 47.9026C189.413 46.4473 192.046 48.3836 192.913 49.6139C193.19 50.005 193.097 50.5432 192.705 50.8183C192.553 50.9273 192.378 50.9775 192.207 50.9775Z" fill="white"/>
<path d="M184.951 58.2503C184.681 58.2503 184.415 58.1257 184.247 57.8887C184.169 57.7831 182.428 55.4713 179.04 56.7882C178.596 56.9664 178.094 56.7414 177.921 56.295C177.748 55.8503 177.967 55.3485 178.414 55.1772C182.157 53.7236 184.789 55.6599 185.657 56.8851C185.934 57.2761 185.841 57.816 185.45 58.0911C185.299 58.2002 185.124 58.2503 184.951 58.2503Z" fill="white"/>
<path d="M179.516 51.0535C179.247 51.0535 178.98 50.9289 178.812 50.6919C178.736 50.5846 176.997 48.2762 173.605 49.5913C173.162 49.7696 172.659 49.5446 172.486 49.0999C172.313 48.6535 172.533 48.1517 172.979 47.9786C176.72 46.5182 179.356 48.4597 180.222 49.6882C180.499 50.0793 180.406 50.6175 180.015 50.8926C179.864 51.0033 179.689 51.0535 179.516 51.0535Z" fill="white"/>
<path d="M172.539 55.2394C172.269 55.2394 172.003 55.1131 171.835 54.8778C171.749 54.7618 170.01 52.4621 166.63 53.7755C166.185 53.9503 165.684 53.7288 165.51 53.2841C165.337 52.8376 165.557 52.3358 166.004 52.1628C169.75 50.7058 172.378 52.6456 173.247 53.8741C173.524 54.2635 173.431 54.8034 173.039 55.0785C172.885 55.1892 172.711 55.2394 172.539 55.2394Z" fill="white"/>
<path d="M178.007 62.2302C177.737 62.2302 177.471 62.1039 177.303 61.8686C177.217 61.7509 175.474 59.4581 172.098 60.768C171.655 60.9411 171.152 60.723 170.979 60.2749C170.805 59.8302 171.025 59.3283 171.472 59.1553C175.218 57.7018 177.848 59.6364 178.715 60.8649C178.992 61.2543 178.899 61.7942 178.507 62.0693C178.353 62.18 178.179 62.2302 178.007 62.2302Z" fill="white"/>
<path d="M187.689 44.9591C187.419 44.9591 187.153 44.8328 186.985 44.5975C186.898 44.4798 185.159 42.1888 181.78 43.497C181.337 43.6717 180.833 43.452 180.66 43.0038C180.487 42.5591 180.707 42.0573 181.153 41.886C184.9 40.4324 187.53 42.367 188.397 43.5956C188.674 43.9849 188.58 44.5248 188.189 44.8C188.035 44.9072 187.862 44.9591 187.689 44.9591Z" fill="white"/>
<path d="M193.801 57.6862C193.47 57.6862 193.155 57.4976 193.01 57.1757C192.96 57.0667 191.759 54.5853 187.945 55.165C187.459 55.2342 187.031 54.9124 186.959 54.4417C186.886 53.9693 187.21 53.528 187.682 53.4554C191.821 52.8151 194.01 55.1494 194.591 56.4732C194.784 56.911 194.586 57.4214 194.148 57.6135C194.034 57.6637 193.917 57.6862 193.801 57.6862Z" fill="white"/>
<path d="M266.832 70.2541C266.832 70.2541 270.669 101.512 242.693 128.818C207.032 163.625 171.237 169.681 171.237 169.681C188.547 126.681 222.157 147.068 209.741 113.031C197.328 78.9927 186.08 48.9114 218.933 59.2575C251.787 69.6035 248.322 88.8836 258.052 53.7288C263.147 35.3295 266.832 70.2541 266.832 70.2541Z" fill="#EEEBD6"/>
<path d="M214.649 79.3404C214.649 79.3404 221.695 62.8601 225.417 66.5822C229.139 70.3043 229.139 80.6918 229.139 80.6918C229.139 80.6918 211.323 85.9903 214.649 79.3404Z" fill="#E84271"/>
<path d="M242.252 104.525C236.431 104.525 223.675 92.808 222.169 91.4046C221.82 91.0793 221.801 90.5308 222.126 90.1813C222.451 89.8352 223 89.811 223.349 90.138C229.074 95.4694 239.375 103.594 242.687 102.747C242.967 102.673 243.278 102.519 243.465 101.938C245.485 95.6251 239.674 76.6703 239.615 76.48C239.473 76.0231 239.729 75.5386 240.186 75.3985C240.641 75.2548 241.128 75.5127 241.268 75.9695C241.515 76.7689 247.298 95.6372 245.113 102.465C244.786 103.491 244.097 104.166 243.124 104.421C242.854 104.49 242.562 104.525 242.252 104.525Z" fill="#2A1D25"/>
<path d="M244.289 103.066C244.017 103.066 243.749 102.938 243.581 102.699L228.431 81.1902C228.156 80.7992 228.25 80.2593 228.641 79.9842C229.034 79.7108 229.572 79.8042 229.847 80.1935L244.996 101.702C245.272 102.093 245.178 102.633 244.787 102.908C244.635 103.016 244.462 103.066 244.289 103.066Z" fill="#2A1D25"/>
<path d="M156.307 155.445C156.104 155.445 155.904 155.376 155.739 155.232C155.379 154.919 155.341 154.372 155.655 154.012L178.075 128.248C178.388 127.888 178.935 127.85 179.295 128.164C179.655 128.477 179.693 129.024 179.38 129.384L156.959 155.147C156.788 155.345 156.547 155.445 156.307 155.445Z" fill="white"/>
<path d="M337.476 340.582C337.213 340.582 336.953 340.463 336.784 340.236C329.149 330.053 324.094 331.446 324.046 331.463C323.596 331.601 323.108 331.354 322.963 330.904C322.817 330.454 323.053 329.975 323.498 329.823C323.747 329.738 329.675 327.872 338.168 339.2C338.455 339.582 338.377 340.124 337.995 340.411C337.837 340.525 337.656 340.582 337.476 340.582Z" fill="white"/>
<path d="M343.889 339.741C343.788 339.741 343.688 339.724 343.589 339.688C343.141 339.523 342.911 339.025 343.077 338.577C344.539 334.612 334.882 327.852 328.452 324.522C328.028 324.303 327.862 323.78 328.081 323.356C328.299 322.932 328.82 322.763 329.248 322.984C331.089 323.937 347.164 332.489 344.7 339.174C344.572 339.525 344.242 339.741 343.889 339.741Z" fill="white"/>
<path d="M278.03 268.973C276.372 268.63 274.709 265.822 273.083 260.622C272.839 259.843 273.273 259.013 274.054 258.769C274.837 258.527 275.663 258.961 275.907 259.74C276.646 262.105 277.663 264.488 278.364 265.583C278.964 264.42 279.778 261.942 280.321 259.508C280.499 258.71 281.292 258.205 282.088 258.386C282.885 258.563 283.387 259.356 283.209 260.152C281.489 267.855 279.743 268.987 278.658 269.039C278.412 269.051 278.2 269.008 278.03 268.973Z" fill="#D47E3A"/>
<path d="M257.956 270.112C256.298 269.769 254.635 266.961 253.008 261.761C252.764 260.982 253.199 260.152 253.979 259.908C254.763 259.665 255.588 260.1 255.832 260.878C256.571 263.244 257.59 265.627 258.29 266.722C258.89 265.559 259.703 263.081 260.247 260.646C260.425 259.849 261.217 259.343 262.013 259.525C262.811 259.702 263.313 260.494 263.135 261.29C261.415 268.994 259.669 270.126 258.584 270.177C258.338 270.191 258.125 270.148 257.956 270.112Z" fill="#D47E3A"/>
<path d="M234.751 270.112C233.093 269.769 231.43 266.961 229.803 261.761C229.56 260.982 229.994 260.152 230.774 259.908C231.558 259.665 232.384 260.1 232.628 260.878C233.366 263.244 234.386 265.627 235.085 266.722C235.685 265.559 236.498 263.081 237.042 260.646C237.22 259.849 238.012 259.343 238.808 259.525C239.606 259.702 240.108 260.494 239.93 261.29C238.21 268.994 236.464 270.126 235.379 270.177C235.133 270.191 234.92 270.148 234.751 270.112Z" fill="#D47E3A"/>
<path d="M213.095 268.8C211.568 268.075 210.614 264.953 210.266 259.516C210.214 258.701 210.832 257.999 211.649 257.945C212.467 257.895 213.168 258.513 213.22 259.328C213.379 261.801 213.803 264.356 214.224 265.587C215.082 264.599 216.459 262.384 217.563 260.146C217.925 259.413 218.814 259.11 219.545 259.475C220.278 259.837 220.578 260.724 220.216 261.456C216.721 268.534 214.757 269.219 213.691 269.013C213.448 268.966 213.253 268.874 213.095 268.8Z" fill="#D47E3A"/>
<path d="M190.138 264.796C188.61 264.071 187.656 260.949 187.308 255.512C187.257 254.697 187.874 253.995 188.691 253.941C189.51 253.891 190.21 254.509 190.262 255.324C190.42 257.796 190.845 260.352 191.266 261.583C192.124 260.594 193.502 258.38 194.606 256.142C194.967 255.408 195.857 255.107 196.587 255.471C197.321 255.831 197.62 256.72 197.258 257.452C193.763 264.529 191.799 265.215 190.733 265.01C190.491 264.962 190.293 264.87 190.138 264.796Z" fill="#D47E3A"/>
<path d="M174.071 260.769C172.543 260.044 171.59 256.923 171.242 251.486C171.19 250.671 171.808 249.968 172.624 249.914C173.443 249.864 174.144 250.482 174.196 251.297C174.353 253.77 174.779 256.326 175.199 257.556C176.058 256.568 177.435 254.353 178.539 252.116C178.901 251.382 179.79 251.079 180.52 251.444C181.254 251.804 181.553 252.693 181.192 253.425C177.696 260.503 175.732 261.188 174.666 260.982C174.424 260.935 174.227 260.844 174.071 260.769Z" fill="#D47E3A"/>
<path d="M159.056 256.346C157.528 255.621 156.575 252.5 156.227 247.063C156.175 246.248 156.793 245.545 157.61 245.492C158.428 245.443 159.129 246.059 159.181 246.874C159.338 249.347 159.764 251.903 160.185 253.133C161.043 252.145 162.42 249.93 163.526 247.693C163.888 246.959 164.777 246.656 165.507 247.021C166.241 247.381 166.54 248.269 166.179 249.003C162.683 256.08 160.719 256.767 159.653 256.561C159.411 256.514 159.214 256.421 159.056 256.346Z" fill="#D47E3A"/>
<path d="M143.265 248.373C142.083 247.161 142.277 243.903 143.839 238.684C144.073 237.902 144.898 237.457 145.68 237.691C146.466 237.93 146.907 238.75 146.674 239.534C145.962 241.908 145.473 244.452 145.438 245.751C146.587 245.123 148.648 243.526 150.461 241.813C151.057 241.25 151.995 241.276 152.552 241.873C153.114 242.467 153.086 243.403 152.493 243.964C146.755 249.385 144.675 249.345 143.746 248.781C143.538 248.651 143.388 248.497 143.265 248.373Z" fill="#D47E3A"/>
<path d="M166.418 189.328C164.81 188.804 163.469 185.827 162.431 180.479C162.275 179.678 162.799 178.901 163.602 178.745C164.409 178.593 165.18 179.113 165.336 179.916C165.807 182.349 166.554 184.831 167.127 185.997C167.854 184.909 168.937 182.536 169.749 180.176C170.015 179.402 170.858 178.989 171.63 179.259C172.403 179.524 172.813 180.366 172.548 181.138C169.982 188.601 168.119 189.532 167.035 189.463C166.79 189.449 166.584 189.383 166.418 189.328Z" fill="#D47E3A"/>
<path d="M182.545 179.97C180.936 179.446 179.596 176.469 178.558 171.121C178.402 170.32 178.927 169.543 179.73 169.387C180.536 169.233 181.308 169.755 181.463 170.558C181.934 172.991 182.682 175.473 183.254 176.639C183.981 175.551 185.064 173.178 185.876 170.818C186.142 170.044 186.985 169.631 187.757 169.901C188.53 170.166 188.941 171.008 188.676 171.78C186.11 179.243 184.246 180.174 183.163 180.105C182.917 180.091 182.711 180.024 182.545 179.97Z" fill="#D47E3A"/>
<path d="M190.484 197.841C188.876 197.317 187.535 194.341 186.497 188.992C186.341 188.191 186.865 187.414 187.668 187.258C188.475 187.106 189.246 187.627 189.402 188.43C189.873 190.863 190.62 193.344 191.193 194.51C191.92 193.422 193.003 191.05 193.815 188.691C194.081 187.918 194.924 187.504 195.696 187.774C196.469 188.039 196.879 188.881 196.615 189.653C194.048 197.118 192.185 198.047 191.101 197.978C190.856 197.963 190.648 197.895 190.484 197.841Z" fill="#D47E3A"/>
<path d="M200.294 180.714C198.684 180.19 197.343 177.213 196.307 171.865C196.151 171.064 196.675 170.287 197.478 170.131C198.285 169.977 199.056 170.499 199.212 171.302C199.683 173.735 200.43 176.217 201.003 177.383C201.73 176.295 202.813 173.922 203.625 171.562C203.891 170.788 204.734 170.375 205.505 170.645C206.279 170.91 206.689 171.752 206.424 172.524C203.858 179.987 201.996 180.918 200.911 180.849C200.664 180.833 200.458 180.768 200.294 180.714Z" fill="#D47E3A"/>
<path d="M205.405 211.128C203.796 210.603 202.455 207.627 201.418 202.278C201.262 201.477 201.787 200.7 202.589 200.545C203.396 200.392 204.168 200.913 204.323 201.716C204.794 204.149 205.542 206.63 206.114 207.797C206.841 206.708 207.924 204.336 208.736 201.977C209.002 201.204 209.845 200.79 210.617 201.06C211.39 201.325 211.8 202.168 211.536 202.939C208.969 210.403 207.108 211.334 206.023 211.264C205.777 211.249 205.569 211.181 205.405 211.128Z" fill="#D47E3A"/>
<path d="M222.847 219.02C221.238 218.496 219.897 215.519 218.861 210.171C218.705 209.369 219.229 208.593 220.032 208.437C220.838 208.284 221.61 208.805 221.766 209.608C222.237 212.041 222.984 214.523 223.557 215.689C224.284 214.6 225.367 212.228 226.178 209.868C226.445 209.094 227.288 208.681 228.059 208.951C228.833 209.215 229.243 210.058 228.978 210.83C226.41 218.295 224.548 219.224 223.465 219.155C223.22 219.141 223.014 219.075 222.847 219.02Z" fill="#D47E3A"/>
<path d="M234.452 200.458C232.842 199.934 231.503 196.957 230.465 191.609C230.309 190.807 230.833 190.031 231.636 189.875C232.443 189.721 233.214 190.243 233.37 191.046C233.841 193.479 234.588 195.961 235.161 197.127C235.888 196.038 236.971 193.666 237.783 191.306C238.049 190.532 238.892 190.121 239.662 190.389C240.435 190.653 240.846 191.496 240.581 192.268C238.015 199.733 236.151 200.662 235.068 200.593C234.824 200.577 234.618 200.512 234.452 200.458Z" fill="#D47E3A"/>
<path d="M246.93 217.004C245.322 216.48 243.981 213.503 242.943 208.155C242.787 207.354 243.311 206.577 244.114 206.421C244.921 206.267 245.692 206.79 245.848 207.592C246.319 210.025 247.066 212.507 247.639 213.673C248.366 212.585 249.449 210.212 250.261 207.852C250.527 207.079 251.37 206.665 252.141 206.935C252.915 207.2 253.325 208.042 253.06 208.814C250.492 216.277 248.63 217.208 247.547 217.139C247.302 217.125 247.094 217.058 246.93 217.004Z" fill="#D47E3A"/>
<path d="M262.072 211.128C260.463 210.603 259.124 207.627 258.085 202.278C257.93 201.477 258.454 200.7 259.257 200.545C260.063 200.392 260.835 200.913 260.991 201.716C261.461 204.149 262.209 206.63 262.782 207.797C263.509 206.708 264.592 204.336 265.403 201.977C265.67 201.204 266.513 200.79 267.283 201.06C268.056 201.325 268.466 202.168 268.201 202.939C265.635 210.403 263.772 211.334 262.688 211.264C262.444 211.249 262.238 211.181 262.072 211.128Z" fill="#D47E3A"/>
<path d="M282.147 213.647C280.537 213.123 279.198 210.146 278.16 204.798C278.004 203.997 278.528 203.22 279.331 203.064C280.138 202.91 280.909 203.433 281.065 204.235C281.536 206.668 282.283 209.15 282.856 210.316C283.583 209.228 284.666 206.855 285.478 204.495C285.744 203.721 286.587 203.308 287.359 203.578C288.132 203.843 288.542 204.685 288.277 205.457C285.709 212.92 283.848 213.851 282.764 213.782C282.519 213.766 282.311 213.701 282.147 213.647Z" fill="#D47E3A"/>
<path d="M170.036 226.205C168.61 225.293 168.059 222.076 168.399 216.637C168.449 215.822 169.151 215.203 169.968 215.253C170.787 215.307 171.403 216.007 171.352 216.822C171.197 219.295 171.297 221.886 171.558 223.159C172.534 222.287 174.18 220.264 175.559 218.184C176.011 217.502 176.931 217.314 177.61 217.769C178.291 218.219 178.476 219.138 178.027 219.819C173.668 226.4 171.631 226.833 170.6 226.494C170.366 226.414 170.183 226.298 170.036 226.205Z" fill="#7B2C60"/>
<path d="M155.978 229.613C154.552 228.702 154.002 225.485 154.341 220.046C154.391 219.231 155.094 218.612 155.91 218.662C156.729 218.715 157.345 219.416 157.295 220.231C157.139 222.704 157.239 225.293 157.501 226.568C158.477 225.696 160.122 223.673 161.501 221.593C161.953 220.911 162.874 220.723 163.552 221.178C164.234 221.628 164.419 222.547 163.969 223.228C159.61 229.809 157.573 230.242 156.542 229.902C156.308 229.823 156.125 229.707 155.978 229.613Z" fill="#7B2C60"/>
<path d="M174.737 241.731C173.311 240.819 172.761 237.603 173.1 232.164C173.15 231.349 173.853 230.73 174.669 230.78C175.488 230.833 176.104 231.534 176.054 232.349C175.898 234.822 175.998 237.412 176.26 238.686C177.236 237.814 178.881 235.791 180.26 233.711C180.712 233.029 181.633 232.841 182.311 233.296C182.993 233.746 183.178 234.664 182.728 235.344C178.369 241.925 176.332 242.358 175.301 242.019C175.066 241.943 174.882 241.825 174.737 241.731Z" fill="#7B2C60"/>
<path d="M194.091 235.275C192.666 234.363 192.115 231.147 192.455 225.708C192.505 224.893 193.207 224.274 194.024 224.324C194.842 224.377 195.458 225.078 195.408 225.893C195.253 228.366 195.353 230.956 195.614 232.23C196.59 231.358 198.236 229.335 199.615 227.255C200.067 226.573 200.987 226.385 201.665 226.84C202.347 227.29 202.532 228.208 202.082 228.89C197.724 235.471 195.687 235.904 194.656 235.564C194.42 235.485 194.237 235.369 194.091 235.275Z" fill="#7B2C60"/>
<path d="M204.751 245.862C203.325 244.95 202.775 241.733 203.114 236.295C203.164 235.48 203.867 234.86 204.684 234.91C205.502 234.964 206.118 235.665 206.068 236.48C205.914 238.953 206.013 241.543 206.274 242.817C207.25 241.944 208.895 239.922 210.275 237.842C210.726 237.16 211.647 236.971 212.325 237.426C213.007 237.876 213.192 238.795 212.742 239.477C208.383 246.058 206.347 246.49 205.315 246.151C205.08 246.073 204.898 245.955 204.751 245.862Z" fill="#7B2C60"/>
<path d="M239.039 249.286C237.414 248.814 235.976 245.884 234.767 240.572C234.585 239.776 235.083 238.983 235.881 238.8C236.682 238.62 237.471 239.118 237.653 239.914C238.203 242.33 239.03 244.786 239.641 245.934C240.332 244.822 241.337 242.417 242.072 240.032C242.313 239.25 243.142 238.81 243.922 239.054C244.703 239.293 245.14 240.122 244.902 240.902C242.579 248.447 240.749 249.437 239.664 249.404C239.414 249.394 239.207 249.335 239.039 249.286Z" fill="#7B2C60"/>
<path d="M255.552 237.17C253.927 236.698 252.489 233.766 251.28 228.456C251.098 227.66 251.596 226.867 252.394 226.684C253.195 226.504 253.984 227.001 254.166 227.798C254.716 230.214 255.544 232.669 256.154 233.818C256.845 232.706 257.85 230.3 258.586 227.916C258.826 227.134 259.655 226.694 260.435 226.938C261.217 227.177 261.654 228.006 261.415 228.786C259.093 236.329 257.262 237.321 256.177 237.288C255.928 237.277 255.718 237.219 255.552 237.17Z" fill="#7B2C60"/>
<path d="M267.476 249.286C265.851 248.814 264.413 245.884 263.204 240.572C263.022 239.776 263.521 238.983 264.318 238.8C265.119 238.62 265.908 239.118 266.09 239.914C266.64 242.33 267.468 244.786 268.078 245.934C268.769 244.822 269.774 242.417 270.51 240.032C270.75 239.25 271.579 238.81 272.359 239.054C273.14 239.293 273.578 240.122 273.339 240.902C271.017 248.447 269.186 249.437 268.101 249.404C267.852 249.394 267.642 249.335 267.476 249.286Z" fill="#7B2C60"/>
<path d="M283.14 231.851C281.515 231.378 280.077 228.447 278.867 223.137C278.686 222.341 279.184 221.548 279.982 221.365C280.783 221.185 281.572 221.683 281.754 222.479C282.304 224.895 283.131 227.35 283.742 228.499C284.432 227.386 285.438 224.981 286.173 222.597C286.414 221.815 287.243 221.375 288.023 221.619C288.805 221.858 289.243 222.687 289.002 223.467C286.68 231.01 284.849 232.001 283.764 231.969C283.515 231.958 283.306 231.899 283.14 231.851Z" fill="#7B2C60"/>
<path d="M287.551 245.772C285.926 245.3 284.488 242.368 283.278 237.058C283.097 236.262 283.595 235.469 284.393 235.286C285.194 235.106 285.983 235.604 286.165 236.4C286.715 238.816 287.542 241.271 288.153 242.42C288.843 241.308 289.849 238.902 290.584 236.518C290.825 235.736 291.655 235.296 292.434 235.54C293.214 235.779 293.652 236.608 293.413 237.388C291.091 244.931 289.26 245.922 288.175 245.89C287.924 245.881 287.717 245.82 287.551 245.772Z" fill="#7B2C60"/>
<path d="M292.764 192.841C291.139 192.368 289.702 189.439 288.49 184.126C288.309 183.33 288.807 182.538 289.605 182.355C290.406 182.175 291.195 182.673 291.377 183.469C291.927 185.886 292.754 188.34 293.365 189.489C294.055 188.376 295.061 185.971 295.796 183.587C296.037 182.804 296.865 182.365 297.646 182.609C298.428 182.848 298.864 183.677 298.625 184.457C296.303 192.001 294.472 192.991 293.387 192.958C293.14 192.948 292.932 192.889 292.764 192.841Z" fill="#7B2C60"/>
<path d="M284.843 178.901C283.218 178.428 281.78 175.499 280.57 170.186C280.389 169.39 280.887 168.598 281.685 168.414C282.486 168.235 283.275 168.733 283.457 169.529C284.007 171.945 284.834 174.4 285.445 175.549C286.135 174.436 287.141 172.031 287.876 169.647C288.117 168.864 288.947 168.425 289.726 168.669C290.506 168.908 290.946 169.737 290.705 170.517C288.383 178.061 286.552 179.051 285.467 179.018C285.218 179.01 285.009 178.951 284.843 178.901Z" fill="#7B2C60"/>
<path d="M270.914 192.434C269.289 191.962 267.851 189.032 266.642 183.72C266.46 182.924 266.959 182.131 267.756 181.948C268.557 181.768 269.346 182.266 269.528 183.062C270.078 185.478 270.906 187.933 271.516 189.082C272.207 187.97 273.212 185.564 273.948 183.18C274.188 182.398 275.017 181.958 275.797 182.202C276.578 182.441 277.016 183.27 276.777 184.05C274.455 191.595 272.624 192.585 271.539 192.552C271.29 192.543 271.082 192.483 270.914 192.434Z" fill="#7B2C60"/>
<path d="M260.338 177.715C258.957 176.738 258.559 173.498 259.155 168.082C259.243 167.271 259.975 166.684 260.786 166.774C261.601 166.867 262.184 167.594 262.094 168.406C261.823 170.87 261.8 173.46 262.003 174.744C263.019 173.919 264.758 171.976 266.232 169.963C266.716 169.304 267.644 169.158 268.3 169.645C268.959 170.126 269.103 171.053 268.62 171.712C263.955 178.08 261.901 178.416 260.887 178.028C260.658 177.94 260.48 177.816 260.338 177.715Z" fill="#7B2C60"/>
<path d="M244.469 182.517C243.088 181.539 242.69 178.298 243.285 172.884C243.374 172.072 244.106 171.486 244.917 171.576C245.732 171.669 246.315 172.396 246.225 173.208C245.954 175.672 245.931 178.262 246.134 179.546C247.149 178.721 248.888 176.777 250.364 174.765C250.847 174.106 251.776 173.96 252.432 174.447C253.092 174.929 253.235 175.855 252.752 176.514C248.087 182.882 246.033 183.218 245.019 182.83C244.789 182.744 244.611 182.617 244.469 182.517Z" fill="#7B2C60"/>
<path d="M245.872 164.147C244.692 162.936 244.886 159.678 246.454 154.459C246.689 153.677 247.513 153.234 248.297 153.467C249.082 153.706 249.523 154.528 249.288 155.31C248.575 157.684 248.084 160.228 248.049 161.527C249.198 160.901 251.261 159.304 253.074 157.591C253.669 157.03 254.607 157.056 255.165 157.651C255.727 158.245 255.699 159.181 255.104 159.742C249.363 165.16 247.283 165.118 246.355 164.554C246.146 164.426 245.993 164.27 245.872 164.147Z" fill="#7B2C60"/>
<path d="M231.093 156.963C229.913 155.751 230.107 152.493 231.674 147.274C231.91 146.492 232.733 146.049 233.517 146.283C234.303 146.521 234.744 147.343 234.509 148.126C233.796 150.5 233.304 153.043 233.27 154.343C234.419 153.716 236.481 152.119 238.295 150.408C238.89 149.846 239.828 149.873 240.385 150.469C240.946 151.062 240.92 151.998 240.325 152.559C234.583 157.977 232.503 157.935 231.576 157.371C231.365 157.243 231.214 157.087 231.093 156.963Z" fill="#7B2C60"/>
<path d="M224.59 241.641C222.965 241.171 221.526 238.241 220.309 232.931C220.127 232.135 220.624 231.342 221.422 231.159C222.223 230.979 223.012 231.475 223.194 232.271C223.746 234.687 224.575 237.142 225.187 238.29C225.876 237.177 226.881 234.77 227.613 232.386C227.854 231.603 228.683 231.162 229.461 231.406C230.243 231.645 230.681 232.474 230.442 233.254C228.127 240.801 226.296 241.792 225.211 241.759C224.966 241.749 224.756 241.69 224.59 241.641Z" fill="#7B2C60"/>
<path d="M177.433 205.753C175.824 205.229 174.485 202.252 173.446 196.904C173.291 196.103 173.815 195.326 174.618 195.17C175.424 195.018 176.196 195.538 176.352 196.341C176.822 198.774 177.57 201.256 178.143 202.422C178.869 201.334 179.953 198.961 180.764 196.601C181.031 195.827 181.873 195.414 182.645 195.684C183.419 195.949 183.829 196.791 183.564 197.563C180.996 205.026 179.134 205.957 178.051 205.888C177.803 205.874 177.598 205.807 177.433 205.753Z" fill="#D47E3A"/>
<path d="M210.918 168.228C209.31 167.703 207.969 164.727 206.931 159.378C206.775 158.577 207.3 157.8 208.103 157.644C208.909 157.492 209.681 158.013 209.837 158.816C210.307 161.249 211.055 163.73 211.628 164.897C212.354 163.808 213.437 161.436 214.249 159.076C214.516 158.302 215.358 157.888 216.13 158.158C216.903 158.423 217.314 159.266 217.049 160.038C214.481 167.501 212.619 168.432 211.536 168.363C211.29 168.349 211.084 168.283 210.918 168.228Z" fill="#D47E3A"/>
<path d="M219.271 183.953C217.662 183.429 216.322 180.453 215.284 175.104C215.128 174.303 215.653 173.526 216.455 173.37C217.262 173.216 218.034 173.739 218.189 174.542C218.66 176.975 219.407 179.456 219.98 180.622C220.707 179.534 221.79 177.162 222.602 174.801C222.868 174.028 223.711 173.614 224.483 173.884C225.256 174.149 225.666 174.992 225.402 175.763C222.835 183.227 220.972 184.158 219.889 184.088C219.643 184.075 219.435 184.009 219.271 183.953Z" fill="#D47E3A"/>
<path d="M218.453 200.432C216.807 200.039 215.229 197.182 213.763 191.934C213.543 191.148 214.002 190.332 214.789 190.11C215.58 189.892 216.393 190.351 216.613 191.136C217.279 193.523 218.224 195.935 218.89 197.053C219.525 195.909 220.415 193.457 221.033 191.039C221.235 190.247 222.043 189.768 222.832 189.974C223.625 190.174 224.102 190.981 223.9 191.771C221.946 199.42 220.166 200.496 219.079 200.517C218.833 200.522 218.622 200.472 218.453 200.432Z" fill="#D47E3A"/>
<path d="M356.644 174.21C356.363 174.21 356.09 174.075 355.922 173.824C352.274 168.338 340.566 172.342 340.449 172.382C339.997 172.547 339.504 172.303 339.347 171.851C339.189 171.399 339.426 170.906 339.878 170.749C340.409 170.562 352.972 166.258 357.363 172.863C357.628 173.261 357.519 173.799 357.121 174.062C356.974 174.163 356.808 174.21 356.644 174.21Z" fill="white"/>
<path d="M340.162 179.003C339.771 179.003 339.416 178.736 339.321 178.338C339.21 177.875 339.497 177.407 339.961 177.297C341.245 176.989 352.605 174.386 355.977 177.503C356.329 177.828 356.349 178.375 356.026 178.724C355.701 179.077 355.154 179.096 354.802 178.773C352.773 176.899 344.868 177.904 340.362 178.979C340.295 178.996 340.227 179.003 340.162 179.003Z" fill="white"/>
<path d="M10.5567 110.697C10.5567 110.697 5.54375 97.2708 8.0511 98.3436C10.5567 99.4182 18.6602 103.509 18.6602 103.509C18.6602 103.509 27.3866 97.4681 27.923 98.2813C28.4594 99.0964 27.2066 110.159 27.2066 110.159C27.2066 110.159 37.9472 115.888 35.978 117.141C34.0088 118.394 24.1628 119.468 24.1628 119.468C24.1628 119.468 20.4269 133.253 18.6584 131.865C15.9625 129.749 13.5988 121.258 13.5988 121.258C13.5988 121.258 2.30445 121.078 2.66264 119.288C3.02256 117.501 10.5567 110.697 10.5567 110.697Z" fill="#FEC601"/>
<path d="M397.623 83.6717C397.623 83.6717 392.61 70.2455 395.118 71.3183C397.623 72.3929 405.727 76.4836 405.727 76.4836C405.727 76.4836 414.453 70.4428 414.989 71.256C415.526 72.0711 414.273 83.1335 414.273 83.1335C414.273 83.1335 425.014 88.8629 423.044 90.1157C421.075 91.3685 411.229 92.4431 411.229 92.4431C411.229 92.4431 407.493 106.227 405.725 104.84C403.031 102.723 400.665 94.2323 400.665 94.2323C400.665 94.2323 389.371 94.0523 389.729 92.2631C390.089 90.4739 397.623 83.6717 397.623 83.6717Z" fill="#FEC601"/>
<path d="M120.941 409.71C120.673 409.71 120.403 409.705 120.134 409.694C119.657 409.675 119.285 409.272 119.304 408.795C119.323 408.317 119.717 407.941 120.202 407.964C121.297 408.009 122.396 407.955 123.498 407.801C123.969 407.736 124.408 408.066 124.472 408.54C124.538 409.013 124.208 409.449 123.734 409.514C122.803 409.644 121.861 409.71 120.941 409.71ZM126.983 408.763C126.615 408.763 126.272 408.525 126.156 408.154C126.014 407.697 126.269 407.213 126.725 407.071C127.758 406.749 128.802 406.339 129.825 405.851C130.254 405.644 130.771 405.827 130.977 406.258C131.183 406.69 131.001 407.206 130.569 407.412C129.472 407.936 128.352 408.378 127.239 408.724C127.156 408.751 127.068 408.763 126.983 408.763ZM110.159 407.125C110.05 407.125 109.937 407.104 109.83 407.061C108.754 406.618 107.674 406.125 106.622 405.593C106.194 405.379 106.023 404.858 106.239 404.43C106.456 404.005 106.975 403.837 107.4 404.048C108.413 404.559 109.451 405.033 110.487 405.457C110.929 405.638 111.14 406.144 110.958 406.585C110.821 406.921 110.499 407.125 110.159 407.125ZM117.078 409.174C116.969 409.187 116.857 409.18 116.744 409.149C115.623 408.841 114.492 408.481 113.382 408.083C112.932 407.922 112.699 407.426 112.861 406.976C113.024 406.528 113.521 406.298 113.969 406.457C115.037 406.841 116.123 407.185 117.203 407.481C117.663 407.609 117.935 408.085 117.809 408.544C117.714 408.893 117.418 409.132 117.078 409.174ZM166.256 406.029C165.258 406.028 164.254 405.941 163.271 405.773C162.801 405.692 162.484 405.244 162.565 404.773C162.647 404.304 163.085 403.989 163.566 404.067C164.64 404.252 165.725 404.327 166.834 404.29C167.274 404.263 167.712 404.649 167.727 405.126C167.743 405.604 167.369 406.003 166.891 406.021C166.679 406.026 166.468 406.029 166.256 406.029ZM133.221 405.817C132.936 405.817 132.656 405.675 132.491 405.415C132.235 405.014 132.353 404.477 132.756 404.221C133.68 403.633 134.602 402.974 135.499 402.261C135.872 401.961 136.416 402.025 136.715 402.399C137.013 402.774 136.95 403.318 136.575 403.615C135.632 404.365 134.661 405.059 133.685 405.68C133.541 405.772 133.381 405.817 133.221 405.817ZM170.285 405.543C169.894 405.543 169.539 405.277 169.444 404.88C169.333 404.415 169.619 403.948 170.082 403.835C170.383 403.763 170.684 403.681 170.987 403.59C171.757 403.358 172.51 403.089 173.23 402.79C173.669 402.612 174.178 402.818 174.36 403.257C174.543 403.699 174.336 404.206 173.893 404.389C173.121 404.711 172.309 405 171.484 405.246C171.152 405.348 170.818 405.438 170.485 405.517C170.42 405.534 170.351 405.543 170.285 405.543ZM79.1083 405.294C78.892 405.294 78.6723 405.291 78.4525 405.284L78.0078 405.265C77.5302 405.242 77.1616 404.837 77.1841 404.361C77.2066 403.885 77.6496 403.508 78.0891 403.538L78.5113 403.553C79.463 403.588 80.4303 403.539 81.3924 403.42C81.8683 403.349 82.2992 403.697 82.358 404.171C82.4168 404.645 82.0811 405.078 81.607 405.138C80.7747 405.242 79.9337 405.294 79.1083 405.294ZM74.6231 404.865C74.5695 404.865 74.5158 404.86 74.4622 404.849C73.2769 404.624 72.1123 404.309 70.9997 403.911C70.5498 403.75 70.3144 403.256 70.4771 402.804C70.638 402.352 71.1346 402.124 71.5828 402.281C72.6107 402.65 73.687 402.941 74.7841 403.148C75.253 403.238 75.5627 403.69 75.4728 404.159C75.3932 404.576 75.0315 404.865 74.6231 404.865ZM160.091 404.863C159.989 404.863 159.883 404.844 159.783 404.806C158.693 404.391 157.603 403.861 156.544 403.231C156.134 402.987 155.999 402.456 156.243 402.044C156.487 401.634 157.018 401.501 157.428 401.743C158.402 402.321 159.402 402.807 160.401 403.19C160.847 403.359 161.07 403.859 160.901 404.306C160.768 404.652 160.439 404.863 160.091 404.863ZM84.8792 404.41C84.5106 404.41 84.168 404.171 84.0521 403.799C83.9102 403.342 84.1663 402.858 84.6231 402.717C85.6596 402.396 86.6961 401.98 87.7032 401.48C88.1306 401.269 88.6515 401.44 88.8626 401.873C89.0754 402.3 88.9006 402.82 88.4715 403.032C87.3814 403.574 86.2583 404.022 85.1336 404.37C85.0505 404.398 84.964 404.41 84.8792 404.41ZM103.979 404.012C103.827 404.012 103.673 403.972 103.533 403.887C102.529 403.281 101.538 402.629 100.586 401.947C100.197 401.671 100.108 401.129 100.385 400.741C100.664 400.35 101.202 400.264 101.593 400.542C102.509 401.198 103.464 401.825 104.428 402.408C104.836 402.655 104.969 403.186 104.722 403.596C104.559 403.863 104.274 404.012 103.979 404.012ZM176.639 402.889C176.348 402.889 176.063 402.742 175.9 402.475C175.649 402.068 175.779 401.536 176.185 401.285C177.109 400.721 178.014 400.065 178.88 399.338C179.246 399.028 179.79 399.08 180.1 399.443C180.408 399.81 180.359 400.355 179.994 400.663C179.063 401.446 178.087 402.152 177.09 402.762C176.949 402.849 176.793 402.889 176.639 402.889ZM68.1462 402.536C68.0026 402.536 67.859 402.499 67.7258 402.425C66.6858 401.847 65.6822 401.172 64.7391 400.425C64.3653 400.127 64.303 399.584 64.5989 399.208C64.8966 398.834 65.4416 398.77 65.8154 399.07C66.6841 399.76 67.6116 400.381 68.5667 400.914C68.9838 401.146 69.1343 401.672 68.9024 402.091C68.7432 402.377 68.4491 402.536 68.1462 402.536ZM138.643 401.525C138.416 401.525 138.188 401.435 138.018 401.259C137.688 400.914 137.7 400.366 138.046 400.035C138.847 399.269 139.638 398.445 140.396 397.59C140.712 397.232 141.259 397.199 141.617 397.518C141.975 397.834 142.008 398.381 141.69 398.739C140.901 399.629 140.079 400.485 139.241 401.286C139.074 401.446 138.859 401.525 138.643 401.525ZM91.0706 401.369C90.7954 401.369 90.5255 401.24 90.3559 400.994C90.086 400.599 90.1846 400.061 90.5791 399.791C91.4841 399.17 92.3701 398.471 93.2128 397.72C93.5675 397.403 94.1143 397.433 94.4345 397.789C94.7529 398.146 94.7217 398.691 94.3652 399.011C93.4689 399.812 92.5258 400.554 91.5603 401.217C91.4097 401.319 91.2401 401.369 91.0706 401.369ZM154.151 401.369C153.96 401.369 153.766 401.307 153.605 401.177C152.702 400.444 151.821 399.629 150.986 398.755C150.655 398.409 150.667 397.86 151.013 397.531C151.358 397.201 151.906 397.213 152.237 397.559C153.024 398.383 153.851 399.148 154.696 399.833C155.066 400.136 155.123 400.679 154.822 401.051C154.652 401.259 154.403 401.369 154.151 401.369ZM98.3625 399.982C98.1635 399.982 97.9662 399.914 97.8018 399.776C96.8916 399.002 96.0178 398.191 95.2097 397.364C94.8757 397.023 94.8809 396.474 95.2218 396.14C95.2685 396.097 95.317 396.057 95.3706 396.024C95.3377 395.784 95.4069 395.533 95.58 395.336C96.3171 394.501 97.0162 393.61 97.6565 392.691C97.9299 392.299 98.4663 392.203 98.8608 392.477C99.2536 392.75 99.3488 393.29 99.0754 393.681C98.3971 394.655 97.6582 395.595 96.8761 396.481C96.8587 396.5 96.8414 396.516 96.8241 396.533C97.4886 397.19 98.1929 397.836 98.9214 398.455C99.2848 398.765 99.3298 399.31 99.02 399.675C98.8504 399.878 98.6082 399.982 98.3625 399.982ZM181.923 398.468C181.714 398.468 181.505 398.391 181.339 398.239C180.987 397.916 180.963 397.369 181.287 397.017C181.987 396.256 182.695 395.405 183.453 394.418C183.742 394.041 184.287 393.97 184.666 394.259C185.045 394.55 185.116 395.093 184.825 395.472C184.036 396.5 183.296 397.388 182.56 398.185C182.391 398.372 182.157 398.468 181.923 398.468ZM62.7405 398.265C62.5086 398.265 62.2767 398.172 62.1054 397.988C61.3129 397.133 60.555 396.199 59.8576 395.211C59.5808 394.82 59.6742 394.28 60.0653 394.005C60.4546 393.728 60.9962 393.821 61.2714 394.211C61.9255 395.137 62.6349 396.012 63.3755 396.812C63.7009 397.161 63.6801 397.71 63.3305 398.033C63.1627 398.189 62.9516 398.265 62.7405 398.265ZM149.369 396.386C149.108 396.386 148.85 396.268 148.679 396.043C147.961 395.098 147.293 394.107 146.689 393.098C146.443 392.688 146.578 392.157 146.988 391.911C147.397 391.662 147.928 391.8 148.175 392.209C148.746 393.166 149.38 394.103 150.06 394.998C150.349 395.379 150.274 395.92 149.894 396.209C149.736 396.327 149.551 396.386 149.369 396.386ZM143.23 396.346C143.05 396.346 142.867 396.289 142.711 396.171C142.328 395.884 142.252 395.342 142.54 394.96C143.223 394.053 143.874 393.114 144.471 392.169C144.727 391.764 145.26 391.646 145.665 391.901C146.068 392.157 146.189 392.691 145.933 393.095C145.312 394.078 144.635 395.055 143.922 396.002C143.751 396.228 143.491 396.346 143.23 396.346ZM93.5399 395.028C93.2838 395.028 93.0294 394.915 92.8581 394.699C92.0846 393.716 91.4045 392.723 90.8335 391.748C90.593 391.335 90.7314 390.805 91.1432 390.563C91.5534 390.323 92.0846 390.459 92.3268 390.873C92.8581 391.78 93.4931 392.709 94.2182 393.628C94.5123 394.003 94.4483 394.546 94.0728 394.842C93.9153 394.967 93.7267 395.028 93.5399 395.028ZM186.182 393.015C186.009 393.015 185.834 392.963 185.682 392.854C185.293 392.579 185.201 392.037 185.478 391.65L185.684 391.361C186.307 390.48 186.914 389.627 187.523 388.822C187.812 388.442 188.352 388.365 188.736 388.654C189.117 388.943 189.191 389.485 188.902 389.866C188.302 390.657 187.706 391.496 187.094 392.359L186.888 392.648C186.718 392.889 186.454 393.015 186.182 393.015ZM58.7415 392.634C58.4352 392.634 58.1376 392.47 57.9802 392.181C57.4264 391.162 56.9108 390.084 56.4505 388.975C56.2671 388.533 56.4747 388.026 56.9177 387.843C57.3555 387.665 57.8642 387.869 58.0476 388.31C58.4854 389.364 58.9751 390.388 59.5012 391.357C59.7296 391.776 59.5738 392.302 59.1534 392.531C59.0236 392.6 58.8817 392.634 58.7415 392.634ZM100.164 391.096C100.027 391.096 99.8904 391.063 99.7624 390.996C99.3384 390.772 99.1775 390.25 99.399 389.826C99.9406 388.8 100.389 387.774 100.735 386.777C100.891 386.327 101.384 386.087 101.835 386.242C102.287 386.4 102.526 386.893 102.368 387.345C101.995 388.424 101.508 389.53 100.929 390.632C100.775 390.928 100.475 391.096 100.164 391.096ZM146.923 390.492C146.789 390.492 146.654 390.461 146.528 390.397C146.461 390.362 146.402 390.321 146.348 390.274C146.298 390.314 146.241 390.345 146.182 390.373C145.746 390.568 145.234 390.371 145.04 389.933C144.524 388.774 144.114 387.637 143.822 386.554C143.697 386.092 143.969 385.618 144.431 385.493C144.891 385.374 145.369 385.64 145.492 386.102C145.72 386.945 146.028 387.827 146.405 388.732C146.838 387.85 147.212 386.988 147.516 386.164C147.682 385.716 148.182 385.484 148.629 385.652C149.077 385.818 149.307 386.315 149.141 386.763C148.753 387.81 148.267 388.907 147.694 390.027C147.54 390.321 147.236 390.492 146.923 390.492ZM90.1171 389.046C89.7572 389.046 89.4215 388.819 89.2986 388.461C88.8608 387.178 88.6376 385.95 88.6376 384.809C88.6376 384.332 89.0252 383.936 89.5028 383.936C89.9804 383.936 90.368 384.316 90.368 384.794V384.809C90.368 385.759 90.5584 386.799 90.9356 387.9C91.0896 388.353 90.8491 388.845 90.3974 388.999C90.3057 389.032 90.2106 389.046 90.1171 389.046ZM190.458 387.582C190.236 387.582 190.015 387.497 189.845 387.327C189.508 386.99 189.509 386.441 189.849 386.104C190.821 385.137 191.785 384.408 192.801 383.875C193.225 383.652 193.746 383.816 193.969 384.238C194.19 384.661 194.028 385.185 193.604 385.406C192.744 385.858 191.915 386.488 191.069 387.331C190.899 387.497 190.679 387.582 190.458 387.582ZM206.376 387.216C206.242 387.216 206.107 387.185 205.979 387.12C204.907 386.566 203.875 386.093 202.917 385.718C202.472 385.543 202.252 385.041 202.425 384.597C202.6 384.152 203.102 383.934 203.546 384.107C204.562 384.503 205.647 385.002 206.774 385.581C207.198 385.801 207.364 386.324 207.146 386.748C206.992 387.045 206.689 387.216 206.376 387.216ZM56.075 386.244C55.7047 386.244 55.3621 386.003 55.2478 385.631C54.6145 383.565 54.3965 382.193 54.3878 382.134C54.3134 381.664 54.637 381.221 55.1094 381.146C55.5801 381.079 56.0248 381.395 56.0992 381.868C56.1009 381.88 56.3103 383.186 56.9038 385.124C57.044 385.583 56.7879 386.066 56.3293 386.206C56.2446 386.232 56.1598 386.244 56.075 386.244ZM199.925 384.775C199.868 384.775 199.809 384.77 199.75 384.758C198.598 384.521 197.525 384.446 196.564 384.538C196.087 384.571 195.666 384.232 195.623 383.756C195.58 383.28 195.929 382.859 196.405 382.814C197.528 382.714 198.778 382.792 200.096 383.062C200.565 383.159 200.866 383.616 200.771 384.084C200.688 384.493 200.326 384.775 199.925 384.775ZM102.342 384.562C102.311 384.562 102.28 384.56 102.249 384.557C101.773 384.507 101.43 384.081 101.481 383.603C101.517 383.268 101.536 382.939 101.534 382.624C101.534 381.845 101.422 381.164 101.2 380.601C101.026 380.155 101.244 379.653 101.688 379.48C102.131 379.3 102.635 379.523 102.811 379.966C103.112 380.733 103.266 381.627 103.266 382.622C103.266 382.996 103.246 383.384 103.202 383.789C103.154 384.232 102.78 384.562 102.342 384.562ZM149.212 383.986C149.174 383.986 149.136 383.984 149.098 383.979C148.624 383.915 148.291 383.481 148.354 383.006C148.399 382.671 148.421 382.354 148.421 382.06C148.421 381.297 148.265 380.734 147.971 380.439C147.634 380.101 147.636 379.551 147.975 379.215C148.314 378.879 148.861 378.878 149.198 379.219C149.831 379.854 150.152 380.811 150.152 382.06C150.152 382.425 150.124 382.818 150.069 383.233C150.011 383.669 149.639 383.986 149.212 383.986ZM144.164 383.776C144.159 383.776 144.156 383.776 144.151 383.776C143.673 383.768 143.292 383.375 143.299 382.896C143.329 381.165 143.868 379.855 144.86 379.108C145.242 378.822 145.784 378.897 146.071 379.279C146.359 379.662 146.282 380.203 145.9 380.49C145.204 381.015 145.042 382.105 145.028 382.927C145.021 383.399 144.635 383.776 144.164 383.776ZM90.3732 382.356C90.2209 382.356 90.0669 382.316 89.9268 382.231C89.5184 381.984 89.3869 381.453 89.6343 381.042C90.2815 379.975 91.2315 379.087 92.4618 378.409C92.8823 378.18 93.4066 378.327 93.6385 378.746C93.8704 379.165 93.7181 379.691 93.3011 379.923C92.339 380.456 91.6035 381.132 91.1156 381.939C90.9512 382.207 90.6657 382.356 90.3732 382.356ZM99.5547 378.892C99.4734 378.892 99.3903 378.879 99.309 378.857C98.9162 378.743 98.5372 378.686 97.9731 378.682C97.4609 378.682 96.8985 378.744 96.3016 378.866C95.8326 378.961 95.3758 378.66 95.2824 378.189C95.1872 377.722 95.4883 377.265 95.9572 377.168C96.6771 377.023 97.4384 376.983 97.9939 376.95C98.6445 376.95 99.2536 377.033 99.8022 377.196C100.261 377.332 100.522 377.812 100.385 378.272C100.273 378.649 99.9285 378.892 99.5547 378.892Z" fill="#2A1D25"/>
<path d="M361.326 335.837C361.269 335.837 361.212 335.832 361.153 335.82C360.684 335.723 360.383 335.268 360.478 334.799C360.724 333.591 361.027 332.435 361.378 331.364C361.528 330.911 362.016 330.662 362.47 330.814C362.925 330.963 363.171 331.451 363.022 331.906C362.691 332.913 362.406 334.003 362.172 335.145C362.091 335.555 361.729 335.837 361.326 335.837ZM363.511 329.328C363.378 329.328 363.245 329.297 363.119 329.233C362.693 329.014 362.525 328.494 362.741 328.068C363.307 326.962 363.961 325.94 364.686 325.033C364.984 324.661 365.529 324.6 365.903 324.896C366.277 325.194 366.337 325.737 366.04 326.111C365.387 326.929 364.797 327.853 364.285 328.855C364.129 329.155 363.826 329.328 363.511 329.328ZM367.789 324.015C367.533 324.015 367.28 323.903 367.109 323.687C366.813 323.311 366.877 322.768 367.253 322.472C368.183 321.738 369.22 321.096 370.336 320.561C370.764 320.352 371.283 320.537 371.489 320.968C371.696 321.399 371.513 321.916 371.082 322.122C370.082 322.602 369.153 323.176 368.322 323.83C368.166 323.955 367.978 324.015 367.789 324.015ZM373.946 321.01C373.567 321.01 373.217 320.757 373.113 320.375C372.987 319.913 373.257 319.437 373.719 319.31C374.795 319.014 375.969 318.772 377.209 318.592C377.682 318.539 378.121 318.852 378.19 319.324C378.26 319.797 377.933 320.236 377.46 320.305C376.29 320.477 375.186 320.703 374.178 320.98C374.098 320.999 374.022 321.01 373.946 321.01ZM380.776 319.961C380.324 319.961 379.942 319.61 379.912 319.151C379.881 318.675 380.243 318.262 380.72 318.232C381.88 318.158 383.048 318.115 384.221 318.087C384.679 318.12 385.095 318.454 385.107 318.931C385.117 319.409 384.74 319.805 384.262 319.817C383.113 319.845 381.968 319.885 380.834 319.959C380.814 319.961 380.795 319.961 380.776 319.961ZM387.706 319.765C387.233 319.765 386.846 319.385 386.841 318.911C386.835 318.433 387.218 318.04 387.695 318.035C388.855 318.021 390.009 318.004 391.142 317.966C391.634 317.994 392.021 318.324 392.037 318.802C392.054 319.278 391.681 319.679 391.203 319.696C390.056 319.736 388.891 319.752 387.716 319.765C387.713 319.765 387.709 319.765 387.706 319.765ZM394.631 319.485C394.19 319.485 393.812 319.149 393.771 318.701C393.726 318.227 394.075 317.803 394.551 317.758C395.787 317.642 396.877 317.483 397.879 317.274C398.348 317.166 398.805 317.476 398.903 317.943C399.002 318.412 398.701 318.869 398.234 318.968C397.166 319.191 396.015 319.361 394.712 319.483C394.686 319.483 394.659 319.485 394.631 319.485ZM401.359 317.987C401.02 317.987 400.699 317.788 400.561 317.454C400.378 317.012 400.585 316.505 401.026 316.322C402.061 315.893 402.992 315.353 403.795 314.721C404.172 314.429 404.716 314.491 405.01 314.868C405.306 315.244 405.24 315.787 404.864 316.083C403.937 316.81 402.871 317.428 401.693 317.919C401.582 317.964 401.469 317.987 401.359 317.987ZM406.668 313.771C406.498 313.771 406.327 313.723 406.176 313.617C405.783 313.346 405.685 312.806 405.958 312.415C406.534 311.582 407.026 310.622 407.422 309.561C407.588 309.113 408.09 308.886 408.535 309.053C408.983 309.22 409.21 309.719 409.043 310.167C408.599 311.361 408.038 312.449 407.382 313.399C407.211 313.642 406.941 313.771 406.668 313.771ZM409.151 307.41C409.092 307.41 409.033 307.405 408.972 307.391C408.505 307.294 408.204 306.836 408.303 306.369C408.531 305.27 408.706 304.15 408.822 303.038C408.872 302.562 409.284 302.214 409.772 302.268C410.248 302.316 410.592 302.742 410.542 303.218C410.421 304.389 410.236 305.566 409.995 306.72C409.912 307.13 409.552 307.41 409.151 307.41ZM409.867 300.477C409.389 300.477 409.002 300.151 409.002 299.672C409.002 298.473 408.95 297.378 408.848 296.298C408.803 295.824 409.151 295.4 409.627 295.355C410.111 295.324 410.525 295.659 410.57 296.135C410.679 297.267 410.732 298.416 410.732 299.551C410.732 300.029 410.346 300.477 409.867 300.477ZM409.215 293.659C408.808 293.659 408.446 293.372 408.365 292.958C408.154 291.859 407.886 290.757 407.569 289.676C407.434 289.217 407.695 288.738 408.154 288.603C408.618 288.471 409.094 288.729 409.229 289.189C409.563 290.321 409.843 291.479 410.066 292.631C410.156 293.1 409.85 293.553 409.381 293.645C409.324 293.655 409.27 293.659 409.215 293.659ZM407.266 287.025C406.924 287.025 406.598 286.82 406.463 286.483C406.041 285.431 405.567 284.4 405.055 283.418C404.833 282.995 404.998 282.472 405.422 282.25C405.846 282.031 406.368 282.195 406.59 282.617C407.128 283.65 407.626 284.734 408.069 285.838C408.247 286.282 408.033 286.786 407.59 286.962C407.484 287.006 407.374 287.025 407.266 287.025ZM386.498 281.617C383.915 281.617 383.238 280.304 383.065 279.522C382.963 279.056 383.257 278.594 383.722 278.49C384.188 278.388 384.65 278.682 384.754 279.15C384.889 279.759 385.776 279.887 386.496 279.887L386.718 279.882C387.187 279.895 387.597 280.235 387.616 280.712C387.635 281.188 387.263 281.593 386.785 281.612L386.498 281.617ZM390.142 280.963C389.772 280.963 389.429 280.724 389.315 280.35C389.175 279.894 389.431 279.411 389.888 279.271C390.871 278.968 391.921 278.563 393.011 278.065C393.447 277.867 393.96 278.058 394.159 278.492C394.358 278.926 394.165 279.44 393.731 279.639C392.573 280.169 391.452 280.601 390.397 280.923C390.312 280.951 390.227 280.963 390.142 280.963ZM404.063 280.901C403.783 280.901 403.51 280.766 403.343 280.515C402.707 279.563 402.025 278.663 401.319 277.841C401.007 277.478 401.049 276.933 401.411 276.621C401.774 276.312 402.319 276.35 402.631 276.713C403.383 277.589 404.107 278.544 404.781 279.556C405.048 279.952 404.941 280.491 404.543 280.755C404.396 280.854 404.228 280.901 404.063 280.901ZM396.446 278.123C396.147 278.123 395.858 277.968 395.697 277.691C395.456 277.279 395.598 276.748 396.012 276.509C396.818 276.042 397.618 275.54 398.398 275.014C397.701 274.465 396.993 273.991 396.289 273.604C395.87 273.373 395.716 272.849 395.946 272.429C396.176 272.01 396.7 271.852 397.121 272.086C398.125 272.636 399.125 273.339 400.096 274.169C400.442 274.467 400.495 274.979 400.229 275.341C400.248 275.633 400.118 275.929 399.86 276.108C398.893 276.782 397.889 277.421 396.879 278.006C396.742 278.085 396.593 278.123 396.446 278.123ZM384.899 276.964C384.745 276.964 384.588 276.924 384.448 276.836C384.041 276.585 383.913 276.054 384.162 275.646C384.406 275.249 384.695 274.824 385.027 274.375C385.477 273.771 385.965 273.232 386.481 272.768C386.834 272.443 387.382 272.475 387.702 272.83C388.023 273.185 387.993 273.732 387.638 274.052C387.207 274.441 386.797 274.896 386.418 275.407C386.119 275.81 385.858 276.191 385.638 276.55C385.474 276.817 385.19 276.964 384.899 276.964ZM402.124 274.169C401.874 274.169 401.627 274.062 401.456 273.855C401.151 273.488 401.203 272.943 401.57 272.638C402.445 271.913 403.292 271.15 404.084 270.37C404.423 270.034 404.972 270.037 405.307 270.38C405.641 270.719 405.638 271.268 405.297 271.603C404.47 272.418 403.587 273.216 402.672 273.97C402.513 274.104 402.319 274.169 402.124 274.169ZM390.052 272.603C389.672 272.603 389.324 272.353 389.218 271.967C389.092 271.505 389.364 271.031 389.826 270.904C391.025 270.577 392.323 270.539 393.643 270.79C394.112 270.88 394.42 271.332 394.33 271.802C394.24 272.271 393.783 272.574 393.318 272.489C392.257 272.289 391.227 272.314 390.282 272.572C390.206 272.595 390.128 272.603 390.052 272.603ZM407.041 269.312C406.846 269.312 406.649 269.246 406.486 269.11C406.121 268.802 406.072 268.258 406.379 267.892C407.111 267.018 407.794 266.113 408.407 265.199C408.673 264.803 409.211 264.697 409.607 264.964C410.004 265.23 410.109 265.768 409.843 266.165C409.194 267.127 408.474 268.08 407.702 269.002C407.534 269.208 407.289 269.312 407.041 269.312ZM410.885 263.569C410.753 263.569 410.62 263.538 410.495 263.476C410.068 263.259 409.898 262.738 410.113 262.313L410.336 261.861C410.734 261.039 411.051 260.167 411.274 259.269C411.388 258.804 411.859 258.521 412.322 258.637C412.786 258.752 413.068 259.222 412.954 259.684C412.701 260.7 412.345 261.688 411.892 262.619L411.656 263.093C411.506 263.394 411.201 263.569 410.885 263.569ZM412.554 256.917C412.549 256.917 412.544 256.917 412.539 256.917C412.061 256.909 411.681 256.516 411.689 256.037L411.691 255.768C411.691 254.794 411.601 253.782 411.423 252.758C411.341 252.287 411.656 251.839 412.127 251.757C412.596 251.66 413.044 251.991 413.127 252.46C413.323 253.583 413.421 254.696 413.421 255.768L413.42 256.068C413.411 256.54 413.025 256.917 412.554 256.917ZM411.412 250.127C411.052 250.127 410.715 249.901 410.592 249.539C410.246 248.516 409.815 247.475 409.313 246.442C409.104 246.012 409.284 245.493 409.713 245.286C410.144 245.078 410.661 245.256 410.869 245.684C411.402 246.781 411.86 247.89 412.231 248.984C412.383 249.437 412.141 249.927 411.689 250.081C411.599 250.112 411.506 250.127 411.412 250.127ZM408.412 243.903C408.123 243.903 407.843 243.759 407.678 243.498C407.09 242.562 406.441 241.629 405.745 240.726C405.453 240.347 405.524 239.805 405.903 239.513C406.282 239.224 406.827 239.293 407.116 239.672C407.844 240.617 408.526 241.595 409.144 242.579C409.396 242.984 409.275 243.519 408.87 243.773C408.727 243.862 408.568 243.903 408.412 243.903ZM380.404 238.573C380.367 238.573 380.329 238.572 380.291 238.567C378.495 238.333 377.272 237.694 376.659 236.668C376.413 236.258 376.548 235.727 376.958 235.481C377.367 235.232 377.9 235.37 378.145 235.779C378.464 236.314 379.305 236.691 380.516 236.848C380.99 236.911 381.324 237.343 381.262 237.817C381.203 238.257 380.831 238.573 380.404 238.573ZM383.856 238.541C383.421 238.541 383.048 238.215 382.996 237.774C382.942 237.3 383.283 236.869 383.759 236.815C384.792 236.699 385.896 236.492 387.045 236.201C387.5 236.082 387.979 236.362 388.095 236.826C388.213 237.289 387.933 237.76 387.471 237.876C386.247 238.188 385.064 238.409 383.953 238.535C383.92 238.539 383.887 238.541 383.856 238.541ZM404.195 238.419C403.963 238.419 403.729 238.326 403.56 238.143C402.791 237.312 401.982 236.511 401.155 235.763C400.8 235.443 400.772 234.896 401.092 234.542C401.414 234.187 401.959 234.159 402.314 234.479C403.181 235.261 404.027 236.099 404.832 236.968C405.157 237.319 405.134 237.867 404.783 238.191C404.615 238.343 404.404 238.419 404.195 238.419ZM390.563 236.872C390.211 236.872 389.879 236.656 389.751 236.307C389.587 235.858 389.815 235.362 390.263 235.196C391.314 234.808 392.361 234.365 393.378 233.877C393.809 233.669 394.325 233.853 394.532 234.284C394.738 234.715 394.557 235.232 394.126 235.438C393.06 235.948 391.963 236.412 390.864 236.817C390.763 236.855 390.663 236.872 390.563 236.872ZM396.801 233.886C396.507 233.886 396.221 233.737 396.058 233.467C395.813 233.057 395.946 232.526 396.354 232.28C396.398 232.254 396.439 232.23 396.482 232.202C396.235 232.046 395.986 231.896 395.738 231.749C395.327 231.506 395.19 230.977 395.432 230.565C395.674 230.153 396.202 230.017 396.617 230.259C397.105 230.546 397.593 230.852 398.078 231.173C398.446 230.922 398.806 230.662 399.158 230.401C399.542 230.114 400.083 230.195 400.369 230.576C400.654 230.96 400.577 231.5 400.194 231.787C399.993 231.937 399.789 232.086 399.582 232.233C399.959 232.521 400.035 233.059 399.751 233.439C399.467 233.825 398.926 233.901 398.54 233.618C398.379 233.498 398.218 233.379 398.055 233.263C397.789 233.434 397.517 233.6 397.246 233.765C397.105 233.846 396.953 233.886 396.801 233.886ZM377.848 233.827C377.697 233.827 377.545 233.787 377.407 233.706C376.996 233.462 376.861 232.931 377.105 232.519C377.474 231.901 377.969 231.238 378.578 230.548C378.864 230.224 379.159 229.928 379.467 229.653C379.824 229.337 380.371 229.366 380.689 229.726C381.007 230.082 380.975 230.629 380.616 230.948C380.36 231.174 380.113 231.423 379.874 231.693C379.336 232.302 378.905 232.877 378.592 233.403C378.431 233.676 378.142 233.827 377.848 233.827ZM393.093 230.3C392.978 230.3 392.866 230.278 392.755 230.233C391.679 229.776 390.622 229.427 389.614 229.188C389.149 229.079 388.86 228.613 388.971 228.148C389.08 227.681 389.547 227.386 390.011 227.504C391.115 227.762 392.265 228.144 393.432 228.636C393.871 228.823 394.077 229.33 393.892 229.769C393.75 230.103 393.43 230.3 393.093 230.3ZM402.329 229.736C402.099 229.736 401.871 229.645 401.7 229.465C401.373 229.119 401.388 228.57 401.734 228.243C402.568 227.456 403.338 226.632 404.024 225.796C404.326 225.429 404.871 225.372 405.242 225.677C405.612 225.98 405.666 226.525 405.363 226.895C404.631 227.788 403.809 228.663 402.923 229.501C402.755 229.658 402.542 229.736 402.329 229.736ZM382.992 229.399C382.638 229.399 382.307 229.179 382.179 228.828C382.016 228.378 382.25 227.883 382.698 227.719C383.83 227.312 385.067 227.096 386.375 227.078C386.789 227.123 387.246 227.456 387.251 227.931C387.256 228.409 386.875 228.802 386.396 228.809C385.28 228.823 384.235 229.004 383.285 229.349C383.188 229.382 383.089 229.399 382.992 229.399ZM406.687 224.386C406.536 224.386 406.382 224.348 406.244 224.263C405.833 224.017 405.7 223.488 405.944 223.076C406.52 222.114 407.012 221.114 407.408 220.103C407.583 219.657 408.083 219.437 408.529 219.613C408.974 219.79 409.194 220.292 409.019 220.735C408.588 221.834 408.054 222.92 407.429 223.964C407.268 224.235 406.981 224.386 406.687 224.386ZM409.208 217.975C409.144 217.975 409.08 217.968 409.016 217.952C408.549 217.845 408.258 217.383 408.365 216.916C408.619 215.798 408.794 214.689 408.882 213.623C408.921 213.147 409.322 212.804 409.817 212.832C410.293 212.87 410.647 213.291 410.608 213.765C410.513 214.912 410.326 216.102 410.052 217.302C409.961 217.703 409.604 217.975 409.208 217.975ZM409.748 211.105C409.303 211.105 408.926 210.766 408.886 210.314C408.791 209.207 408.592 208.118 408.296 207.084C408.164 206.623 408.431 206.144 408.891 206.014C409.35 205.883 409.829 206.149 409.961 206.608C410.288 207.752 410.506 208.949 410.611 210.167C410.653 210.643 410.3 211.064 409.824 211.103C409.796 211.103 409.772 211.105 409.748 211.105ZM407.855 204.502C407.541 204.502 407.239 204.331 407.085 204.033C406.591 203.078 405.991 202.147 405.299 201.269C405.003 200.892 405.069 200.349 405.444 200.055C405.821 199.757 406.365 199.825 406.659 200.198C407.419 201.164 408.078 202.185 408.621 203.239C408.839 203.663 408.675 204.185 408.249 204.405C408.125 204.471 407.988 204.502 407.855 204.502ZM403.62 199.074C403.413 199.074 403.203 198.999 403.039 198.849C402.239 198.12 401.357 197.428 400.414 196.788C400.018 196.52 399.916 195.98 400.184 195.585C400.452 195.191 400.99 195.09 401.385 195.355C402.395 196.044 403.343 196.786 404.202 197.568C404.556 197.892 404.581 198.439 404.259 198.792C404.089 198.98 403.854 199.074 403.62 199.074ZM397.912 195.178C397.78 195.178 397.647 195.147 397.521 195.085C395.75 194.185 394.472 193.787 394.46 193.782C394.003 193.642 393.747 193.157 393.889 192.701C394.03 192.242 394.515 191.986 394.968 192.13C395.025 192.147 396.389 192.571 398.303 193.54C398.73 193.756 398.9 194.277 398.684 194.704C398.533 195.007 398.228 195.178 397.912 195.178Z" fill="#2A1D25"/>
</svg>