<svg width="477" height="409" viewBox="0 0 477 409" fill="none" xmlns="http://www.w3.org/2000/svg">
<path fill-rule="evenodd" clip-rule="evenodd" d="M85.2865 41.404C84.6835 41.404 84.0805 41.0595 82.53 34.6851C76.8447 33.4791 76.414 32.8761 76.2417 32.6177C76.0694 32.3593 75.9833 32.0147 76.0694 31.7563C76.1556 31.4118 76.414 30.5504 82.9607 28.0523C85.2865 22.1947 86.0617 22.1086 86.4924 22.0225C86.837 21.9363 87.2677 22.1947 87.44 22.4532C87.8707 22.97 88.2152 24.4344 88.8182 26.7602C88.9905 27.5354 89.1628 28.3968 89.2489 28.7414C89.5935 28.9137 90.3687 29.1721 90.9717 29.4305C94.2451 30.6365 95.1065 31.0672 95.2788 31.9286C95.3649 32.187 95.1926 32.6177 94.9342 32.79C94.2451 33.393 91.0579 34.599 89.3351 35.1158C86.4924 41.3179 85.9756 41.404 85.4587 41.404C85.4013 41.404 85.3439 41.404 85.2865 41.404ZM78.3952 31.9286C79.6012 32.2732 81.5824 32.7039 83.3914 33.1346C83.7359 33.1346 83.9944 33.393 84.0805 33.7375C84.5112 35.6326 85.1142 37.7861 85.5449 38.9921C86.1479 37.8723 87.0954 35.8911 87.9568 34.0821C88.043 33.9098 88.2152 33.7375 88.4737 33.6514C90.0242 33.1346 91.747 32.4454 92.7807 32.0147C92.0916 31.6702 91.0579 31.3256 90.3687 31.0672C88.4737 30.3781 88.1291 30.2058 87.8707 29.8612C87.6984 29.6028 87.5261 29.086 87.0954 27.1909C86.9231 26.4156 86.6647 25.2958 86.4063 24.5205C85.8894 25.5542 85.028 27.3632 84.4251 28.9998C84.3389 29.2582 84.1666 29.4305 83.9082 29.5167C81.927 30.2919 79.6012 31.2395 78.3952 31.9286Z" fill="#261D2A"/>
<path fill-rule="evenodd" clip-rule="evenodd" d="M289.698 399.173C289.095 399.173 288.492 398.743 286.941 392.368C281.342 391.248 280.826 390.559 280.653 390.387C280.481 390.129 280.481 389.698 280.481 389.44C280.653 389.095 280.912 388.32 287.372 385.735C289.698 379.878 290.559 379.792 290.99 379.706C291.249 379.706 291.679 379.878 291.938 380.136C292.282 380.739 292.627 382.204 293.23 384.529C293.402 385.219 293.574 386.08 293.66 386.511C294.005 386.683 294.78 386.941 295.383 387.2C298.743 388.406 299.604 388.837 299.69 389.612C299.776 389.956 299.604 390.387 299.346 390.559C298.743 391.162 295.469 392.282 293.747 392.885C290.99 399.087 290.387 399.087 289.87 399.087C289.813 399.145 289.755 399.173 289.698 399.173ZM282.893 389.612C284.013 389.956 286.08 390.473 287.889 390.818C288.147 390.904 288.406 391.162 288.492 391.507C288.923 393.316 289.526 395.469 289.956 396.675C290.559 395.555 291.593 393.574 292.368 391.851C292.454 391.593 292.627 391.421 292.885 391.335C294.436 390.818 296.159 390.215 297.278 389.784C296.503 389.44 295.469 389.009 294.78 388.75C292.885 388.061 292.541 387.889 292.282 387.631C292.11 387.286 291.938 386.855 291.507 384.874C291.335 384.185 291.076 383.065 290.904 382.204C290.301 383.324 289.44 385.132 288.837 386.769C288.75 386.941 288.578 387.114 288.32 387.2C286.339 387.975 284.099 389.009 282.893 389.612Z" fill="#261D2A"/>
<path d="M33.4672 54.0707C33.4672 54.0707 31.9432 41.1182 44.3229 45.4154C56.6164 49.7991 52.3789 61.5523 47.7411 57.501C43.1035 53.3633 52.1621 39.7018 61.5272 45.9042C70.9783 52.1928 68.6332 64.0291 61.9216 64.8179C55.1241 65.6069 66.1629 51.0783 74.4902 60.219C82.9035 69.3595 64.1188 85.715 56.6461 79.5957C49.1735 73.3901 55.2138 63.6203 56.923 69.663C58.6322 75.6194 53.7176 81.5008 40.2983 81.0919C26.7929 80.6832 33.2839 60.0303 37.8317 66.1546C42.4657 72.1924 34.5386 78.9426 25.1754 71.7038C15.8122 64.4649 26.851 49.9364 33.4672 54.0707Z" fill="white"/>
<path fill-rule="evenodd" clip-rule="evenodd" d="M41.5012 81.9529C41.0997 81.9535 40.6696 81.9543 40.2108 81.9551C35.8238 81.7898 32.7312 79.5497 31.7064 75.5787C29.5562 75.3232 27.1495 74.291 24.6583 72.3952C19.2466 68.259 20.0329 61.8667 23.1383 57.3705C25.3811 54.0848 29.1708 51.6601 32.5238 52.6907C32.5276 50.7044 32.9646 47.0763 35.4631 45.0857C37.5308 43.4412 40.628 43.2632 44.5825 44.6383C46.3879 45.2397 47.8487 46.1009 49.0515 46.9624C52.2406 43.6751 57.1471 42.0258 62.0445 45.2129C66.7699 48.4003 68.4822 52.7156 68.6474 56.3426C70.9699 56.425 73.2905 57.5438 75.1791 59.6133C78.9564 63.7523 77.9982 70.0585 72.7402 75.5948C67.9994 80.6121 60.595 83.9066 56.0427 80.2007C55.4701 79.7411 54.9549 79.2238 54.4972 78.6488C51.5682 80.8129 47.1788 81.9431 41.5012 81.9529ZM33.5127 75.6619C34.2827 77.9061 36.0852 80.0621 40.3001 80.2276C46.1495 80.3904 50.7108 79.3462 53.4675 77.2687C51.9241 74.5941 51.8438 71.5715 52.6221 69.411C53.2272 67.8554 54.3473 66.9035 55.4656 66.9016C56.0678 66.9006 57.1855 67.2441 57.7836 69.4022C58.5528 72.0782 58.0317 74.67 56.4792 76.8317C56.2494 77.0624 56.0195 77.2931 55.7897 77.5238C56.1903 77.9838 56.6482 78.4436 57.1635 78.9033C60.771 81.8335 67.2284 78.8861 71.5382 74.3878C75.1584 70.5816 77.6637 64.9636 73.8865 60.8246C72.0837 58.8413 70.1926 58.0673 68.5581 58.0701C68.4999 58.5308 68.4417 58.9627 68.3836 59.3658C67.5167 62.9082 65.1034 65.3306 62.0058 65.6813C59.8547 65.9441 59.2547 64.8224 59.0836 64.3045C58.4849 62.4919 60.4691 59.4657 63.3973 57.7334C64.5456 57.0406 65.7221 56.6067 66.9267 56.4319C66.8468 53.2366 65.3055 49.4392 61.0955 46.6827C56.8856 43.8399 52.9254 45.4876 50.3397 48.083C52.744 50.4107 53.1692 53.0009 53.2533 54.0371C53.3352 56.1961 52.4714 58.0976 51.0075 58.8774C49.802 59.484 48.4261 59.2272 47.1378 58.1067C44.5615 55.7793 45.5161 51.3731 47.9307 48.2598C46.8998 47.4843 45.6108 46.7956 43.9773 46.2802C40.6246 45.0768 38.1297 45.1675 36.4927 46.4657C33.7357 48.7159 34.3281 53.8968 34.3279 53.9831C34.3273 54.3286 34.1547 54.588 33.8963 54.7611C33.6378 55.0207 33.2937 55.0213 32.9501 54.7628C30.2865 53.04 26.6692 55.2917 24.5129 58.3181C21.925 62.1226 21.2265 67.5647 25.6933 71.0116C27.7549 72.5627 29.7319 73.4229 31.4517 73.7654C31.0291 69.7934 32.5857 65.4725 34.9105 64.3458C35.5132 64.0857 37.0625 63.6512 38.5211 65.6351C40.6665 68.3951 40.5746 71.5044 38.4199 73.6672C37.2993 74.8782 35.5775 75.572 33.5127 75.6619ZM55.3764 68.629C55.2043 68.6293 54.6875 68.9757 54.2554 70.0128C53.7368 71.3091 53.5602 73.7276 54.8462 76.0573C54.9037 75.942 54.99 75.8267 55.1049 75.7114C56.3984 74.0682 56.7462 72.0813 56.1481 69.9232C55.8919 68.9736 55.5484 68.6287 55.3764 68.629ZM36.0259 65.8985C35.8539 65.8988 35.7678 65.8989 35.6816 65.9854C34.2181 66.5925 32.6628 70.2224 33.1717 74.0216C34.8924 73.9323 36.2698 73.4117 37.2179 72.4601C38.7691 70.9893 38.7733 68.7438 37.1428 66.6739C36.714 65.9837 36.284 65.898 36.0259 65.8985ZM66.8375 58.1594C65.8047 58.4202 64.9436 58.8535 64.2547 59.2002C61.671 60.7591 60.4623 63.093 60.7191 63.7835C60.8048 63.9561 61.3207 64.0416 61.8371 63.9543C64.1602 63.6913 65.9703 61.7881 66.6639 58.9369C66.7217 58.7065 66.7796 58.4473 66.8375 58.1594ZM49.2189 49.3804C47.1489 52.2339 46.7128 55.4301 48.3446 56.8092C48.774 57.2403 49.5474 57.6708 50.2362 57.3241C51.0973 56.8908 51.6159 55.5945 51.5326 54.1264C51.4481 53.3493 51.1939 51.277 49.2189 49.3804Z" fill="#261D2A"/>
<path d="M398.315 363.96C398.315 363.96 396.877 351.008 409.171 355.305C421.551 359.602 417.313 371.442 412.589 367.304C407.952 363.166 417.01 349.591 426.461 355.794C435.827 361.996 433.567 373.832 426.77 374.707C420.058 375.496 431.097 360.881 439.424 370.108C447.752 379.249 428.967 395.604 421.494 389.399C414.022 383.279 420.148 373.51 421.857 379.466C423.566 385.509 418.566 391.304 405.146 390.981C391.727 390.572 398.132 369.92 402.766 375.958C407.4 382.082 399.473 388.832 390.11 381.593C380.746 374.354 391.785 359.739 398.315 363.96Z" fill="white"/>
<path fill-rule="evenodd" clip-rule="evenodd" d="M406.435 391.842C406.034 391.843 405.604 391.843 405.145 391.844C400.758 391.679 397.665 389.353 396.64 385.468C394.49 385.126 392.083 384.18 389.592 382.284C384.181 378.062 384.881 371.67 388.072 367.173C390.315 363.888 394.105 361.549 397.458 362.58C397.462 360.507 397.813 356.966 400.311 354.975C402.465 353.244 405.476 353.066 409.431 354.441C411.322 355.129 412.783 355.904 413.9 356.766C417.089 353.478 422.081 351.829 426.892 355.102C431.704 358.203 433.416 362.519 433.581 366.146C435.904 366.314 438.138 367.433 440.027 369.503C443.804 373.642 442.932 379.948 437.674 385.484C432.933 390.501 425.443 393.796 420.977 390.09C420.404 389.573 419.889 389.055 419.431 388.538C416.502 390.702 412.027 391.832 406.435 391.842ZM398.447 385.551C399.217 387.709 400.933 389.951 405.148 390.117C410.997 390.28 415.645 389.235 418.401 387.158C416.772 384.397 416.692 381.461 417.556 379.3C418.161 377.658 419.195 376.707 420.314 376.791C420.916 376.79 422.033 377.134 422.631 379.292C423.401 381.968 422.966 384.559 421.327 386.635C421.155 386.923 420.953 387.182 420.724 387.413C421.067 387.873 421.525 388.333 422.097 388.793C425.619 391.723 432.162 388.775 436.386 384.277C440.092 380.384 442.598 374.853 438.82 370.628C436.932 368.644 435.126 367.957 433.492 367.873C433.434 368.334 433.347 368.794 433.231 369.255C432.365 372.711 429.951 375.134 426.854 375.571C424.703 375.747 424.103 374.625 423.931 374.194C423.333 372.381 425.317 369.355 428.331 367.623C429.479 366.93 430.656 366.467 431.861 366.235C431.695 363.126 430.153 359.329 425.944 356.486C421.734 353.729 417.773 355.377 415.274 357.886C417.678 360.3 418.103 362.89 418.101 363.84C418.269 366.085 417.405 367.987 415.855 368.767C414.65 369.287 413.274 369.03 412.072 367.996C409.409 365.669 410.45 361.262 412.779 358.063C411.834 357.374 410.545 356.685 408.911 356.083C405.559 354.966 402.978 354.971 401.427 356.269C398.584 358.519 399.176 363.786 399.176 363.786C399.261 364.132 399.089 364.477 398.83 364.65C398.486 364.824 398.142 364.824 397.884 364.652C395.134 362.93 391.603 365.095 389.447 368.207C386.773 372.012 386.16 377.454 390.627 380.901C392.689 382.452 394.58 383.312 396.3 383.655C395.963 379.683 397.52 375.275 399.845 374.235C400.447 373.975 401.996 373.541 403.455 375.438C405.515 378.198 405.509 381.394 403.354 383.556C402.147 384.681 400.511 385.461 398.447 385.551ZM420.224 378.518C420.052 378.519 419.535 378.865 419.103 379.902C418.671 381.198 418.408 383.531 419.694 385.947C419.809 385.831 419.895 385.716 419.953 385.601C421.246 383.958 421.594 381.884 420.996 379.726C420.74 378.863 420.396 378.518 420.224 378.518ZM400.96 375.701C400.788 375.702 400.616 375.788 400.53 375.788C399.152 376.482 397.597 380.112 398.02 383.825C399.826 383.822 401.204 383.215 402.066 382.35C403.617 380.792 403.621 378.547 402.077 376.477C401.562 375.873 401.218 375.701 400.96 375.701ZM431.685 368.049C430.739 368.223 429.878 368.656 429.189 369.089C426.605 370.648 425.396 372.896 425.567 373.587C425.653 373.846 426.255 373.844 426.685 373.844C429.008 373.581 430.904 371.591 431.598 368.826C431.656 368.596 431.685 368.337 431.685 368.049ZM414.153 359.183C411.997 362.123 411.647 365.233 413.193 366.699C413.708 367.13 414.395 367.56 415.084 367.214C415.945 366.78 416.464 365.398 416.381 363.93C416.382 363.152 416.042 361.166 414.153 359.183Z" fill="#261D2A"/>
<path d="M8.65324 370.367C8.53854 370.367 8.39528 370.31 8.22345 370.195C8.13742 370.195 -0.194791 363.733 0.0660595 362.265C0.239742 361.401 0.326583 360.969 12.0237 362.158C12.4537 362.243 12.797 362.675 12.7962 363.106C12.7092 363.625 12.2784 363.971 11.8484 363.885C8.40806 363.546 4.6236 363.207 2.64502 363.21C4.53415 365.02 8.48495 368.381 9.1725 368.725C9.51611 368.984 9.68718 369.502 9.42829 369.934C9.25575 370.193 8.99735 370.366 8.65324 370.367Z" fill="#261D2A"/>
<path d="M22.0324 369.151C22.0324 369.151 19.8221 355.867 13.1099 359.071C3.81599 363.488 1.96243 388.859 20.6989 392.279C39.4353 395.784 44.4517 380.071 44.4517 380.071L34.4806 378.88C34.4806 378.88 40.7703 371.794 39.6623 366.705C38.4684 361.53 33.4719 366.716 33.4719 366.716C33.4719 366.716 38.5686 354.023 33.2375 354.291C27.9066 354.472 22.0324 369.151 22.0324 369.151Z" fill="#FF729A"/>
<path d="M13.4851 368.471C13.0553 368.472 12.6259 368.3 12.3687 367.956C11.5113 366.836 12.2908 363.73 12.8097 362.004C12.8965 361.572 13.4127 361.313 13.8421 361.484C14.2717 361.57 14.5286 362.087 14.4418 362.518C13.923 364.158 13.5758 365.97 13.6604 366.66C14.3487 366.314 15.2967 364.932 15.9007 363.723C16.0734 363.292 16.5894 363.118 17.0188 363.29C17.4482 363.462 17.7051 363.979 17.4464 364.411C17.0149 365.36 15.4621 368.382 13.4851 368.471Z" fill="#261D2A"/>
<path d="M31.3031 379.154C31.0738 379.154 30.8733 379.069 30.7017 378.896C30.3583 378.638 30.3595 378.034 30.704 377.688C32.2545 376.132 34.5819 372.936 34.2413 371.211C34.1556 371.038 34.1556 371.038 34.1556 371.038C33.6401 370.867 31.832 372.25 30.4534 373.806C30.195 374.065 29.765 374.152 29.4214 373.98C29.0778 373.808 28.9065 373.463 28.9931 373.118C29.3416 370.701 29.3464 368.199 29.0901 367.337C28.0567 368.201 25.8143 371.915 24.0884 375.284C23.9157 375.715 23.3995 375.889 22.9699 375.717C22.5405 375.459 22.3696 374.941 22.6283 374.509C27.3748 365.096 28.9217 365.439 29.4374 365.524C30.6978 365.809 31.2103 367.621 30.9747 370.957C32.0942 370.006 33.5575 369.055 34.6746 369.398C35.0183 369.484 35.7055 369.828 35.8755 370.863C36.5572 374.054 32.3361 378.462 31.9054 378.894C31.7331 379.067 31.475 379.154 31.3031 379.154Z" fill="#261D2A"/>
<path d="M22.2579 388.892C20.193 388.895 17.7846 388.554 15.5499 387.348C11.7677 385.455 9.19343 381.831 7.82675 376.565C7.74153 376.133 8.00062 375.614 8.43098 375.527C8.94737 375.44 9.37708 375.698 9.54834 376.13C10.7439 380.878 13.0608 384.157 16.3271 385.792C21.7422 388.634 28.1998 386.118 28.2858 386.117C28.7164 385.944 29.2321 386.202 29.4034 386.634C29.5746 387.065 29.3155 387.584 28.885 387.758C28.7128 387.844 25.8716 388.886 22.2579 388.892Z" fill="#261D2A"/>
<path d="M469.333 154.731C469.162 154.731 468.99 154.674 468.818 154.559C468.389 154.214 468.39 153.697 468.648 153.351C469.079 152.746 471.668 148.168 472.876 145.836C470.983 146.616 467.626 148.175 464.528 149.733C464.097 149.907 463.582 149.735 463.411 149.304C463.153 148.873 463.326 148.355 463.757 148.181C474.257 142.986 474.514 143.33 475.029 144.106C475.8 145.399 470.022 154.384 470.022 154.384C469.85 154.643 469.591 154.73 469.333 154.731Z" fill="#261D2A"/>
<path d="M456.781 158.156C456.781 158.156 454.313 144.959 461.705 145.551C471.847 146.482 482.291 169.587 465.853 179.451C449.415 189.229 439.381 176.218 439.381 176.218L448.33 171.63C448.33 171.63 440 167.158 439.408 161.896C438.73 156.72 445.172 159.815 445.172 159.815C445.172 159.815 436.078 149.736 441.154 148.088C446.229 146.44 456.781 158.156 456.781 158.156Z" fill="#FF729A"/>
<path d="M463.822 154.723C462.103 154.726 460.043 152.832 459.356 152.143C459.099 151.798 459.014 151.28 459.359 150.935C459.703 150.589 460.219 150.588 460.562 150.933C461.592 151.88 462.966 152.827 463.654 152.998C463.483 152.222 462.626 150.67 461.597 149.292C461.34 148.947 461.427 148.429 461.771 148.084C462.116 147.824 462.717 147.91 462.975 148.254C464.09 149.719 465.804 152.304 465.372 153.685C465.199 154.117 464.94 154.462 464.51 154.549C464.281 154.665 464.052 154.723 463.822 154.723Z" fill="#261D2A"/>
<path d="M451.156 170.841C451.041 170.841 450.927 170.813 450.812 170.755C450.125 170.411 444.799 167.746 444.289 164.554C444.119 163.518 444.636 162.913 444.981 162.74C445.842 162.048 447.561 162.391 449.022 162.906C447.594 159.859 447.426 157.99 448.516 157.298C448.947 157.038 450.324 156.173 458.049 163.322C458.392 163.666 458.391 164.184 458.047 164.53C457.702 164.962 457.186 164.963 456.843 164.618C454.096 162.034 450.576 159.193 449.459 158.849C449.458 159.54 450.313 161.954 451.513 164.196C451.684 164.541 451.683 164.972 451.425 165.232C451.166 165.491 450.736 165.578 450.392 165.406C448.589 164.46 446.44 163.86 446.01 164.119C446.01 164.119 446.01 164.177 446.01 164.292C446.264 166.017 449.527 168.169 451.503 169.201C451.933 169.373 452.104 169.89 451.931 170.322C451.758 170.668 451.5 170.841 451.156 170.841Z" fill="#261D2A"/>
<path d="M456.766 178.006C456.709 178.006 456.652 178.006 456.594 178.006C456.164 178.007 455.821 177.576 455.822 177.145C455.823 176.627 456.254 176.281 456.684 176.28C456.769 176.28 463.646 176.355 467.781 171.861C470.279 169.096 471.318 165.298 470.897 160.381C470.812 159.95 471.157 159.518 471.673 159.431C472.189 159.43 472.532 159.775 472.617 160.206C473.123 165.64 471.911 169.87 469.068 172.981C464.589 177.82 457.712 178.004 456.766 178.006Z" fill="#261D2A"/>
<path fill-rule="evenodd" clip-rule="evenodd" d="M331.562 392.368C328.978 390.387 328.461 386.597 330.529 384.013C332.51 381.428 336.214 380.998 338.884 382.979C340.09 383.926 340.952 385.391 341.124 386.941C341.296 388.492 340.865 390.042 339.918 391.335C337.937 393.919 334.146 394.436 331.562 392.368ZM337.851 384.357C335.955 382.893 333.285 383.237 331.907 385.132C330.442 386.941 330.787 389.612 332.596 390.99V391.076C334.491 392.454 337.161 392.11 338.54 390.301C339.229 389.353 339.573 388.32 339.401 387.114C339.315 385.994 338.712 385.046 337.851 384.357Z" fill="#261D2A"/>
<path fill-rule="evenodd" clip-rule="evenodd" d="M72.4517 111.006C69.8675 108.938 69.4368 105.234 71.4181 102.65C73.3993 100.066 77.1895 99.5489 79.7737 101.53C81.0658 102.564 81.841 103.942 82.0133 105.493C82.2718 107.129 81.841 108.68 80.8074 109.972C78.8261 112.556 75.1221 112.987 72.4517 111.006ZM78.74 102.908C76.8449 101.53 74.1746 101.875 72.7963 103.684C71.3319 105.493 71.6765 108.163 73.5716 109.627C75.3805 111.092 78.0509 110.747 79.4291 108.852C80.2044 107.991 80.4628 106.871 80.2905 105.751C80.2044 104.631 79.6014 103.598 78.74 102.908Z" fill="#261D2A"/>
<path fill-rule="evenodd" clip-rule="evenodd" d="M397.847 23.3569C395.263 21.3756 394.832 17.5855 396.814 15.0012C398.795 12.417 402.585 11.9002 405.169 13.9676C406.461 14.9151 407.237 16.2933 407.409 17.93C407.667 19.4805 407.237 21.0311 406.203 22.3232C404.222 24.9074 400.518 25.3381 397.847 23.3569ZM404.136 15.3458C402.24 13.8814 399.57 14.226 398.192 16.0349C396.727 17.93 397.072 20.6004 398.967 21.9786C400.776 23.443 403.446 23.0984 404.825 21.2895C405.6 20.3419 405.858 19.2221 405.686 18.1023C405.6 16.9825 404.997 16.0349 404.136 15.3458Z" fill="#261D2A"/>
<path d="M336.386 17.8298H333.027L336.558 15.4178C336.903 15.1594 337.075 14.6426 336.817 14.2119C336.472 13.8673 335.956 13.695 335.611 14.0396L330.787 17.2268L330.959 11.6277C330.959 11.197 330.529 10.7663 330.098 10.7663C329.581 10.7663 329.237 11.197 329.237 11.6277L329.15 16.5377L326.222 13.3505C325.877 13.0059 325.36 13.0059 325.016 13.3505C324.671 13.695 324.585 14.2119 324.93 14.5564L327.944 17.8298L322.431 17.7436C321.915 17.7436 321.57 18.1743 321.57 18.605C321.57 19.1219 321.915 19.4664 322.431 19.4664L327.428 19.5526L323.465 22.2229C323.121 22.4814 323.034 22.9982 323.293 23.4289C323.465 23.6012 323.724 23.7735 323.982 23.7735C324.154 23.7735 324.327 23.716 324.499 23.6012L329.064 20.5001L328.892 26.0993C328.892 26.6161 329.323 26.9607 329.753 27.0468C330.27 27.0468 330.615 26.6161 330.615 26.1854L330.787 20.8447L333.888 24.2042C334.06 24.3765 334.233 24.5487 334.491 24.5487C334.721 24.5487 334.922 24.4626 335.094 24.2903C335.439 23.9458 335.439 23.4289 335.094 23.0843L331.907 19.5526L336.386 19.5526C336.817 19.5526 337.248 19.208 337.248 18.6912C337.248 18.2605 336.817 17.8298 336.386 17.8298Z" fill="#261D2A"/>
<path d="M15.0388 226.333H11.7655L15.2973 223.922C15.6418 223.663 15.728 223.146 15.4696 222.716C15.2111 222.285 14.6943 222.199 14.3497 222.457L9.52586 225.73L9.612 220.131C9.69814 219.701 9.26744 219.27 8.83674 219.27C8.3199 219.27 7.97534 219.614 7.8892 220.131L7.80305 225.041L4.96042 221.854C4.61586 221.51 4.01288 221.51 3.66831 221.854C3.32375 222.113 3.32375 222.716 3.66831 223.06L6.68323 226.247H1.17024C0.6534 226.247 0.308838 226.678 0.308838 227.109C0.308838 227.626 0.653399 227.97 1.0841 227.97H6.16639L2.20393 230.64C1.85937 230.899 1.68708 231.502 2.03165 231.846C2.20393 232.105 2.46235 232.277 2.72077 232.277C2.89305 232.277 3.03662 232.22 3.15147 232.105L7.71691 229.004L7.63077 234.603C7.63077 235.12 8.06148 235.464 8.49218 235.464C9.00902 235.464 9.35358 235.12 9.35358 234.603L9.43972 229.348L12.5408 232.708C12.7131 232.88 12.9715 232.966 13.2299 232.966C13.4596 232.966 13.6606 232.909 13.8329 232.794C14.1774 232.449 14.1774 231.933 13.8329 231.588L10.5595 228.056H15.0388C15.5557 228.056 15.9003 227.626 15.9003 227.195C15.9003 226.678 15.5557 226.333 15.0388 226.333Z" fill="#261D2A"/>
<path d="M454.7 337.252L451.427 337.166L454.958 334.841C455.303 334.582 455.389 333.979 455.131 333.635C454.872 333.204 454.355 333.118 453.925 333.376L449.187 336.649L449.273 331.05C449.273 330.534 448.929 330.189 448.498 330.189H448.412C447.981 330.189 447.55 330.534 447.55 331.05L447.464 335.96L444.535 332.773C444.277 332.429 443.674 332.429 443.329 332.687C442.985 333.032 442.985 333.548 443.329 333.893L446.344 337.166H440.745C440.314 337.166 439.884 337.511 439.884 338.028C439.884 338.458 440.314 338.889 440.745 338.889H445.827L441.865 341.559C441.52 341.818 441.348 342.335 441.693 342.765C441.779 343.024 442.123 343.11 442.382 343.11C442.554 343.11 442.698 343.081 442.813 343.024L447.378 339.923L447.292 345.522C447.292 345.953 447.636 346.383 448.153 346.383C448.67 346.383 449.015 346.039 449.015 345.522L449.101 340.267L452.202 343.627C452.374 343.799 452.633 343.885 452.891 343.885C453.063 343.885 453.236 343.799 453.408 343.627C453.839 343.368 453.839 342.765 453.494 342.421L450.221 338.889L454.7 338.975C455.217 338.975 455.561 338.545 455.561 338.114C455.561 337.597 455.217 337.252 454.7 337.252Z" fill="#261D2A"/>
<path fill-rule="evenodd" clip-rule="evenodd" d="M435.06 37.9146C434.83 37.9146 434.629 37.8285 434.457 37.6562C433.768 37.2255 432.131 34.469 430.236 31.0234C425.757 31.4541 421.967 31.6264 421.364 30.9372C421.192 30.5927 421.105 30.0758 421.536 29.6451C422.397 28.6976 424.379 26.4579 426.877 23.9599C425.068 19.9113 423.862 16.2934 424.293 15.1735C424.551 14.5706 425.068 14.3121 425.585 14.3983C426.705 14.5706 429.892 16.1211 433.079 17.7578C436.266 14.829 439.195 12.4171 440.659 12.4171C441.176 12.4171 441.521 12.5893 441.693 12.7616C441.865 13.02 441.951 13.2785 441.865 13.5369C441.521 15.9488 441.004 18.8776 440.401 21.8064C447.981 26.1134 448.067 26.8886 448.153 27.3193C448.153 27.6639 447.895 28.1807 447.55 28.353C447.464 28.353 443.502 29.1283 438.678 29.8174C437.644 34.1244 436.525 37.3116 435.577 37.7423C435.405 37.8572 435.232 37.9146 435.06 37.9146ZM432.045 30.765C433.251 33.1769 434.371 35.072 435.06 35.9334C435.491 35.072 436.18 32.9185 436.869 30.0758C435.232 30.3343 433.596 30.5927 432.045 30.765ZM427.566 25.5965C426.274 26.9748 424.982 28.4392 423.69 29.8174C424.982 29.8174 427.049 29.6451 429.461 29.3867C428.772 28.1807 428.169 26.8886 427.566 25.5965ZM428.858 24.3044C429.633 25.9411 430.409 27.5778 431.184 29.1283C433.165 28.956 435.232 28.6976 437.3 28.353C437.644 26.6302 438.075 24.7351 438.506 22.6678C436.783 21.7202 435.06 20.7727 433.337 19.9113C431.959 21.2034 430.409 22.7539 428.858 24.3044ZM440.056 23.6153C439.798 25.1658 439.453 26.6302 439.109 28.0946C441.865 27.75 444.191 27.3193 445.655 27.0609C444.536 26.1995 442.468 24.9936 440.056 23.6153ZM425.929 16.2934C426.015 17.4132 426.963 19.8251 428.083 22.5816C429.289 21.3757 430.495 20.1697 431.701 19.0499C429.203 17.7578 427.049 16.6379 425.929 16.2934ZM434.629 18.6192C435.749 19.2221 436.783 19.8251 437.73 20.2558C438.075 20.4855 438.448 20.7152 438.85 20.945C439.281 18.7914 439.626 16.5518 440.056 14.3121C438.936 14.829 437.041 16.4657 434.629 18.6192Z" fill="#261D2A"/>
<path d="M420.775 70.7008C420.69 91.8743 403.55 109.04 382.533 109.106C361.516 109.172 344.513 92.1135 344.598 70.94C344.683 49.6801 361.822 32.5149 382.84 32.4488C403.857 32.3828 420.86 49.4409 420.775 70.7008Z" fill="#76AEA6"/>
<path d="M403.811 100.976C403.383 100.978 402.956 100.547 402.958 100.116C402.769 83.1054 361.556 42.6507 361.129 42.2203C360.874 41.8757 360.79 41.3578 361.134 41.0114C361.478 40.6649 361.992 40.6633 362.333 41.0076C364.126 42.6426 404.399 82.3232 404.672 100.024C404.669 100.542 404.325 100.975 403.897 100.976C403.84 100.976 403.811 100.976 403.811 100.976Z" fill="#261D2A"/>
<path d="M389.386 99.8379C383.89 80.5909 353.304 53.9069 351.937 52.7882C351.595 52.5301 351.081 52.5317 350.736 52.8784C350.478 53.2247 350.475 53.8294 350.817 54.0875C350.988 54.2598 356.798 59.252 363.713 66.4868C355.472 69.277 344.361 82.0971 343.93 82.6168C343.585 83.0498 343.583 83.5682 344.011 83.9124C344.182 84.027 344.353 84.0841 344.524 84.0835C344.781 84.0827 345.039 83.9955 345.211 83.8222C345.298 83.6492 357.356 69.703 365.08 67.8647C367.556 70.3621 370.031 73.1187 372.506 75.9617C371.219 76.3113 357.741 80.673 355.382 91.8243C355.294 92.3429 355.549 92.774 356.063 92.8588C356.12 92.8586 356.178 92.8584 356.235 92.8582C356.578 92.8572 357.007 92.5966 357.009 92.1647C359.28 81.7048 372.928 77.6017 373.014 77.6015C373.243 77.5432 373.415 77.3986 373.53 77.1679C377.029 81.3035 380.27 85.6127 382.824 89.924C382.653 89.8094 382.482 89.7811 382.31 89.8392C376.386 91.9311 364.338 103.372 363.821 103.892C363.477 104.239 363.475 104.757 363.816 105.101C363.987 105.274 364.244 105.359 364.415 105.359C364.644 105.358 364.844 105.271 365.017 105.098C365.103 105.011 377.323 93.3967 382.818 91.479C383.161 91.3915 383.334 91.1318 383.421 90.786C385.38 94.0626 386.91 97.3405 387.755 100.361C387.925 100.706 388.267 100.964 388.61 100.963C388.667 100.963 388.753 100.934 388.868 100.876C389.297 100.788 389.556 100.269 389.386 99.8379Z" fill="#261D2A"/>
<path d="M420.553 63.6108C415.751 63.6259 406.295 70.048 405.35 70.7421C402.878 66.9489 399.894 62.8982 396.91 58.8474C398.886 57.8046 408.508 52.5913 414.164 53.1783C414.678 53.263 415.108 52.9161 415.111 52.3978C415.198 51.9656 414.857 51.5348 414.343 51.45C407.916 50.7791 397.433 56.5998 395.886 57.4685C393.925 54.9695 392.048 52.4702 390.172 50.0573C394.04 47.4536 402.462 42.4169 405.891 42.4061C405.949 42.4059 406.006 42.4057 406.063 42.4056C406.577 42.4039 406.922 42.0573 406.924 41.539C407.011 41.1068 406.67 40.6759 406.156 40.6776C406.098 40.6777 406.013 40.678 405.898 40.6784C401.526 40.6921 391.814 46.8559 389.063 48.6786C382.495 40.3199 376.948 33.8584 376.351 33.1692C376.009 32.8248 375.495 32.74 375.151 33.0866C374.807 33.3468 374.719 33.9518 375.061 34.2963C375.402 34.7271 410.131 75.5646 411.375 86.1861C411.373 86.618 411.8 86.9622 412.229 86.9609C412.229 86.9609 412.258 86.9608 412.315 86.9606C412.829 86.8726 413.088 86.4399 413.09 86.0079C412.759 82.9855 410.036 77.9837 406.287 72.2077C409.038 70.2122 416.859 65.3501 420.546 65.3385C420.974 65.3372 421.405 64.9039 421.406 64.472C421.408 63.9536 420.896 63.5233 420.553 63.6108Z" fill="#261D2A"/>
<path fill-rule="evenodd" clip-rule="evenodd" d="M406.35 301.905C406.093 301.906 405.837 301.734 405.666 301.562C405.41 301.131 405.496 300.614 405.839 300.355C412.612 295.344 416.045 290.857 416.139 286.375C416.323 279.307 408.458 272.942 399.396 265.545C389.222 257.374 377.767 248.085 374.793 235.333C371.82 222.755 375.608 211.285 385.469 202.995C388.9 200.058 393.356 197.551 398.154 195.733C394.573 187.551 393.83 172.47 415.104 150.283C430.974 133.622 437.249 120.511 433.841 111.208C429.752 100.01 412.631 98.229 412.46 98.2293C411.947 98.144 411.605 97.7136 411.691 97.2825C411.692 96.7654 412.121 96.4199 412.635 96.5052C413.405 96.5901 431.039 98.3707 435.469 110.602C439.132 120.594 432.685 134.309 416.301 151.488C395.627 173.07 396.371 187.462 399.696 195.128C406.721 192.789 414.086 192.087 419.39 194.405C422.726 195.865 424.605 198.361 424.771 201.636C424.936 204.997 423.219 207.5 420.049 208.453C414.224 210.359 404.555 206.755 399.519 198.489C399.291 198.087 399.064 197.657 398.837 197.198C394.553 198.842 390.353 201.176 386.58 204.286C377.233 212.144 373.617 223.01 376.421 234.9C379.31 247.134 390.509 256.165 400.426 264.25C409.915 271.905 418.037 278.528 417.851 286.458C417.671 291.457 414.151 296.462 406.864 301.732C406.693 301.847 406.521 301.905 406.35 301.905ZM400.464 196.678C400.635 196.965 400.806 197.252 400.976 197.539C405.586 205.03 414.398 208.462 419.539 206.816C421.252 206.296 423.223 205 423.058 201.725C422.892 199.14 421.44 197.16 418.702 195.958C414.51 194.069 407.575 194.339 400.464 196.678Z" fill="#261D2A"/>
<path d="M339.325 286.846C339.325 286.846 371.628 288.304 393.825 324.7C415.936 361.009 352.779 317.553 321.042 324.928C289.219 332.217 323.701 282.911 339.325 286.846Z" fill="#403955"/>
<path d="M337.374 171.104C337.374 171.104 363.822 152.064 403.623 166.481C443.424 180.985 366.948 186.592 346.401 212.192C325.854 237.793 322.658 177.815 337.374 171.104Z" fill="#403955"/>
<path d="M326.552 333.764C317.636 330.851 345.404 277.752 345.654 236.76C346.351 127.102 394.144 111.299 379.994 107.625C318.08 91.2151 276.579 143.493 276.579 143.493C276.579 143.493 232.369 122.012 206.208 137.92C180.048 153.828 254.65 196.055 187.943 240.282C152.825 263.656 150.125 294.624 159.551 320.279C140.203 328.641 108.667 336.264 91.0935 308.646C61.577 262.213 209.427 277.574 176.615 196.386C155.28 143.528 90.6931 129.894 80.5415 178.268C70.3898 226.642 98.3272 195.767 115.165 192.774C143.772 187.668 180.419 232.696 125.541 238.403C1.44251 251.505 72.4264 404.091 169.346 339.619C178.391 353.255 190.111 363.509 199.367 367.198C227.394 378.266 354.835 366.71 368.999 366.665C383.164 366.621 345.242 339.845 326.552 333.764Z" fill="#403955"/>
<path d="M313.057 334.027C313.057 334.027 253.616 326.008 267.548 270.777C267.548 270.777 319.194 256.365 331.128 250.887C331.128 250.887 326.86 289.592 313.057 334.027Z" fill="#EEEBD6"/>
<path d="M283.093 129.03C283.093 129.03 263.292 186.935 340.758 196.376C340.758 196.376 339.874 202.863 338.549 212.032L325.939 231.958L333.166 249.055C331.492 259.695 330.17 268.346 329.56 270.768C327.727 278.296 188.084 278.13 173.985 240.823C173.985 240.823 179.923 236.913 186.048 229.112L203.096 215.657L198.638 193.018C198.663 186.879 197.831 180.138 195.629 172.795C195.629 172.795 252.67 160.252 283.093 129.03Z" fill="#E6C11B"/>
<path d="M276.612 144.092C276.612 144.092 277.288 211.276 354.771 196.42L358.023 155.942C358.023 155.942 314.02 191.187 297.102 129.068C297.102 129.068 281.167 142.867 276.612 144.092Z" fill="#FF729A"/>
<path d="M198.625 192.824C198.625 192.824 234.16 252.783 338.799 211.919C338.799 211.919 336.639 236.231 333.406 249.089C331.311 257.168 209.78 264.057 185.927 229.061C185.927 229.061 199.952 205.32 198.625 192.824Z" fill="#FF729A"/>
<path d="M110.066 180.094C109.637 180.095 109.296 179.837 109.213 179.491C109.214 179.318 108.46 176.549 104.86 176.478C104.432 176.48 104.092 176.048 104.094 175.615C104.098 175.095 104.529 174.66 104.957 174.745C108.899 174.815 110.596 177.579 110.93 179.05C111.013 179.483 110.667 180.004 110.237 180.093C110.18 180.093 110.123 180.093 110.066 180.094Z" fill="white"/>
<path d="M102.83 182.247C102.487 182.249 102.146 181.99 102.063 181.557C101.978 181.471 101.31 178.616 97.7102 178.631C97.1965 178.547 96.8558 178.202 96.8591 177.682C96.8618 177.249 97.2069 176.901 97.7212 176.899C101.749 176.968 103.361 179.733 103.694 181.204C103.777 181.637 103.517 182.157 103.087 182.246C103.03 182.246 102.945 182.247 102.83 182.247Z" fill="white"/>
<path d="M100.591 173.547C100.248 173.548 99.9067 173.29 99.8237 172.857C99.7386 172.771 99.0704 170.002 95.4707 169.931C94.9564 169.933 94.6163 169.502 94.6196 168.982C94.6223 168.549 95.0531 168.2 95.4817 168.198C99.5099 168.268 101.121 171.033 101.455 172.504C101.538 172.936 101.277 173.457 100.762 173.546C100.705 173.546 100.648 173.547 100.591 173.547Z" fill="white"/>
<path d="M92.5791 174.753C92.2362 174.754 91.895 174.496 91.7263 174.064C91.7269 173.977 91.0593 171.122 87.4599 171.051C86.9456 171.053 86.605 170.708 86.6083 170.188C86.611 169.755 86.9566 169.321 87.4709 169.318C91.4982 169.474 93.1092 172.239 93.4428 173.71C93.5257 174.142 93.2653 174.663 92.7505 174.752C92.6933 174.752 92.6362 174.753 92.5791 174.753Z" fill="white"/>
<path d="M94.9908 183.28C94.5622 183.282 94.221 183.024 94.1381 182.591C94.1392 182.418 93.3853 179.65 89.7859 179.579C89.3573 179.58 88.9309 179.236 88.9342 178.716C89.0227 178.283 89.2826 177.848 89.8825 177.846C93.8248 177.915 95.521 180.766 95.7688 182.238C95.9375 182.67 95.5919 183.105 95.1622 183.28C95.1051 183.28 95.048 183.28 94.9908 183.28Z" fill="white"/>
<path d="M89.5647 166.569C89.2218 166.571 88.8806 166.313 88.7971 165.966C88.7124 165.794 88.0442 163.025 84.4446 162.954C83.9303 162.956 83.5902 162.524 83.5929 162.091C83.5962 161.571 83.9413 161.223 84.4556 161.221C88.4838 161.29 90.0949 164.055 90.4284 165.526C90.5109 166.046 90.251 166.48 89.8218 166.568C89.7647 166.569 89.679 166.569 89.5647 166.569Z" fill="white"/>
<path d="M83.6278 168.55C83.2844 168.552 83.0279 168.379 82.8578 168.119C82.773 167.946 81.414 165.606 77.7164 166.491C77.286 166.666 76.773 166.321 76.6899 165.887C76.5209 165.454 76.8676 164.931 77.2975 164.842C81.3391 163.869 83.7301 165.944 84.4088 167.244C84.5778 167.677 84.4028 168.199 84.0577 168.462C83.8856 168.52 83.7423 168.55 83.6278 168.55Z" fill="white"/>
<path d="M126.358 273.476C126.018 273.478 125.68 273.22 125.597 272.875C124.175 269.17 126.061 266.572 127.256 265.704C127.683 265.357 128.192 265.528 128.445 265.872C128.782 266.302 128.694 266.82 128.268 267.081C128.182 267.168 125.876 268.904 127.131 272.265C127.298 272.695 127.125 273.214 126.699 273.388C126.585 273.446 126.472 273.476 126.358 273.476Z" fill="white"/>
<path d="M131.096 279.247C130.756 279.249 130.417 279.078 130.334 278.733C128.912 275.027 130.798 272.344 131.994 271.476C132.42 271.215 132.929 271.299 133.182 271.729C133.435 272.074 133.346 272.592 133.004 272.939C132.919 272.939 130.614 274.761 131.868 278.122C132.035 278.553 131.862 279.071 131.436 279.246C131.323 279.246 131.209 279.247 131.096 279.247Z" fill="white"/>
<path d="M123.946 284.674C123.606 284.676 123.267 284.504 123.099 284.16C121.763 280.368 123.648 277.77 124.844 276.902C125.27 276.641 125.78 276.726 126.033 277.07C126.285 277.5 126.197 278.019 125.855 278.279C125.77 278.366 123.464 280.102 124.718 283.549C124.885 283.98 124.628 284.412 124.202 284.587C124.145 284.645 124.059 284.674 123.946 284.674Z" fill="white"/>
<path d="M128.082 291.652C127.742 291.653 127.403 291.396 127.32 291.051C125.898 287.345 127.784 284.748 129.064 283.879C129.406 283.533 129.915 283.703 130.168 284.047C130.505 284.478 130.417 284.996 129.991 285.257C129.905 285.343 127.6 287.079 128.854 290.44C129.021 290.871 128.848 291.39 128.422 291.564C128.308 291.622 128.195 291.651 128.082 291.652Z" fill="white"/>
<path d="M135.058 286.225C134.719 286.226 134.38 285.969 134.297 285.624C132.876 281.919 134.761 279.321 135.956 278.453C136.383 278.106 136.892 278.19 137.144 278.621C137.397 278.965 137.309 279.569 136.967 279.83C136.882 279.916 134.577 281.652 135.831 285.013C135.998 285.444 135.825 285.963 135.399 286.137C135.285 286.195 135.172 286.224 135.058 286.225Z" fill="white"/>
<path d="M121.707 297.509C121.367 297.511 121.028 297.339 120.945 296.995C119.523 293.203 121.409 290.605 122.604 289.737C123.031 289.477 123.54 289.561 123.793 289.905C124.045 290.335 123.957 290.854 123.615 291.114C123.53 291.201 121.225 292.937 122.478 296.384C122.646 296.815 122.473 297.247 122.047 297.421C121.933 297.479 121.82 297.509 121.707 297.509Z" fill="white"/>
<path d="M127.634 302.586C127.38 302.587 127.126 302.416 126.958 302.244C124.604 298.888 125.64 295.864 126.579 294.738C126.836 294.306 127.43 294.303 127.767 294.561C128.105 294.905 128.186 295.422 127.845 295.769C127.76 295.855 126.135 298.105 128.405 301.202C128.658 301.546 128.569 302.151 128.144 302.411C128.03 302.527 127.86 302.585 127.634 302.586Z" fill="white"/>
<path d="M360.203 114.365C360.088 114.365 359.974 114.336 359.859 114.279C359.431 114.02 359.175 113.588 359.434 113.154C361.429 108.556 372.268 106.443 373.472 106.265C373.902 106.178 374.331 106.436 374.415 106.956C374.499 107.389 374.239 107.823 373.723 107.911C370.627 108.527 362.366 110.719 360.979 113.842C360.806 114.103 360.547 114.364 360.203 114.365Z" fill="white"/>
<path d="M364.51 119.019C364.281 119.019 364.081 118.933 363.909 118.76C363.567 118.415 363.569 117.895 363.914 117.548C364.173 117.287 370.904 110.682 378.64 110.397C379.07 110.396 379.498 110.741 379.496 111.261C379.495 111.694 379.149 112.129 378.633 112.13C371.67 112.412 365.199 118.67 365.113 118.757C364.94 118.931 364.739 119.018 364.51 119.019Z" fill="white"/>
<path d="M361.543 362.148C361.199 362.149 360.942 361.977 360.771 361.717C358.81 357.647 356.155 355.141 352.891 354.11C347.223 352.48 341.536 355.794 341.449 355.881C341.105 356.055 340.503 355.97 340.333 355.537C340.077 355.104 340.165 354.584 340.596 354.322C340.854 354.235 346.973 350.573 353.328 352.461C357.107 353.577 360.19 356.429 362.322 360.932C362.492 361.365 362.318 361.886 361.888 362.06C361.773 362.119 361.658 362.148 361.543 362.148Z" fill="white"/>
<path d="M344.285 368.25C344.113 368.25 343.969 368.222 343.855 368.164C343.683 368.078 331.066 360.547 323.654 364.05C323.223 364.226 322.707 364.053 322.537 363.619C322.28 363.185 322.541 362.662 322.972 362.399C331.246 358.633 344.12 366.336 344.721 366.682C345.15 366.855 345.234 367.464 344.975 367.813C344.802 368.074 344.543 368.249 344.285 368.25Z" fill="white"/>
<path d="M146.806 135.605C146.806 135.605 129.337 70.0953 141.672 40.9697C144.974 33.0816 179.007 63.9966 179.007 63.9966C179.007 63.9966 230.359 35.5671 233.974 32.177C237.504 28.7873 222.122 -1.4297 230.322 0.870945C238.949 3.25627 263.256 16.1297 263.256 16.1297C263.256 16.1297 325.318 39.6551 300.305 97.8215C275.377 155.987 162.743 213.495 146.806 135.605Z" fill="#403955"/>
<path d="M142.017 71.8484C142.017 71.8484 115.444 48.0229 116.943 53.8934C118.529 59.6772 117.334 86.8204 120.999 87.8417C124.663 88.863 142.017 71.8484 142.017 71.8484Z" fill="#FF729A"/>
<path d="M240.906 33.8366C240.906 33.8366 233.877 10.0018 236.96 9.12379C239.957 8.24614 256.146 16.3906 256.729 18.8092C257.312 21.2278 240.906 33.8366 240.906 33.8366Z" fill="#FF729A"/>
<path d="M182.927 99.6431C182.87 99.6434 182.813 99.6436 182.755 99.6439C182.241 99.5592 181.986 99.1256 182.075 98.6036C183.937 89.2933 187.751 83.5389 193.43 81.6018C205.048 77.5526 220.074 91.1368 220.757 91.7425C221.099 92.0018 221.095 92.6104 220.75 92.9596C220.49 93.3085 219.889 93.3111 219.547 93.0517C219.462 92.8782 204.692 79.5536 193.935 83.2514C188.945 84.9248 185.476 90.2429 183.704 98.9443C183.702 99.379 183.271 99.6417 182.927 99.6431Z" fill="white"/>
<path d="M267.147 59.0976C266.894 59.0987 266.64 59.0135 266.472 58.8416C259.918 50.845 257.421 44.039 258.892 38.7694C260.448 33.4132 265.537 31.7522 265.707 31.6652C266.216 31.4905 266.638 31.7475 266.804 32.1783C266.971 32.609 266.714 33.1278 266.289 33.3021C266.205 33.3025 261.794 34.788 260.497 39.2803C259.199 43.9452 261.699 50.3197 267.833 57.7142C268.085 58.0582 268.082 58.576 267.656 58.9229C267.486 59.0387 267.317 59.0969 267.147 59.0976Z" fill="white"/>
<path d="M164.15 124.522C163.72 124.524 163.292 124.174 163.294 123.822C163.211 123.294 163.558 122.853 163.988 122.763L198.861 116.986C199.378 116.896 199.807 117.158 199.889 117.685C199.973 118.125 199.626 118.566 199.195 118.656L164.236 124.522C164.178 124.522 164.15 124.522 164.15 124.522Z" fill="white"/>
<path d="M169.144 143.816C168.8 143.818 168.544 143.645 168.374 143.386C168.119 142.952 168.294 142.431 168.725 142.168L202.051 124.483C202.482 124.221 202.996 124.392 203.251 124.825C203.42 125.259 203.33 125.78 202.9 125.956L169.573 143.728C169.401 143.786 169.258 143.816 169.144 143.816Z" fill="white"/>
<path d="M284.691 55.0477C284.27 55.0495 283.936 54.7922 283.854 54.3613L280.849 36.6076C280.768 36.1767 281.107 35.6579 281.528 35.5699C281.948 35.5681 282.451 35.8248 282.532 36.3419L285.453 54.0096C285.534 54.5268 285.28 54.959 284.775 55.0474C284.719 55.0476 284.691 55.0477 284.691 55.0477Z" fill="white"/>
<path d="M291.046 57.8949C290.548 57.8107 290.217 57.4672 290.22 56.95L291.476 40.7373C291.479 40.22 291.897 39.8735 292.395 39.9577C292.811 39.956 293.141 40.3857 293.138 40.8168L291.882 57.1157C291.88 57.5467 291.545 57.8929 291.046 57.8949Z" fill="white"/>
<path fill-rule="evenodd" clip-rule="evenodd" d="M133.634 76.6409C132.177 76.6472 128.837 75.9685 120.455 72.7989C120.027 72.6274 119.774 72.1086 119.948 71.6746C120.122 71.2406 120.638 70.9785 121.066 71.1499C125.77 72.9491 131.417 74.7443 133.302 74.9094C132.626 73.4393 129.648 69.813 127.009 66.8784C126.668 66.5333 126.758 65.9264 127.102 65.6649C127.447 65.3168 127.962 65.3146 128.303 65.6597C136.476 74.7224 135.269 75.7674 134.751 76.2895C134.579 76.4635 134.406 76.6376 133.634 76.6409Z" fill="white"/>
<path d="M234.974 26.5235C231.722 26.5376 225.932 21.8048 224.74 20.8583C224.314 20.5141 224.317 19.9951 224.576 19.6479C224.921 19.3004 225.435 19.2117 225.775 19.5562C228.67 21.8794 233.529 25.0592 235.157 24.7061C235.59 23.9256 233.565 19.3495 230.768 14.9497C230.514 14.6048 230.603 14.0853 231.032 13.8239C231.376 13.5629 231.889 13.6472 232.144 13.9921C233.5 16.0625 237.735 23.0513 236.693 25.478C236.518 25.9978 236.088 26.3457 235.488 26.4348C235.317 26.4932 235.145 26.5228 234.974 26.5235Z" fill="white"/>
<path d="M218.647 52.1031C218.304 52.1049 218.047 52.0192 217.878 51.7586C217.793 51.6719 216.098 49.3279 212.74 50.653C212.31 50.8295 211.797 50.658 211.629 50.2231C211.461 49.7883 211.723 49.264 212.154 49.0874C215.856 47.5862 218.498 49.4894 219.345 50.7922C219.599 51.1394 219.509 51.6628 219.077 52.0137C218.962 52.0724 218.818 52.1022 218.647 52.1031Z" fill="white"/>
<path d="M211.411 59.3389C211.154 59.3402 210.897 59.2544 210.728 58.9939C210.643 58.9072 208.948 56.5631 205.504 57.9758C205.073 58.1524 204.561 57.8937 204.393 57.4588C204.225 57.0239 204.487 56.4996 204.918 56.323C208.62 54.8218 211.262 56.8122 212.109 58.0279C212.363 58.3751 212.273 58.8985 211.841 59.2494C211.726 59.3082 211.583 59.338 211.411 59.3389Z" fill="white"/>
<path d="M205.985 52.1893C205.727 52.1906 205.471 52.1049 205.301 51.8443C205.216 51.7576 203.521 49.4139 200.164 50.7388C199.648 50.9158 199.22 50.7438 199.053 50.309C198.885 49.8742 199.061 49.3504 199.492 49.1738C203.28 47.6723 205.836 49.5758 206.683 50.8785C206.937 51.2257 206.846 51.749 206.501 52.0122C206.328 52.1293 206.156 52.1884 205.985 52.1893Z" fill="white"/>
<path d="M199.007 56.4105C198.749 56.4118 198.493 56.2389 198.324 55.9785C198.239 55.8918 196.543 53.6355 193.186 54.9602C192.756 55.1368 192.243 54.8781 192.076 54.4434C191.908 54.0086 192.17 53.4845 192.6 53.3079C196.302 51.8071 198.858 53.7975 199.705 55.0127C200.045 55.3594 199.954 55.9698 199.523 56.2335C199.35 56.3506 199.178 56.4096 199.007 56.4105Z" fill="white"/>
<path d="M204.434 63.3018C204.177 63.3031 203.92 63.2174 203.751 62.9568C203.666 62.8701 201.971 60.5261 198.613 61.9383C198.182 62.1149 197.67 61.8562 197.502 61.4213C197.334 60.9865 197.596 60.4622 198.027 60.2856C201.729 58.7844 204.371 60.6876 205.218 61.9904C205.472 62.3376 205.382 62.861 204.95 63.2119C204.835 63.2706 204.663 63.3006 204.434 63.3018Z" fill="white"/>
<path d="M214.081 46.1599C213.824 46.1612 213.568 45.9883 213.398 45.815C213.314 45.6412 211.618 43.3848 208.261 44.7096C207.831 44.8861 207.318 44.6275 207.15 44.1927C206.983 43.758 207.245 43.2338 207.675 43.0573C211.377 41.5564 214.019 43.5463 214.866 44.7616C215.119 45.1959 215.029 45.7192 214.598 45.9829C214.425 46.1 214.253 46.159 214.081 46.1599Z" fill="white"/>
<path d="M220.192 58.8223C219.849 58.8241 219.593 58.6516 219.425 58.3047C219.34 58.2182 218.163 55.7031 214.386 56.3318C213.957 56.421 213.531 56.0755 213.45 55.5543C213.369 55.12 213.715 54.6834 214.145 54.5942C218.264 53.9637 220.385 56.2999 220.974 57.6009C221.141 58.0347 220.965 58.5573 220.535 58.7335C220.42 58.7921 220.306 58.8217 220.192 58.8223Z" fill="white"/>
<path d="M306.782 70.7216C306.782 70.7216 310.344 101.914 282.576 129.352C247.157 164.258 211.748 170.462 211.748 170.462C229.107 127.422 262.212 147.681 250.124 113.759C238.122 79.7497 227.205 49.7127 259.605 59.9465C291.92 70.1807 288.381 89.3876 298.257 54.2467C303.414 35.8972 306.782 70.7216 306.782 70.7216Z" fill="#EEEBD6"/>
<path d="M255.003 80.1594C255.003 80.1594 262.034 63.6962 265.687 67.3994C269.341 71.1026 269.275 81.4814 269.275 81.4814C269.275 81.4814 251.711 86.8332 255.003 80.1594Z" fill="#FF729A"/>
<path d="M282.303 105.194C276.577 105.218 264.004 93.601 262.56 92.2239C262.22 91.8796 262.223 91.3608 262.482 90.9274C262.826 90.5801 263.339 90.5779 263.764 90.9219C269.37 96.258 279.488 104.341 282.741 103.463C282.998 103.375 283.341 103.201 283.516 102.595C285.521 96.2746 279.915 77.3646 279.916 77.1917C279.748 76.7601 280.008 76.2403 280.435 76.152C280.864 75.9772 281.375 76.2343 281.543 76.6659C281.709 77.4433 287.315 96.3533 285.136 103.106C284.788 104.145 284.1 104.84 283.158 105.104C282.873 105.162 282.588 105.192 282.303 105.194Z" fill="#261D2A"/>
<path d="M284.389 103.718C284.048 103.719 283.792 103.634 283.623 103.376L268.817 82.0059C268.563 81.5748 268.652 81.0559 269.081 80.7948C269.424 80.4476 269.936 80.6182 270.275 80.9625L285.081 102.419C285.335 102.763 285.246 103.282 284.817 103.63C284.703 103.688 284.56 103.717 284.389 103.718Z" fill="#261D2A"/>
<path d="M182.922 156.26C182.694 156.261 182.495 156.175 182.325 156.003C181.985 155.745 181.903 155.14 182.247 154.793L204.556 128.924C204.9 128.577 205.413 128.575 205.753 128.919C206.179 129.177 206.176 129.696 205.831 130.129L183.523 155.911C183.35 156.171 183.093 156.259 182.922 156.26Z" fill="white"/>
<path d="M391.26 340.011C391.002 340.012 390.745 339.839 390.574 339.667C382.97 329.482 377.983 330.882 377.897 330.882C377.467 331.056 377.039 330.798 376.869 330.366C376.698 329.934 376.958 329.414 377.388 329.24C377.646 329.152 383.494 327.317 391.953 338.624C392.209 338.97 392.121 339.489 391.776 339.836C391.604 339.952 391.432 340.01 391.26 340.011Z" fill="white"/>
<path d="M397.613 339.15C397.499 339.151 397.385 339.122 397.27 339.065C396.842 338.893 396.587 338.462 396.76 337.943C398.234 334.05 388.738 327.34 382.316 323.99C381.888 323.732 381.804 323.213 381.977 322.867C382.236 322.434 382.752 322.26 383.18 322.431C384.978 323.376 400.903 331.881 398.388 338.543C398.301 338.889 397.957 339.149 397.613 339.15Z" fill="white"/>
<path d="M318.104 268.945C316.39 268.604 314.771 265.845 313.163 260.579C312.994 259.802 313.426 259.023 314.199 258.762C314.972 258.5 315.743 258.93 315.997 259.706C316.759 262.123 317.693 264.453 318.375 265.574C318.981 264.363 319.848 261.941 320.372 259.52C320.547 258.655 321.321 258.221 322.093 258.391C322.95 258.561 323.375 259.338 323.201 260.116C321.54 267.811 319.734 268.939 318.704 269.029C318.447 269.03 318.19 268.944 318.104 268.945Z" fill="#D47E3A"/>
<path d="M298.12 270.064C296.406 269.724 294.787 266.964 293.178 261.785C293.009 261.008 293.441 260.143 294.215 259.881C294.988 259.62 295.758 260.049 296.012 260.826C296.775 263.243 297.709 265.573 298.391 266.694C298.996 265.569 299.863 263.06 300.388 260.64C300.562 259.861 301.337 259.341 302.108 259.511C302.965 259.681 303.391 260.457 303.216 261.236C301.556 268.93 299.75 270.059 298.72 270.149C298.463 270.15 298.205 270.15 298.12 270.064Z" fill="#D47E3A"/>
<path d="M274.948 270.065C273.32 269.724 271.701 266.964 270.092 261.785C269.838 261.009 270.27 260.143 271.043 259.882C271.816 259.62 272.672 260.049 272.926 260.826C273.603 263.243 274.623 265.573 275.305 266.694C275.91 265.569 276.778 263.06 277.302 260.639C277.477 259.861 278.251 259.34 279.022 259.511C279.794 259.681 280.305 260.457 280.131 261.235C278.384 268.931 276.664 270.059 275.634 270.149C275.377 270.15 275.12 270.15 274.948 270.065Z" fill="#D47E3A"/>
<path d="M253.422 268.778C251.881 268.092 250.95 264.985 250.629 259.544C250.632 258.68 251.235 257.987 252.007 257.984C252.865 257.895 253.549 258.498 253.546 259.275C253.707 261.78 254.126 264.37 254.55 265.578C255.412 264.539 256.793 262.375 257.917 260.125C258.263 259.347 259.121 259.085 259.892 259.428C260.577 259.771 260.83 260.721 260.484 261.413C257.025 268.508 255.05 269.205 254.022 268.949C253.764 268.95 253.593 268.864 253.422 268.778Z" fill="#D47E3A"/>
<path d="M216.597 265.06C215.056 264.288 214.125 261.181 213.804 255.739C213.721 254.962 214.41 254.269 215.182 254.18C215.954 254.177 216.638 254.78 216.72 255.557C216.882 258.062 217.301 260.566 217.724 261.86C218.586 260.821 219.967 258.657 221.005 256.408C221.351 255.629 222.296 255.367 222.981 255.71C223.751 256.054 224.005 256.917 223.659 257.695C220.2 264.79 218.224 265.487 217.196 265.231C216.939 265.232 216.682 265.146 216.597 265.06Z" fill="#D47E3A"/>
<path d="M200.575 261.012C199.034 260.325 198.103 257.218 197.782 251.777C197.785 250.913 198.388 250.22 199.16 250.218C200.018 250.128 200.702 250.731 200.698 251.595C200.86 254.013 201.279 256.604 201.703 257.812C202.564 256.859 203.945 254.608 205.069 252.359C205.415 251.666 206.274 251.318 207.045 251.661C207.729 252.091 207.983 252.954 207.637 253.646C204.178 260.741 202.203 261.438 201.174 261.269C200.917 261.183 200.746 261.097 200.575 261.012Z" fill="#D47E3A"/>
<path d="M185.587 256.619C184.132 255.932 183.201 252.825 182.879 247.384C182.797 246.52 183.4 245.827 184.258 245.824C185.03 245.736 185.714 246.338 185.796 247.202C185.958 249.62 186.376 252.21 186.715 253.419C187.576 252.379 188.957 250.215 190.081 247.966C190.427 247.274 191.372 246.925 192.056 247.268C192.741 247.612 193.08 248.561 192.735 249.253C189.19 256.348 187.3 257.045 186.186 256.876C186.015 256.79 185.758 256.704 185.587 256.619Z" fill="#D47E3A"/>
<path d="M169.92 248.7C168.724 247.494 168.994 244.211 170.559 239.022C170.733 238.244 171.593 237.81 172.364 237.98C173.135 238.237 173.56 239.099 173.3 239.878C172.604 242.212 172.079 244.806 172.074 246.102C173.192 245.407 175.256 243.845 177.064 242.112C177.667 241.592 178.61 241.589 179.122 242.192C179.72 242.795 179.631 243.659 179.114 244.265C173.346 249.726 171.288 249.646 170.432 249.13C170.176 248.958 170.005 248.786 169.92 248.7Z" fill="#D47E3A"/>
<path d="M192.99 189.856C191.362 189.343 190.001 186.41 188.993 181.056C188.911 180.279 189.428 179.5 190.201 179.325C190.974 179.149 191.744 179.665 191.912 180.529C192.331 182.947 193.093 185.363 193.689 186.571C194.38 185.446 195.504 183.109 196.286 180.774C196.546 179.996 197.406 179.561 198.177 179.818C198.948 180.075 199.287 180.938 199.027 181.716C196.509 189.154 194.618 190.11 193.589 190.027C193.332 190.028 193.075 189.943 192.99 189.856Z" fill="#D47E3A"/>
<path d="M209.012 180.553C207.384 180.04 206.109 177.107 205.101 171.753C204.933 170.976 205.451 170.197 206.223 170.022C207.082 169.846 207.852 170.362 207.934 171.139C208.439 173.643 209.116 176.06 209.711 177.268C210.488 176.143 211.526 173.806 212.308 171.471C212.654 170.693 213.428 170.258 214.199 170.515C214.97 170.772 215.395 171.634 215.135 172.413C212.532 179.851 210.726 180.807 209.612 180.724C209.354 180.725 209.183 180.639 209.012 180.553Z" fill="#D47E3A"/>
<path d="M216.937 198.385C215.309 197.871 214.034 194.851 213.026 189.584C212.858 188.721 213.376 187.942 214.148 187.853C214.921 187.677 215.691 188.193 215.859 188.971C216.364 191.388 217.041 193.892 217.637 195.013C218.327 193.974 219.452 191.551 220.233 189.216C220.494 188.438 221.353 188.003 222.124 188.26C222.895 188.603 223.321 189.379 223.06 190.158C220.457 197.596 218.566 198.552 217.537 198.469C217.28 198.47 217.108 198.384 216.937 198.385Z" fill="#D47E3A"/>
<path d="M226.671 181.329C225.043 180.816 223.768 177.796 222.76 172.528C222.592 171.665 223.11 170.886 223.968 170.797C224.741 170.621 225.511 171.137 225.679 171.914C226.098 174.332 226.86 176.836 227.37 177.957C228.147 176.918 229.186 174.495 230.053 172.16C230.313 171.381 231.087 170.947 231.858 171.204C232.629 171.547 233.055 172.323 232.794 173.102C230.191 180.54 228.386 181.496 227.271 181.413C227.013 181.414 226.842 181.415 226.671 181.329Z" fill="#D47E3A"/>
<path d="M231.753 211.564C230.211 211.05 228.85 208.117 227.842 202.764C227.674 201.987 228.192 201.207 229.05 201.032C229.823 200.857 230.593 201.373 230.761 202.236C231.18 204.654 231.943 207.071 232.452 208.279C233.229 207.153 234.268 204.817 235.135 202.482C235.395 201.703 236.169 201.269 236.94 201.525C237.711 201.782 238.136 202.645 237.876 203.423C235.273 210.862 233.468 211.818 232.353 211.735C232.096 211.736 231.924 211.65 231.753 211.564Z" fill="#D47E3A"/>
<path d="M263.151 219.245C261.523 218.732 260.249 215.712 259.241 210.358C259.072 209.581 259.59 208.802 260.363 208.627C261.221 208.537 261.905 209.054 262.074 209.831C262.579 212.248 263.255 214.752 263.851 215.873C264.541 214.834 265.666 212.411 266.447 210.076C266.708 209.298 267.567 208.863 268.338 209.12C269.109 209.377 269.535 210.239 269.274 211.018C266.671 218.456 264.78 219.413 263.751 219.329C263.494 219.33 263.323 219.244 263.151 219.245Z" fill="#D47E3A"/>
<path d="M274.694 200.724C273.066 200.211 271.791 197.278 270.783 191.924C270.615 191.147 271.133 190.368 271.905 190.193C272.764 190.017 273.534 190.533 273.616 191.31C274.122 193.728 274.798 196.231 275.393 197.439C276.084 196.314 277.209 193.977 277.99 191.556C278.251 190.777 279.11 190.429 279.881 190.686C280.652 190.943 281.078 191.719 280.817 192.497C278.214 200.022 276.409 200.892 275.294 200.895C275.037 200.81 274.865 200.81 274.694 200.724Z" fill="#D47E3A"/>
<path d="M287.098 217.177C285.471 216.664 284.196 213.73 283.188 208.377C283.019 207.6 283.537 206.821 284.396 206.645C285.168 206.47 285.938 206.986 286.106 207.849C286.526 210.267 287.288 212.684 287.798 213.892C288.574 212.766 289.613 210.43 290.48 208.095C290.741 207.316 291.514 206.882 292.285 207.139C293.056 207.395 293.482 208.258 293.221 209.037C290.618 216.475 288.813 217.431 287.698 217.348C287.441 217.349 287.27 217.263 287.098 217.177Z" fill="#D47E3A"/>
<path d="M302.173 211.32C300.631 210.806 299.27 207.873 298.262 202.519C298.094 201.742 298.612 200.963 299.47 200.788C300.243 200.612 301.013 201.128 301.181 201.992C301.6 204.41 302.363 206.826 302.872 208.034C303.649 206.909 304.688 204.573 305.555 202.237C305.815 201.459 306.589 201.024 307.36 201.281C308.131 201.538 308.556 202.401 308.296 203.179C305.693 210.617 303.888 211.573 302.773 211.491C302.515 211.491 302.344 211.406 302.173 211.32Z" fill="#D47E3A"/>
<path d="M322.157 213.904C320.615 213.304 319.255 210.371 318.247 205.017C318.078 204.24 318.596 203.461 319.455 203.286C320.227 203.11 320.997 203.626 321.165 204.49C321.585 206.908 322.347 209.411 322.857 210.532C323.633 209.407 324.672 207.071 325.539 204.735C325.8 203.957 326.573 203.522 327.344 203.779C328.115 204.036 328.541 204.899 328.28 205.677C325.677 213.116 323.872 214.072 322.757 213.989C322.5 213.989 322.329 213.904 322.157 213.904Z" fill="#D47E3A"/>
<path d="M196.531 226.645C195.163 225.699 194.661 222.504 194.94 217.061C195.029 216.284 195.718 215.591 196.575 215.674C197.347 215.758 197.944 216.447 197.941 217.225C197.76 219.73 197.835 222.322 198.087 223.53C199.034 222.663 200.671 220.671 202.052 218.594C202.483 217.902 203.427 217.726 204.112 218.156C204.796 218.585 204.964 219.535 204.532 220.227C200.132 226.806 198.158 227.244 197.131 226.902C196.874 226.816 196.703 226.73 196.531 226.645Z" fill="#E84271"/>
<path d="M182.576 230.004C181.122 229.145 180.621 225.864 180.985 220.421C181.074 219.643 181.763 219.036 182.534 219.034C183.392 219.117 183.989 219.807 183.9 220.671C183.719 223.09 183.794 225.681 184.046 226.976C185.079 226.109 186.716 224.031 188.097 221.953C188.528 221.261 189.472 221.085 190.07 221.602C190.754 222.031 190.923 222.895 190.491 223.587C186.177 230.165 184.117 230.604 183.09 230.261C182.919 230.176 182.747 230.09 182.576 230.004Z" fill="#E84271"/>
<path d="M201.269 242.064C199.814 241.204 199.313 237.923 199.677 232.567C199.681 231.703 200.369 231.096 201.227 231.18C201.998 231.177 202.596 231.866 202.592 232.73C202.411 235.149 202.487 237.741 202.739 239.036C203.771 238.169 205.409 236.09 206.789 234.013C207.22 233.407 208.079 233.145 208.763 233.661C209.447 234.091 209.615 234.954 209.184 235.646C204.87 242.225 202.81 242.663 201.782 242.321C201.525 242.322 201.354 242.15 201.269 242.064Z" fill="#E84271"/>
<path d="M220.479 235.603C219.11 234.743 218.608 231.549 218.887 226.106C218.976 225.328 219.665 224.635 220.522 224.719C221.293 224.803 221.891 225.492 221.888 226.269C221.706 228.775 221.782 231.366 222.034 232.575C222.981 231.708 224.618 229.716 225.998 227.639C226.43 226.946 227.374 226.771 228.058 227.2C228.743 227.63 228.91 228.58 228.479 229.272C224.079 235.851 222.105 236.289 221.077 235.947C220.821 235.861 220.649 235.775 220.479 235.603Z" fill="#E84271"/>
<path d="M231.16 246.198C229.706 245.253 229.204 242.058 229.569 236.615C229.572 235.838 230.26 235.231 231.118 235.228C231.889 235.312 232.487 236.001 232.483 236.779C232.302 239.284 232.377 241.875 232.629 243.17C233.576 242.304 235.214 240.225 236.594 238.148C237.111 237.455 237.97 237.28 238.654 237.71C239.338 238.226 239.506 239.089 239.074 239.781C234.76 246.36 232.701 246.798 231.673 246.456C231.416 246.37 231.245 246.284 231.16 246.198Z" fill="#E84271"/>
<path d="M279.258 249.307C277.63 248.88 276.184 245.947 275.004 240.68C274.835 239.903 275.353 239.037 276.126 238.862C276.985 238.686 277.755 239.202 277.923 239.979C278.428 242.397 279.276 244.814 279.872 246.022C280.563 244.896 281.516 242.474 282.298 240.052C282.558 239.274 283.332 238.839 284.103 239.096C284.874 239.353 285.3 240.129 285.125 240.994C282.779 248.518 280.973 249.474 279.858 249.478C279.601 249.478 279.43 249.393 279.258 249.307Z" fill="#E84271"/>
<path d="M295.711 237.247C294.083 236.82 292.636 233.887 291.456 228.62C291.288 227.757 291.806 226.977 292.579 226.802C293.352 226.627 294.207 227.143 294.376 227.92C294.881 230.337 295.729 232.754 296.325 233.962C297.015 232.836 297.969 230.414 298.75 227.992C299.011 227.214 299.785 226.78 300.556 227.036C301.327 227.293 301.752 228.069 301.492 228.848C299.231 236.458 297.34 237.415 296.311 237.418C296.053 237.419 295.882 237.333 295.711 237.247Z" fill="#E84271"/>
<path d="M307.598 249.307C305.97 248.88 304.524 245.947 303.344 240.68C303.175 239.903 303.693 239.037 304.466 238.862C305.239 238.687 306.009 239.203 306.263 239.979C306.768 242.397 307.531 244.814 308.126 246.022C308.817 244.896 309.856 242.474 310.638 240.052C310.812 239.274 311.672 238.839 312.443 239.096C313.214 239.353 313.64 240.129 313.379 240.994C311.033 248.518 309.228 249.474 308.198 249.477C307.941 249.478 307.684 249.393 307.598 249.307Z" fill="#E84271"/>
<path d="M323.19 231.993C321.562 231.479 320.115 228.633 318.935 223.279C318.767 222.502 319.285 221.723 320.058 221.548C320.83 221.372 321.601 221.802 321.855 222.665C322.36 225.083 323.122 227.5 323.804 228.621C324.495 227.496 325.448 225.073 326.229 222.738C326.404 221.96 327.264 221.525 328.035 221.782C328.806 221.952 329.231 222.815 328.971 223.593C326.625 231.118 324.819 232.16 323.79 232.077C323.533 232.078 323.361 231.992 323.19 231.993Z" fill="#E84271"/>
<path d="M327.583 245.861C325.955 245.348 324.508 242.501 323.328 237.148C323.16 236.371 323.678 235.591 324.451 235.416C325.223 235.241 325.994 235.671 326.248 236.534C326.753 238.865 327.515 241.368 328.197 242.49C328.802 241.364 329.841 238.942 330.622 236.607C330.797 235.828 331.657 235.394 332.428 235.65C333.199 235.821 333.624 236.684 333.364 237.462C331.018 244.986 329.212 246.029 328.183 245.946C327.926 245.946 327.669 245.861 327.583 245.861Z" fill="#E84271"/>
<path d="M332.751 193.143C331.123 192.716 329.677 189.783 328.497 184.43C328.328 183.653 328.846 182.874 329.619 182.698C330.478 182.523 331.248 183.039 331.416 183.816C331.921 186.234 332.769 188.65 333.365 189.772C334.056 188.646 335.009 186.31 335.791 183.889C336.051 183.11 336.825 182.676 337.596 182.933C338.367 183.189 338.793 183.966 338.618 184.744C336.272 192.268 334.466 193.311 333.352 193.228C333.094 193.229 332.923 193.229 332.751 193.143Z" fill="#E84271"/>
<path d="M324.827 179.275C323.199 178.762 321.838 175.915 320.658 170.561C320.49 169.784 321.007 169.005 321.78 168.83C322.553 168.654 323.323 169.084 323.491 169.948C324.082 172.365 324.845 174.782 325.441 175.903C326.131 174.778 327.17 172.442 327.866 170.02C328.127 169.242 328.986 168.807 329.757 169.064C330.529 169.234 330.954 170.097 330.694 170.875C328.347 178.4 326.542 179.442 325.427 179.359C325.255 179.36 324.998 179.274 324.827 179.275Z" fill="#E84271"/>
<path d="M310.958 192.713C309.416 192.285 307.969 189.352 306.79 184.086C306.621 183.222 307.139 182.443 307.912 182.268C308.685 182.092 309.455 182.608 309.623 183.385C310.214 185.803 310.976 188.22 311.572 189.427C312.263 188.302 313.302 185.88 313.998 183.458C314.258 182.68 315.118 182.245 315.889 182.502C316.66 182.759 317.086 183.535 316.825 184.313C314.479 191.924 312.673 192.88 311.558 192.883C311.387 192.884 311.13 192.798 310.958 192.713Z" fill="#E84271"/>
<path d="M300.461 178.076C299.093 177.13 298.763 173.849 299.299 168.492C299.388 167.627 300.162 167.107 300.934 167.191C301.791 167.274 302.303 167.964 302.214 168.828C301.947 171.247 301.936 173.839 302.103 175.134C303.135 174.267 304.858 172.361 306.323 170.37C306.841 169.677 307.785 169.501 308.383 170.018C309.067 170.534 309.149 171.398 308.718 172.09C304.062 178.41 302.002 178.762 300.975 178.42C300.803 178.334 300.633 178.162 300.461 178.076Z" fill="#E84271"/>
<path d="M284.697 182.9C283.329 181.868 282.913 178.673 283.535 173.229C283.624 172.451 284.312 171.845 285.17 171.928C285.941 172.012 286.538 172.788 286.449 173.566C286.182 176.071 286.172 178.663 286.338 179.872C287.371 179.091 289.094 177.099 290.559 175.107C290.99 174.501 291.934 174.326 292.619 174.755C293.217 175.272 293.385 176.222 292.868 176.828C288.212 183.235 286.238 183.586 285.211 183.158C284.954 183.072 284.782 182.986 284.697 182.9Z" fill="#E84271"/>
<path d="M286.08 164.555C284.884 163.349 285.069 160.152 286.719 154.877C286.894 154.099 287.753 153.664 288.524 153.921C289.295 154.178 289.721 154.954 289.46 155.732C288.765 158.153 288.24 160.66 288.235 161.956C289.352 161.348 291.417 159.7 293.225 158.053C293.828 157.446 294.771 157.443 295.283 158.047C295.881 158.649 295.792 159.6 295.275 160.12C289.507 165.581 287.448 165.587 286.507 164.985C286.336 164.899 286.165 164.727 286.08 164.555Z" fill="#E84271"/>
<path d="M271.35 157.405C270.155 156.199 270.425 153.002 271.99 147.728C272.164 146.949 273.024 146.515 273.794 146.772C274.565 147.028 274.991 147.804 274.816 148.583C274.035 151.004 273.596 153.511 273.505 154.807C274.622 154.198 276.687 152.551 278.495 150.904C279.098 150.297 280.041 150.294 280.554 150.897C281.151 151.5 281.148 152.45 280.545 152.97C274.777 158.431 272.719 158.438 271.863 157.836C271.606 157.75 271.435 157.578 271.35 157.405Z" fill="#E84271"/>
<path d="M264.873 241.727C263.244 241.3 261.798 238.366 260.618 233.013C260.45 232.236 260.967 231.457 261.74 231.282C262.599 231.106 263.369 231.622 263.537 232.399C264.042 234.817 264.89 237.234 265.487 238.355C266.177 237.229 267.13 234.894 267.912 232.472C268.173 231.693 268.946 231.259 269.717 231.516C270.488 231.772 270.914 232.549 270.74 233.327C268.393 240.851 266.588 241.894 265.473 241.811C265.215 241.812 265.044 241.812 264.873 241.727Z" fill="#E84271"/>
<path d="M203.93 206.223C202.302 205.71 201.027 202.776 200.019 197.423C199.851 196.646 200.369 195.867 201.141 195.691C202 195.516 202.77 196.032 202.852 196.809C203.357 199.313 204.034 201.73 204.629 202.938C205.32 201.813 206.444 199.476 207.226 197.141C207.486 196.363 208.346 195.928 209.117 196.185C209.888 196.442 210.313 197.304 210.053 198.083C207.45 205.521 205.559 206.477 204.53 206.394C204.272 206.395 204.101 206.309 203.93 206.223Z" fill="#D47E3A"/>
<path d="M251.263 168.68C249.636 168.167 248.361 165.147 247.353 159.794C247.185 159.017 247.703 158.237 248.475 158.062C249.334 157.887 250.103 158.489 250.186 159.266C250.691 161.684 251.367 164.187 251.963 165.309C252.654 164.183 253.778 161.847 254.56 159.512C254.82 158.733 255.68 158.299 256.451 158.556C257.222 158.812 257.647 159.675 257.387 160.453C254.784 167.892 252.978 168.848 251.864 168.765C251.606 168.766 251.435 168.68 251.263 168.68Z" fill="#D47E3A"/>
<path d="M259.533 184.272C257.992 183.758 256.631 180.825 255.623 175.471C255.54 174.694 256.058 173.915 256.831 173.74C257.603 173.564 258.373 174.08 258.541 174.944C258.961 177.362 259.723 179.778 260.319 180.986C261.009 179.861 262.134 177.524 262.915 175.189C263.176 174.411 264.035 173.976 264.806 174.233C265.577 174.49 265.917 175.353 265.656 176.131C263.139 183.569 261.248 184.525 260.219 184.442C259.962 184.443 259.705 184.357 259.533 184.272Z" fill="#D47E3A"/>
<path d="M258.755 200.722C257.127 200.296 255.594 197.449 254.157 192.269C253.903 191.406 254.421 190.627 255.194 190.365C255.967 190.19 256.737 190.62 256.991 191.396C257.582 193.814 258.516 196.23 259.198 197.351C259.803 196.226 260.756 193.718 261.367 191.296C261.541 190.518 262.315 190.084 263.172 190.254C263.944 190.424 264.369 191.287 264.194 192.065C262.191 199.675 260.471 200.803 259.355 200.807C259.098 200.808 258.927 200.722 258.755 200.722Z" fill="#D47E3A"/>
<path d="M410.319 174.362C410.061 174.363 409.803 174.19 409.632 173.929C406.04 168.454 394.322 172.496 394.236 172.583C393.806 172.671 393.29 172.499 393.12 171.977C392.95 171.542 393.209 171.106 393.64 170.93C394.243 170.754 406.736 166.362 411.013 172.967C411.355 173.401 411.181 173.924 410.836 174.186C410.663 174.303 410.491 174.362 410.319 174.362Z" fill="white"/>
<path d="M393.971 179.145C393.541 179.147 393.197 178.885 393.113 178.447C393.029 178.01 393.288 177.571 393.719 177.395C395.012 177.128 406.297 174.467 409.642 177.61C410.072 177.871 410.07 178.484 409.724 178.835C409.378 179.187 408.862 179.188 408.519 178.839C406.46 177.006 398.623 177.993 394.143 179.145C394.086 179.145 394.028 179.145 393.971 179.145Z" fill="white"/>
<path d="M9.78456 112.111C9.78456 112.111 4.78841 98.6734 7.28649 99.7932C9.78456 100.827 17.8818 104.962 17.8818 104.962C17.8818 104.962 26.5819 98.9318 27.0988 99.7071C27.6156 100.568 26.4097 111.508 26.4097 111.508C26.4097 111.508 37.0911 117.28 35.1098 118.486C33.1286 119.778 23.3086 120.811 23.3086 120.811C23.3086 120.811 19.6046 134.508 17.8818 133.13C15.2114 131.062 12.7995 122.62 12.7995 122.62C12.7995 122.62 1.60122 122.448 1.94578 120.639C2.29034 118.83 9.78456 112.111 9.78456 112.111Z" fill="#E6C11B"/>
<path d="M451.168 84.172C451.168 84.172 446.172 70.8202 448.67 71.8539C451.168 72.9737 459.179 77.0223 459.179 77.0223C459.179 77.0223 467.879 70.9925 468.482 71.8539C468.999 72.6292 467.707 83.6552 467.707 83.6552C467.707 83.6552 478.389 89.3404 476.493 90.6325C474.512 91.8385 464.692 92.9583 464.692 92.9583C464.692 92.9583 460.988 106.655 459.179 105.276C456.509 103.123 454.183 94.6811 454.183 94.6811C454.183 94.6811 442.899 94.5088 443.329 92.786C443.674 90.9771 451.168 84.172 451.168 84.172Z" fill="#E6C11B"/>
<path d="M147.695 409.324C147.408 409.324 147.15 409.295 146.92 409.238C146.403 409.238 146.059 408.893 146.059 408.376C146.059 407.946 146.489 407.515 146.92 407.515C148.011 407.572 149.102 407.544 150.194 407.429C150.71 407.343 151.141 407.687 151.227 408.118C151.227 408.635 150.969 409.065 150.452 409.065C149.533 409.238 148.614 409.324 147.695 409.324ZM153.725 408.376C153.295 408.376 153.036 408.118 152.864 407.773C152.778 407.257 153.036 406.826 153.467 406.654C154.501 406.366 155.534 405.964 156.568 405.448C156.999 405.275 157.515 405.448 157.688 405.878C157.86 406.309 157.688 406.826 157.257 406.998C156.166 407.515 155.075 407.946 153.984 408.29C153.869 408.348 153.783 408.376 153.725 408.376ZM136.928 406.74C136.813 406.74 136.698 406.711 136.583 406.654C135.55 406.194 134.487 405.706 133.396 405.189C132.965 405.017 132.793 404.5 133.052 404.069C133.224 403.639 133.741 403.466 134.171 403.639C135.205 404.155 136.239 404.615 137.272 405.017C137.703 405.275 137.962 405.706 137.789 406.223C137.617 406.481 137.272 406.74 136.928 406.74ZM143.819 408.721C143.704 408.778 143.589 408.778 143.475 408.721C142.383 408.434 141.292 408.089 140.201 407.687C139.684 407.515 139.512 406.998 139.684 406.567C139.771 406.137 140.287 405.878 140.718 406.051C141.809 406.453 142.9 406.797 143.991 407.084C144.422 407.17 144.681 407.687 144.594 408.118C144.508 408.462 144.164 408.721 143.819 408.721ZM192.833 405.62C191.799 405.62 190.794 405.534 189.818 405.361C189.387 405.275 189.043 404.845 189.129 404.414C189.215 403.897 189.646 403.552 190.163 403.639C191.196 403.868 192.259 403.954 193.35 403.897C193.781 403.897 194.211 404.242 194.297 404.758C194.297 405.189 193.953 405.62 193.436 405.62C193.206 405.62 193.005 405.62 192.833 405.62ZM159.927 405.448C159.669 405.448 159.324 405.275 159.152 405.017C158.894 404.586 159.066 404.069 159.411 403.811C160.387 403.237 161.306 402.605 162.167 401.916C162.512 401.571 163.115 401.657 163.373 402.002C163.718 402.347 163.631 402.949 163.287 403.208C162.311 403.954 161.334 404.644 160.358 405.275C160.243 405.39 160.1 405.448 159.927 405.448ZM196.795 405.103C196.451 405.103 196.106 404.845 195.934 404.5C195.848 403.983 196.193 403.552 196.623 403.466C196.91 403.351 197.197 403.265 197.485 403.208C198.289 402.978 199.035 402.72 199.724 402.433C200.155 402.26 200.672 402.433 200.844 402.863C201.016 403.294 200.844 403.811 200.413 403.983C199.609 404.328 198.805 404.615 198.001 404.845C197.657 404.959 197.341 405.046 197.054 405.103C196.939 405.103 196.853 405.103 196.795 405.103ZM106.003 404.931C105.831 404.931 105.63 404.902 105.401 404.845H104.97C104.453 404.845 104.108 404.414 104.108 403.983C104.108 403.466 104.625 403.122 105.056 403.122H105.487C106.405 403.179 107.353 403.15 108.329 403.036C108.76 402.949 109.191 403.294 109.277 403.811C109.363 404.242 109.018 404.672 108.502 404.758C107.698 404.873 106.865 404.931 106.003 404.931ZM101.61 404.5C101.553 404.5 101.495 404.471 101.438 404.414C100.232 404.242 99.0835 403.954 97.9924 403.552C97.4756 403.38 97.3033 402.863 97.4756 402.433C97.5617 402.002 98.0786 401.744 98.5093 401.916C99.543 402.26 100.605 402.547 101.696 402.777C102.213 402.863 102.472 403.294 102.386 403.725C102.299 404.155 101.955 404.5 101.61 404.5ZM186.631 404.5C186.573 404.5 186.487 404.471 186.372 404.414C185.281 404.012 184.19 403.495 183.099 402.863C182.755 402.605 182.582 402.088 182.841 401.657C183.099 401.227 183.616 401.141 184.047 401.399C185.023 401.973 185.999 402.433 186.975 402.777C187.406 402.949 187.665 403.466 187.492 403.897C187.32 404.242 186.975 404.5 186.631 404.5ZM111.775 403.983C111.43 403.983 111.086 403.811 111 403.38C110.827 402.949 111.086 402.433 111.516 402.347C112.55 402.002 113.584 401.6 114.618 401.141C115.048 400.882 115.565 401.054 115.737 401.485C115.996 401.916 115.824 402.433 115.393 402.605C114.302 403.179 113.182 403.639 112.033 403.983C111.976 403.983 111.89 403.983 111.775 403.983ZM130.812 403.639C130.64 403.639 130.496 403.581 130.381 403.466C129.348 402.892 128.371 402.26 127.452 401.571C127.022 401.313 126.936 400.71 127.194 400.365C127.539 399.935 128.055 399.848 128.4 400.193C129.319 400.825 130.266 401.428 131.243 402.002C131.673 402.26 131.759 402.777 131.501 403.208C131.415 403.466 131.07 403.639 130.812 403.639ZM203.17 402.519C202.825 402.519 202.567 402.347 202.395 402.088C202.136 401.657 202.308 401.141 202.653 400.882C203.572 400.308 204.491 399.676 205.41 398.987C205.754 398.642 206.271 398.729 206.615 399.073C206.874 399.418 206.874 400.021 206.443 400.279C205.524 401.083 204.577 401.772 203.601 402.347C203.428 402.461 203.285 402.519 203.17 402.519ZM95.1498 402.174C94.9775 402.174 94.834 402.117 94.7191 402.002C93.6854 401.428 92.6804 400.767 91.7042 400.021C91.3596 399.762 91.2735 399.245 91.618 398.815C91.8765 398.47 92.3933 398.384 92.824 398.729C93.6854 399.418 94.6042 400.021 95.5805 400.538C95.9251 400.796 96.0973 401.313 95.8389 401.744C95.7528 402.002 95.4082 402.174 95.1498 402.174ZM165.354 401.141C165.096 401.141 164.837 401.054 164.665 400.882C164.321 400.538 164.407 400.021 164.751 399.676C165.555 398.872 166.33 398.068 167.077 397.264C167.335 396.834 167.938 396.834 168.283 397.178C168.628 397.436 168.628 398.04 168.369 398.384C167.565 399.245 166.732 400.078 165.871 400.882C165.699 401.054 165.527 401.141 165.354 401.141ZM117.977 400.968C117.632 400.968 117.374 400.882 117.202 400.624C116.943 400.193 117.029 399.676 117.46 399.418C118.379 398.786 119.24 398.097 120.044 397.35C120.475 397.006 120.992 397.092 121.336 397.437C121.595 397.781 121.595 398.298 121.25 398.642C120.332 399.446 119.384 400.164 118.408 400.796C118.293 400.911 118.149 400.968 117.977 400.968ZM180.773 400.968C180.544 400.968 180.343 400.911 180.17 400.796C179.309 400.049 178.448 399.245 177.586 398.384C177.242 398.04 177.242 397.523 177.586 397.178C177.931 396.834 178.534 396.834 178.878 397.178C179.625 397.982 180.429 398.729 181.29 399.418C181.635 399.762 181.721 400.279 181.463 400.71C181.29 400.882 181.032 400.968 180.773 400.968ZM125.213 399.59C124.983 399.59 124.782 399.533 124.61 399.418C123.748 398.614 122.916 397.81 122.112 397.006C121.767 396.661 121.767 396.144 122.112 395.8C122.112 395.742 122.14 395.685 122.198 395.628C122.198 395.455 122.284 395.197 122.456 394.938C123.203 394.134 123.892 393.273 124.524 392.354C124.782 391.924 125.299 391.837 125.73 392.096C126.074 392.44 126.16 392.957 125.902 393.302C125.213 394.278 124.495 395.226 123.748 396.144C123.691 396.144 123.662 396.144 123.662 396.144C124.351 396.834 125.041 397.494 125.73 398.126C126.16 398.384 126.16 398.901 125.902 399.332C125.73 399.504 125.471 399.59 125.213 399.59ZM208.424 398.126C208.195 398.126 207.994 398.039 207.821 397.867C207.477 397.523 207.477 397.006 207.735 396.661C208.424 395.886 209.2 395.025 209.889 394.077C210.233 393.732 210.75 393.646 211.095 393.905C211.526 394.163 211.612 394.766 211.267 395.111C210.492 396.144 209.803 397.006 209.027 397.781C208.855 398.039 208.597 398.126 208.424 398.126ZM89.723 397.867C89.5507 397.867 89.2923 397.781 89.12 397.609C88.316 396.747 87.5694 395.829 86.8803 394.852C86.6219 394.508 86.708 393.905 87.0526 393.646C87.4833 393.388 88.0001 393.474 88.2586 393.819C88.9477 394.795 89.6655 395.685 90.4121 396.489C90.6705 396.834 90.6705 397.35 90.3259 397.695C90.1537 397.81 89.9527 397.867 89.723 397.867ZM175.95 396.058C175.691 396.058 175.433 395.886 175.347 395.714C174.6 394.737 173.94 393.761 173.365 392.785C173.107 392.354 173.193 391.837 173.624 391.579C174.054 391.321 174.571 391.493 174.83 391.837C175.404 392.814 176.007 393.761 176.639 394.68C176.983 395.025 176.897 395.541 176.552 395.886C176.38 396.001 176.179 396.058 175.95 396.058ZM169.92 395.972C169.69 395.972 169.518 395.915 169.403 395.8C168.972 395.541 168.886 395.025 169.231 394.594C169.862 393.675 170.494 392.756 171.126 391.837C171.384 391.407 171.901 391.321 172.332 391.579C172.676 391.837 172.848 392.354 172.59 392.785C171.958 393.761 171.298 394.709 170.609 395.628C170.437 395.886 170.178 395.972 169.92 395.972ZM120.389 394.68C120.131 394.68 119.872 394.594 119.7 394.335C118.953 393.359 118.293 392.383 117.719 391.407C117.46 390.976 117.632 390.459 118.063 390.201C118.408 390.028 118.925 390.115 119.183 390.545C119.7 391.464 120.332 392.383 121.078 393.302C121.336 393.646 121.336 394.163 120.906 394.508C120.791 394.623 120.619 394.68 120.389 394.68ZM212.645 392.699C212.473 392.699 212.301 392.641 212.128 392.526C211.784 392.268 211.698 391.665 211.956 391.321L212.128 391.062C212.76 390.143 213.363 389.282 213.937 388.478C214.282 388.133 214.799 388.047 215.143 388.306C215.574 388.65 215.66 389.167 215.316 389.512C214.741 390.316 214.138 391.148 213.507 392.01L213.334 392.268C213.162 392.527 212.904 392.699 212.645 392.699ZM85.7605 392.268C85.4159 392.268 85.1575 392.096 84.9852 391.837C84.4684 390.804 83.9803 389.741 83.5208 388.65C83.2624 388.219 83.5208 387.703 83.9515 387.53C84.3822 387.358 84.8991 387.53 85.0714 387.961C85.5308 389.052 86.0189 390.057 86.5358 390.976C86.708 391.407 86.6219 391.924 86.1912 392.182C86.0189 392.239 85.8753 392.268 85.7605 392.268ZM127.022 390.718C126.849 390.718 126.706 390.689 126.591 390.631C126.16 390.459 125.988 389.942 126.246 389.512C126.763 388.478 127.194 387.473 127.539 386.497C127.711 385.98 128.228 385.808 128.658 385.894C129.089 386.066 129.348 386.583 129.175 387.014C128.831 388.105 128.371 389.196 127.797 390.287C127.625 390.631 127.28 390.718 127.022 390.718ZM173.538 390.201C173.423 390.201 173.308 390.143 173.193 390.028C173.078 390.028 173.021 390 173.021 389.942C172.963 390 172.906 390.028 172.848 390.028C172.418 390.201 171.901 390.028 171.642 389.598C171.126 388.449 170.724 387.329 170.437 386.238C170.35 385.808 170.609 385.291 171.04 385.205C171.556 385.032 171.987 385.291 172.159 385.808C172.389 386.612 172.676 387.473 173.021 388.392C173.48 387.53 173.853 386.669 174.141 385.808C174.313 385.377 174.83 385.205 175.26 385.377C175.691 385.463 175.95 385.98 175.777 386.411C175.375 387.502 174.887 388.593 174.313 389.684C174.141 390.028 173.882 390.201 173.538 390.201ZM117.029 388.736C116.599 388.736 116.34 388.478 116.168 388.133C115.766 386.87 115.565 385.664 115.565 384.515C115.565 383.999 115.91 383.654 116.426 383.654C116.857 383.654 117.288 383.999 117.288 384.515C117.288 385.434 117.46 386.468 117.805 387.617C117.977 388.047 117.719 388.478 117.288 388.65C117.173 388.708 117.087 388.736 117.029 388.736ZM216.866 387.272C216.637 387.272 216.436 387.186 216.263 387.014C215.919 386.669 215.919 386.152 216.263 385.808C217.297 384.86 218.244 384.085 219.192 383.568C219.623 383.309 220.14 383.482 220.398 383.912C220.656 384.343 220.484 384.86 220.053 385.118C219.192 385.549 218.331 386.152 217.469 387.014C217.297 387.186 217.096 387.272 216.866 387.272ZM232.716 386.927C232.601 386.927 232.486 386.899 232.371 386.841C231.28 386.267 230.247 385.779 229.27 385.377C228.84 385.205 228.667 384.774 228.84 384.257C229.012 383.826 229.529 383.654 229.96 383.826C230.936 384.228 231.998 384.716 233.147 385.291C233.577 385.463 233.75 385.98 233.491 386.411C233.319 386.755 233.061 386.927 232.716 386.927ZM83.0901 385.894C82.7456 385.894 82.401 385.721 82.3149 385.291C81.6258 383.223 81.4535 381.931 81.4535 381.845C81.3673 381.328 81.7119 380.898 82.1426 380.811C82.5733 380.811 83.0901 381.07 83.0901 381.587C83.0901 381.587 83.3486 382.879 83.9515 384.774C84.0377 385.291 83.7793 385.721 83.3486 385.894C83.2911 385.894 83.205 385.894 83.0901 385.894ZM226.342 384.429C226.284 384.429 226.227 384.429 226.169 384.429C225.021 384.2 223.958 384.142 222.982 384.257C222.465 384.257 222.121 383.912 222.035 383.482C222.035 382.965 222.379 382.534 222.81 382.534C223.93 382.448 225.222 382.534 226.514 382.793C226.945 382.879 227.289 383.309 227.203 383.74C227.117 384.171 226.686 384.429 226.342 384.429ZM129.175 384.257C129.118 384.257 129.089 384.257 129.089 384.257C128.572 384.171 128.228 383.74 128.314 383.309C128.371 382.965 128.4 382.649 128.4 382.362C128.4 381.558 128.285 380.869 128.055 380.295C127.883 379.864 128.055 379.347 128.486 379.175C129.003 379.002 129.434 379.261 129.606 379.692C129.951 380.438 130.123 381.328 130.123 382.362C130.123 382.707 130.094 383.08 130.037 383.482C129.951 383.912 129.606 384.257 129.175 384.257ZM175.863 383.654C175.806 383.654 175.749 383.654 175.691 383.654C175.26 383.568 174.916 383.137 175.002 382.706C175.059 382.362 175.088 382.046 175.088 381.759C175.088 380.984 174.916 380.467 174.571 380.122C174.227 379.778 174.227 379.261 174.571 378.916C174.916 378.572 175.519 378.572 175.777 378.916C176.409 379.548 176.753 380.496 176.811 381.759C176.811 382.104 176.782 382.505 176.725 382.965C176.639 383.396 176.294 383.654 175.863 383.654ZM170.781 383.482C170.35 383.482 169.92 383.051 169.92 382.62C170.006 380.898 170.523 379.605 171.47 378.83C171.901 378.572 172.418 378.572 172.676 379.002C173.021 379.347 172.935 379.95 172.504 380.208C171.815 380.725 171.642 381.845 171.642 382.62C171.642 383.137 171.298 383.482 170.781 383.482ZM117.288 382.017C117.116 382.017 116.943 381.989 116.771 381.931C116.426 381.673 116.254 381.156 116.513 380.725C117.144 379.692 118.092 378.83 119.355 378.141C119.786 377.883 120.303 378.055 120.475 378.486C120.734 378.916 120.561 379.433 120.131 379.605C119.212 380.18 118.494 380.869 117.977 381.673C117.805 381.931 117.546 382.017 117.288 382.017ZM126.419 378.572C126.304 378.572 126.218 378.572 126.16 378.572C125.73 378.486 125.385 378.399 124.782 378.399C124.323 378.399 123.777 378.457 123.145 378.572C122.715 378.658 122.198 378.399 122.112 377.883C122.026 377.452 122.37 377.021 122.801 376.935C123.49 376.763 124.265 376.677 124.868 376.677C125.5 376.677 126.103 376.763 126.677 376.935C127.108 377.021 127.366 377.538 127.194 377.969C127.108 378.399 126.763 378.572 126.419 378.572Z" fill="#261D2A"/>
<path d="M414.989 335.271C414.932 335.271 414.874 335.271 414.817 335.271C414.386 335.099 414.042 334.668 414.128 334.238C414.415 333.032 414.731 331.883 415.075 330.792C415.248 330.361 415.678 330.103 416.109 330.275C416.626 330.361 416.884 330.878 416.712 331.309C416.367 332.343 416.08 333.434 415.851 334.582C415.764 335.013 415.42 335.271 414.989 335.271ZM417.229 328.811C417.057 328.811 416.913 328.753 416.798 328.638C416.367 328.466 416.195 327.949 416.454 327.519C416.97 326.428 417.602 325.423 418.349 324.504C418.693 324.159 419.21 324.073 419.555 324.331C419.899 324.676 419.985 325.193 419.727 325.537C419.038 326.399 418.435 327.318 417.918 328.294C417.832 328.638 417.487 328.811 417.229 328.811ZM421.45 323.47C421.191 323.47 420.933 323.384 420.761 323.125C420.502 322.781 420.502 322.264 420.933 321.92C421.852 321.23 422.857 320.599 423.948 320.024C424.379 319.852 424.895 320.024 425.154 320.455C425.326 320.886 425.154 321.403 424.723 321.575C423.747 322.092 422.828 322.666 421.967 323.298C421.794 323.413 421.622 323.47 421.45 323.47ZM427.566 320.455C427.221 320.455 426.877 320.283 426.79 319.852C426.618 319.421 426.877 318.905 427.307 318.818C428.398 318.531 429.576 318.273 430.839 318.043C431.27 318.043 431.7 318.302 431.787 318.818C431.873 319.249 431.528 319.68 431.097 319.766C429.891 319.938 428.8 320.168 427.824 320.455C427.709 320.455 427.623 320.455 427.566 320.455ZM434.371 319.421C433.94 319.421 433.509 319.077 433.509 318.646C433.509 318.129 433.854 317.785 434.285 317.699C435.491 317.641 436.668 317.613 437.816 317.613C438.247 317.613 438.678 317.957 438.678 318.388C438.678 318.905 438.333 319.249 437.816 319.335C436.668 319.335 435.548 319.364 434.457 319.421C434.4 319.421 434.371 319.421 434.371 319.421ZM441.262 319.249C440.831 319.249 440.401 318.905 440.401 318.388C440.401 317.957 440.831 317.526 441.262 317.526C442.411 317.526 443.559 317.498 444.708 317.44C445.224 317.526 445.569 317.785 445.569 318.302C445.569 318.732 445.224 319.163 444.794 319.163C443.645 319.22 442.468 319.249 441.262 319.249ZM448.153 318.991C447.723 318.991 447.378 318.646 447.292 318.216C447.292 317.699 447.636 317.268 448.067 317.268C449.359 317.096 450.393 317.01 451.427 316.751C451.857 316.665 452.288 317.01 452.46 317.44C452.546 317.871 452.202 318.388 451.771 318.474C450.737 318.646 449.532 318.818 448.239 318.991C448.239 318.991 448.211 318.991 448.153 318.991ZM454.872 317.44C454.528 317.44 454.183 317.268 454.097 316.923C453.925 316.493 454.097 315.976 454.528 315.804C455.561 315.402 456.48 314.885 457.284 314.253C457.629 313.908 458.232 313.995 458.49 314.339C458.835 314.77 458.749 315.287 458.318 315.545C457.399 316.292 456.365 316.923 455.217 317.44C455.102 317.44 454.987 317.44 454.872 317.44ZM460.127 313.305C459.955 313.305 459.811 313.248 459.696 313.133C459.265 312.875 459.179 312.358 459.438 311.927C460.012 311.123 460.5 310.176 460.902 309.085C461.074 308.654 461.591 308.395 462.022 308.568C462.453 308.74 462.711 309.257 462.539 309.688C462.079 310.894 461.534 311.956 460.902 312.875C460.73 313.133 460.471 313.305 460.127 313.305ZM462.625 306.931C462.567 306.931 462.51 306.931 462.453 306.931C462.022 306.845 461.677 306.414 461.763 305.897C461.993 304.806 462.165 303.715 462.28 302.624C462.366 302.107 462.797 301.763 463.228 301.849C463.745 301.849 464.089 302.28 464.003 302.796C463.888 303.945 463.716 305.093 463.486 306.242C463.4 306.673 463.056 306.931 462.625 306.931ZM463.314 300.04C462.883 300.04 462.453 299.695 462.453 299.265C462.453 298.059 462.453 296.939 462.366 295.905C462.28 295.388 462.625 294.958 463.142 294.958C463.572 294.958 464.003 295.216 464.003 295.733C464.118 296.881 464.175 298.001 464.175 299.092C464.175 299.609 463.831 300.04 463.314 300.04ZM462.711 293.235C462.28 293.235 461.936 292.976 461.85 292.546C461.62 291.455 461.361 290.363 461.074 289.272C460.902 288.842 461.16 288.325 461.677 288.239C462.108 288.066 462.539 288.325 462.711 288.842C463.056 289.933 463.343 291.053 463.572 292.201C463.659 292.718 463.314 293.149 462.883 293.235C462.826 293.235 462.768 293.235 462.711 293.235ZM460.73 286.688C460.385 286.688 460.127 286.43 459.955 286.085C459.553 285.051 459.093 284.046 458.576 283.07C458.318 282.639 458.49 282.123 458.921 281.864C459.352 281.692 459.868 281.864 460.041 282.295C460.615 283.329 461.132 284.391 461.591 285.482C461.763 285.913 461.505 286.43 461.074 286.602C460.959 286.659 460.845 286.688 460.73 286.688ZM440.056 281.261C437.472 281.261 436.869 279.969 436.697 279.194C436.524 278.677 436.869 278.246 437.3 278.16C437.816 278.074 438.247 278.332 438.333 278.849C438.506 279.452 439.367 279.538 440.056 279.538H440.314C440.745 279.538 441.176 279.883 441.176 280.4C441.176 280.831 440.831 281.261 440.401 281.261H440.056ZM443.674 280.572C443.243 280.572 442.899 280.4 442.813 279.969C442.64 279.538 442.899 279.108 443.416 278.935C444.392 278.648 445.425 278.246 446.517 277.73C446.947 277.557 447.464 277.73 447.636 278.16C447.809 278.591 447.636 279.108 447.206 279.28C446.057 279.797 444.966 280.228 443.932 280.572C443.818 280.63 443.731 280.63 443.674 280.572ZM457.543 280.572C457.198 280.572 456.94 280.4 456.767 280.141C456.136 279.223 455.475 278.332 454.786 277.471C454.442 277.127 454.528 276.61 454.872 276.265C455.217 276.007 455.734 276.007 456.078 276.351C456.825 277.27 457.543 278.218 458.232 279.194C458.49 279.625 458.404 280.141 457.973 280.4C457.801 280.515 457.657 280.572 457.543 280.572ZM449.962 277.816C449.618 277.816 449.359 277.643 449.187 277.385C448.929 276.954 449.101 276.437 449.532 276.179C450.335 275.72 451.111 275.231 451.857 274.715C451.168 274.14 450.479 273.652 449.79 273.25C449.359 273.078 449.187 272.561 449.445 272.13C449.618 271.7 450.134 271.527 450.565 271.786C451.599 272.36 452.604 273.049 453.58 273.853C453.925 274.112 453.925 274.628 453.666 275.059C453.666 275.318 453.58 275.576 453.322 275.748C452.345 276.437 451.369 277.069 450.393 277.643C450.221 277.758 450.077 277.816 449.962 277.816ZM438.419 276.61C438.247 276.61 438.104 276.581 437.989 276.524C437.558 276.265 437.472 275.748 437.73 275.318C437.96 274.916 438.247 274.485 438.592 274.025C438.994 273.451 439.453 272.934 439.97 272.475C440.314 272.13 440.917 272.13 441.176 272.561C441.52 272.906 441.52 273.422 441.176 273.767C440.716 274.112 440.314 274.542 439.97 275.059C439.625 275.461 439.367 275.863 439.195 276.265C439.022 276.524 438.678 276.61 438.419 276.61ZM455.561 273.853C455.303 273.853 455.045 273.767 454.872 273.509C454.614 273.164 454.7 272.647 455.044 272.303C455.906 271.614 456.739 270.867 457.543 270.063C457.887 269.718 458.404 269.718 458.749 270.063C459.093 270.408 459.093 270.924 458.749 271.269C457.887 272.13 457.026 272.934 456.164 273.681C455.992 273.796 455.791 273.853 455.561 273.853ZM443.588 272.303C443.157 272.303 442.813 272.044 442.726 271.7C442.64 271.183 442.899 270.752 443.329 270.58C444.535 270.235 445.827 270.235 447.12 270.494C447.636 270.58 447.895 271.011 447.809 271.527C447.723 271.958 447.292 272.303 446.775 272.216C445.741 271.987 444.736 272.016 443.76 272.303C443.703 272.303 443.645 272.303 443.588 272.303ZM460.471 269.029C460.242 269.029 460.069 268.943 459.955 268.771C459.524 268.512 459.524 267.996 459.782 267.565C460.529 266.704 461.218 265.813 461.85 264.895C462.108 264.55 462.625 264.464 463.056 264.722C463.4 264.981 463.486 265.498 463.228 265.842C462.596 266.818 461.907 267.766 461.16 268.685C460.988 268.943 460.73 269.029 460.471 269.029ZM464.262 263.258C464.147 263.258 464.032 263.229 463.917 263.172C463.486 262.999 463.314 262.483 463.486 262.052L463.745 261.621C464.147 260.76 464.463 259.898 464.692 259.037C464.778 258.52 465.295 258.262 465.726 258.348C466.157 258.52 466.501 258.951 466.329 259.468C466.099 260.444 465.755 261.392 465.295 262.31L465.037 262.827C464.951 263.086 464.606 263.258 464.262 263.258ZM465.984 256.711C465.467 256.625 465.123 256.281 465.123 255.764V255.505C465.123 254.529 465.037 253.524 464.865 252.49C464.778 252.06 465.037 251.629 465.554 251.543C465.984 251.457 466.415 251.801 466.501 252.232C466.731 253.38 466.846 254.472 466.846 255.505V255.85C466.846 256.281 466.415 256.711 465.984 256.711ZM464.865 249.906C464.434 249.906 464.089 249.648 464.003 249.303C463.659 248.269 463.228 247.265 462.711 246.288C462.539 245.858 462.711 245.341 463.142 245.082C463.572 244.91 464.089 245.082 464.262 245.513C464.836 246.604 465.295 247.695 465.64 248.786C465.812 249.217 465.554 249.734 465.123 249.906C465.008 249.906 464.922 249.906 464.865 249.906ZM461.85 243.704C461.505 243.704 461.247 243.618 461.074 243.273C460.5 242.355 459.868 241.436 459.179 240.517C458.921 240.172 458.921 239.655 459.352 239.311C459.696 239.052 460.299 239.139 460.557 239.483C461.304 240.459 461.964 241.436 462.539 242.412C462.797 242.843 462.711 243.359 462.28 243.618C462.165 243.675 462.022 243.704 461.85 243.704ZM433.94 238.449C433.883 238.449 433.854 238.421 433.854 238.363C432.074 238.134 430.868 237.531 430.236 236.554C429.978 236.124 430.15 235.607 430.494 235.348C430.925 235.09 431.442 235.262 431.7 235.607C432.045 236.124 432.82 236.554 434.026 236.727C434.543 236.727 434.888 237.157 434.801 237.674C434.715 238.105 434.371 238.449 433.94 238.449ZM437.386 238.363C436.955 238.363 436.61 238.019 436.524 237.588C436.438 237.157 436.783 236.727 437.3 236.641C438.333 236.526 439.424 236.325 440.573 236.038C441.004 235.951 441.52 236.21 441.607 236.641C441.693 237.157 441.434 237.588 441.004 237.76C439.74 238.047 438.563 238.248 437.472 238.363C437.472 238.363 437.443 238.363 437.386 238.363ZM457.629 238.277C457.37 238.277 457.198 238.191 457.026 238.019C456.222 237.157 455.418 236.353 454.614 235.607C454.269 235.262 454.269 234.745 454.528 234.401C454.872 234.056 455.389 234.056 455.734 234.315C456.595 235.119 457.428 235.951 458.232 236.813C458.576 237.157 458.576 237.674 458.232 238.019C458.059 238.191 457.858 238.277 457.629 238.277ZM444.105 236.727C443.674 236.727 443.416 236.468 443.243 236.124C443.071 235.693 443.329 235.176 443.76 235.09C444.794 234.688 445.827 234.229 446.861 233.712C447.292 233.539 447.809 233.712 447.981 234.142C448.239 234.573 448.067 235.09 447.636 235.262C446.545 235.779 445.454 236.239 444.363 236.641C444.248 236.698 444.162 236.727 444.105 236.727ZM450.307 233.712C449.962 233.712 449.704 233.626 449.532 233.367C449.273 232.936 449.445 232.42 449.79 232.161C449.847 232.104 449.905 232.075 449.962 232.075C449.732 231.903 449.474 231.759 449.187 231.644C448.842 231.386 448.67 230.869 448.929 230.438C449.187 230.008 449.704 229.922 450.134 230.094C450.594 230.381 451.053 230.697 451.513 231.041C451.915 230.812 452.288 230.553 452.633 230.266C452.977 230.008 453.58 230.094 453.839 230.438C454.097 230.869 454.011 231.386 453.666 231.644C453.437 231.817 453.236 231.96 453.063 232.075C453.408 232.42 453.494 232.936 453.236 233.281C452.891 233.712 452.374 233.798 452.03 233.453C451.857 233.338 451.685 233.224 451.513 233.109C451.283 233.281 451.025 233.453 450.737 233.626C450.565 233.683 450.422 233.712 450.307 233.712ZM431.442 233.712C431.27 233.712 431.097 233.654 430.925 233.539C430.581 233.281 430.408 232.764 430.667 232.42C431.011 231.788 431.499 231.128 432.131 230.438C432.418 230.094 432.705 229.778 432.993 229.491C433.337 229.232 433.94 229.232 434.199 229.577C434.543 229.922 434.543 230.525 434.199 230.783C433.911 231.013 433.653 231.271 433.423 231.558C432.906 232.19 432.476 232.764 432.131 233.281C431.959 233.539 431.7 233.712 431.442 233.712ZM446.603 230.18C446.488 230.18 446.373 230.151 446.258 230.094C445.167 229.634 444.133 229.29 443.157 229.06C442.64 228.974 442.382 228.457 442.468 228.026C442.554 227.596 443.071 227.251 443.502 227.423C444.593 227.653 445.741 228.026 446.947 228.543C447.378 228.716 447.55 229.232 447.378 229.663C447.206 230.008 446.947 230.18 446.603 230.18ZM455.82 229.577C455.561 229.577 455.303 229.491 455.131 229.319C454.786 228.974 454.872 228.457 455.217 228.113C456.021 227.309 456.767 226.505 457.456 225.701C457.801 225.356 458.318 225.27 458.662 225.528C459.007 225.873 459.093 226.39 458.835 226.821C458.088 227.682 457.255 228.543 456.337 229.405C456.164 229.52 455.992 229.577 455.82 229.577ZM436.524 229.319C436.18 229.319 435.835 229.06 435.749 228.716C435.577 228.285 435.749 227.768 436.266 227.596C437.357 227.194 438.563 226.993 439.884 226.993C440.314 226.993 440.745 227.337 440.745 227.854C440.745 228.285 440.401 228.716 439.884 228.716C438.793 228.716 437.759 228.888 436.783 229.232C436.725 229.29 436.639 229.319 436.524 229.319ZM460.127 224.322C459.955 224.322 459.811 224.265 459.696 224.15C459.265 223.892 459.093 223.375 459.352 222.944C459.926 222.025 460.414 221.049 460.816 220.015C460.988 219.585 461.505 219.326 461.936 219.499C462.366 219.671 462.625 220.188 462.453 220.618C461.993 221.767 461.448 222.858 460.816 223.892C460.73 224.15 460.385 224.322 460.127 224.322ZM462.625 217.862C462.567 217.862 462.51 217.862 462.453 217.862C461.936 217.776 461.677 217.345 461.763 216.828C462.051 215.737 462.223 214.646 462.28 213.555C462.366 213.124 462.711 212.78 463.228 212.78C463.745 212.78 464.089 213.21 464.003 213.727C463.946 214.876 463.773 216.053 463.486 217.259C463.4 217.603 463.056 217.862 462.625 217.862ZM463.142 211.057C462.711 211.057 462.366 210.712 462.28 210.282C462.223 209.19 462.022 208.128 461.677 207.094C461.591 206.578 461.85 206.147 462.28 205.975C462.797 205.888 463.228 206.147 463.4 206.578C463.687 207.726 463.888 208.903 464.003 210.109C464.089 210.626 463.745 211.057 463.228 211.057C463.228 211.057 463.199 211.057 463.142 211.057ZM461.247 204.51C460.988 204.51 460.644 204.338 460.471 203.993C460.012 203.074 459.438 202.156 458.749 201.237C458.404 200.892 458.49 200.375 458.921 200.031C459.265 199.772 459.782 199.859 460.127 200.203C460.873 201.179 461.505 202.184 462.022 203.218C462.28 203.649 462.108 204.166 461.677 204.424C461.562 204.481 461.419 204.51 461.247 204.51ZM457.026 199.083C456.853 199.083 456.681 198.997 456.509 198.825C455.705 198.136 454.815 197.475 453.839 196.844C453.494 196.499 453.408 195.982 453.666 195.638C453.925 195.207 454.442 195.121 454.872 195.379C455.848 196.068 456.767 196.815 457.629 197.619C457.973 197.877 458.059 198.48 457.715 198.825C457.543 198.997 457.284 199.083 457.026 199.083ZM451.34 195.207C451.226 195.207 451.111 195.178 450.996 195.121C449.187 194.259 447.981 193.829 447.981 193.829C447.464 193.656 447.206 193.226 447.378 192.709C447.55 192.278 447.981 192.02 448.412 192.192C448.498 192.192 449.876 192.623 451.771 193.57C452.202 193.829 452.374 194.346 452.116 194.776C452.03 195.035 451.685 195.207 451.34 195.207Z" fill="#261D2A"/>
</svg>
