<svg width="666" height="263" viewBox="0 0 666 263" fill="none" xmlns="http://www.w3.org/2000/svg">
<path d="M263.496 235.179C263.184 235.257 262.482 235.023 262.17 235.179C260.506 235.907 258.841 236.609 257.177 237.286C245.63 242.045 233.927 245.946 222.068 248.988C196.634 255.542 170.653 258.195 144.517 257.18C116.43 256.166 88.1089 250.861 60.4121 241.655C47.0707 237.208 33.8855 231.902 20.9343 225.739C20.8822 225.739 20.8302 225.713 20.7782 225.661L15.4729 216.688C15.707 217.157 22.4946 232.37 22.4946 232.37C62.6746 256.868 172.526 282.069 257.567 241.108C257.567 241.108 263.652 235.023 263.496 235.179Z" fill="#F5AD01"/>
<path fill-rule="evenodd" clip-rule="evenodd" d="M285.03 182.984C282.689 194.921 278.866 206.312 273.639 216.923C271.299 220.355 269.348 223.866 267.398 227.533C266.929 228.469 262.95 235.725 262.482 236.584C262.482 236.584 262.456 236.61 262.404 236.662C262.404 236.662 262.378 236.662 262.326 236.662C262.014 236.818 261.728 236.974 261.468 237.13C261.676 236.505 261.91 235.855 262.17 235.179C263.367 231.798 264.485 228.443 265.525 225.115L261.702 223.944C260.298 228.313 258.815 232.839 257.177 237.286C256.969 237.806 256.787 238.3 256.631 238.768L257.021 238.924L257.411 239.08C250.701 242.201 245.084 243.995 239.779 245.322C233.537 246.882 227.92 247.74 221.756 249.301C221.86 249.197 221.964 249.093 222.068 248.989C272.235 185.169 260.376 110.348 226.827 86.9423C225.995 86.3182 225.137 85.7461 224.253 85.226L226.359 84.6798C225.111 79.6865 223.629 74.8494 222.068 70.0902L218.245 71.4165C219.65 75.4735 220.898 79.6865 222.068 83.8996C196.088 70.3242 165.738 92.9499 155.83 119.945C154.972 122.207 153.489 124.158 151.617 125.484C149.744 126.81 147.482 127.512 145.063 127.434C140.226 127.2 136.247 123.846 134.921 119.164C133.204 113.235 130.552 107.461 127.197 102.156C127.301 101.428 127.405 100.7 127.509 99.9715L125.558 99.6595C113.309 81.9491 92.8683 70.1682 73.1294 77.658L71.1789 76.8778C70.9708 77.502 70.7368 78.1262 70.4767 78.7503C69.1764 79.3745 67.8501 80.1027 66.4977 80.9349C30.9209 102 13.0545 172.374 60.5682 240.562C61.0364 241.187 60.8803 241.577 60.4122 241.655C55.9651 242.435 21.4025 226.909 20.9344 225.739C16.3313 220.121 11.8061 208.262 10.7919 206.78C10.7919 206.728 10.7659 206.676 10.7139 206.624C10.2458 205.298 9.69963 203.893 9.30953 202.567C6.96895 196.247 5.17451 189.85 3.84818 183.218C-10.8975 135.392 18.0477 67.2034 68.2141 36.3078L69.5405 37.8681C72.1931 35.5276 75.0018 33.2651 77.9666 31.0025C95.755 22.2643 115.806 18.1293 137.183 20.938L132.112 19.7677L121.891 17.4271C119.473 16.881 117.756 15.3206 116.82 13.4481C115.104 10.0933 115.806 5.64615 119.239 3.14953C125.246 -1.14154 131.8 -1.68769 141.162 5.56811C145.921 8.61086 149.978 11.6536 153.177 14.4623C156.766 10.4053 162.071 6.73845 170.107 4.16382C177.987 0.808983 183.917 1.04302 189.534 5.8022C190.21 6.37435 190.757 6.99852 191.173 7.67469C194.137 12.1998 191.719 18.9095 185.945 19.7677L175.335 21.4061L172.526 21.8742C188.91 22.8104 204.046 27.7257 217.621 35.3716L216.373 37.1659L229.402 46.2163L230.884 44.1097C235.019 47.3085 239.077 50.8194 242.821 54.5643L241.495 55.8906C245.084 59.4015 248.517 63.3805 251.56 67.6716L253.588 66.2672C256.943 70.4022 260.064 74.7713 263.028 79.2184L259.596 80.9349C263.341 88.3467 266.383 96.5387 268.724 105.277L272.625 104.263C270.362 95.7585 267.398 87.8006 263.887 80.5448C264.875 82.1052 265.837 83.7175 266.773 85.382C266.825 85.434 266.877 85.4859 266.929 85.538C284.952 116.434 292.286 153.181 285.03 182.984ZM261.468 237.13C261.078 238.144 257.411 239.08 257.411 239.08C258.347 238.664 259.31 238.222 260.298 237.754C260.662 237.546 261.052 237.338 261.468 237.13ZM17.8136 120.569L21.7146 121.193C22.5728 116.356 23.5871 111.518 24.8354 106.837L21.0124 105.745C19.6861 110.582 18.5938 115.575 17.8136 120.569ZM20.2322 160.437C19.7641 153.649 19.6081 146.939 19.8421 140.464C19.8942 138.955 19.9722 137.421 20.0762 135.86L16.0972 135.626C15.9932 137.187 15.9152 138.747 15.8632 140.308C15.6291 146.939 15.7071 153.805 16.2533 160.749L20.2322 160.437ZM24.2112 189.772C23.275 184.779 22.4168 179.863 21.7926 175.182L17.8136 175.728C18.4378 180.488 19.296 185.481 20.3103 190.552L24.2112 189.772ZM27.41 204.205L23.5091 205.22C24.7574 210.135 26.0837 214.972 27.41 219.731L31.311 218.561C29.9066 213.88 28.6063 209.095 27.41 204.205ZM35.6021 79.5305L32.0912 77.658C29.7506 82.0271 27.5661 86.7082 25.7716 91.3894L29.4385 92.8718C31.233 88.3467 33.3395 83.8216 35.6021 79.5305ZM58.7738 47.9327L55.8871 45.202C49.9576 51.3655 44.5743 57.9191 39.9711 64.7068L43.248 66.9694C47.7731 60.4158 53.0004 54.0182 58.7738 47.9327ZM89.9035 50.9754L86.6267 48.6349C83.4279 52.9259 80.5412 57.5291 77.9666 62.2102L81.4774 64.1607C83.974 59.6356 86.7827 55.1885 89.9035 50.9754ZM111.359 28.3498L108.784 25.229C104.571 28.7399 100.67 32.4848 97.0033 36.2298L99.89 39.0384C103.401 35.2935 107.302 31.7046 111.359 28.3498ZM132.814 65.1749L128.913 64.5508C127.977 70.3243 127.067 76.1236 126.183 81.9491L130.162 82.5733C131.046 76.7478 131.93 70.9484 132.814 65.1749ZM138.432 30.4563L134.453 29.8322L131.644 47.2305L135.623 47.8547L138.432 30.4563ZM169.561 46.2943C168.365 40.5208 167.117 34.7994 165.816 29.13L161.915 29.9882C163.164 35.6576 164.412 41.379 165.66 47.1525L169.561 46.2943ZM176.193 80.8568C175.153 75.0313 174.086 69.258 172.994 63.5365L169.015 64.3167C170.107 69.9861 171.174 75.7335 172.214 81.559L176.193 80.8568ZM216.607 55.8126C214.656 51.1314 212.472 46.5283 210.131 42.0812L206.62 43.8757C208.883 48.3228 210.99 52.8479 212.94 57.373L216.607 55.8126ZM277.774 156.692C277.878 155.027 277.93 153.389 277.93 151.776L273.951 151.698C273.899 153.311 273.847 154.923 273.795 156.536C273.691 160.124 273.483 163.739 273.171 167.38L277.15 167.692C277.462 163.999 277.67 160.333 277.774 156.692ZM271.845 120.413C272.625 125.484 273.171 130.711 273.561 136.017L277.54 135.782C277.228 130.321 276.604 124.938 275.824 119.788L271.845 120.413ZM269.894 209.667C272.079 200.929 273.873 192.19 275.199 183.608L271.22 182.984C269.972 191.488 268.178 200.07 265.993 208.653L269.894 209.667Z" fill="#F5AD01"/>
<path d="M183.683 157.394L162.851 166.522L142.02 175.573L141.708 158.018L141.474 140.464L162.617 148.968L183.683 157.394Z" fill="#F5AD01"/>
<path d="M101.996 141.634C101.684 149.826 96.8471 156.38 91.1517 156.145C85.4563 155.911 81.1652 149.124 81.3993 140.854C81.7113 132.662 86.6266 126.186 92.244 126.342C97.9394 126.576 102.308 133.442 101.996 141.634Z" fill="#E84271"/>
<path d="M225.033 140.776L198.662 139.839C197.57 139.761 196.556 139.137 196.088 138.123C195.62 137.109 195.776 135.938 196.4 135.08L213.72 112.689C214.734 111.362 216.529 111.128 217.855 112.143C219.103 113.079 219.337 114.951 218.401 116.2L204.514 134.144L225.267 134.924C226.905 135.002 228.154 136.407 228.076 137.967C227.998 139.605 226.671 140.854 225.033 140.776Z" fill="#E84271"/>
<path fill-rule="evenodd" clip-rule="evenodd" d="M306.485 49.259C306.433 45.5661 307.109 42.5754 308.514 40.2868C309.866 37.9982 311.713 36.2039 314.053 34.9035C316.394 33.6032 319.072 32.745 322.089 32.3289C325.106 31.8607 328.227 31.6007 331.452 31.5487C336.601 31.4446 341.256 32.0428 345.417 33.3432C349.526 34.6955 353.037 36.5939 355.95 39.0385C358.81 41.4311 361.047 44.2658 362.659 47.5426C364.22 50.8715 365.026 54.4864 365.078 58.3873C365.13 62.0282 364.792 65.487 364.064 68.7639C363.335 72.0407 362.243 74.9535 360.787 77.5021C359.278 79.9987 357.432 82.0012 355.247 83.5095C353.063 84.9659 350.514 85.7201 347.602 85.7721C345.833 85.8241 344.403 85.7461 343.311 85.538C342.27 85.382 341.334 85.2 340.502 84.9919C339.722 84.8359 339.019 84.6539 338.395 84.4458C337.771 84.2898 336.991 84.2117 336.055 84.2117C335.378 84.2117 334.858 84.3418 334.494 84.6018C334.13 84.9139 333.896 85.2259 333.792 85.538C333.636 85.8501 333.558 86.1882 333.558 86.5523C333.506 86.8644 333.48 87.1245 333.48 87.3325C333.532 89.6731 334.078 91.6236 335.118 93.184C336.107 94.7443 337.199 96.2787 338.395 97.7871C339.592 99.3475 340.71 101.09 341.75 103.014C342.79 104.887 343.336 107.279 343.389 110.192C343.389 113.001 342.868 115.549 341.828 117.838C340.788 120.127 339.383 122.129 337.615 123.846C335.847 125.562 333.818 126.914 331.53 127.903C329.241 128.891 326.848 129.385 324.352 129.385C321.335 129.437 318.63 128.969 316.238 127.981C313.845 126.992 311.791 125.64 310.074 123.924C308.358 122.155 307.031 120.049 306.095 117.604C305.159 115.159 304.665 112.481 304.613 109.568C304.561 106.603 304.873 103.717 305.549 100.908C306.277 98.1512 307.084 95.3945 307.968 92.6379C308.852 89.9332 309.658 87.1764 310.386 84.3677C311.062 81.6111 311.375 78.7244 311.323 75.7076C311.323 73.471 311.062 71.2605 310.542 69.076C310.022 66.8914 309.476 64.7069 308.904 62.5223C308.384 60.3378 307.864 58.1533 307.344 55.9688C306.823 53.7322 306.537 51.4956 306.485 49.259ZM337.615 64.2388C339.644 64.1868 341.334 63.6407 342.686 62.6004C344.039 61.5601 344.689 60.2598 344.637 58.6994C344.637 57.2431 344.013 56.0467 342.764 55.1105C341.516 54.1222 340.034 53.6282 338.317 53.6282C337.381 53.6802 336.471 53.8622 335.587 54.1743C334.754 54.5384 334 54.9804 333.324 55.5006C332.7 56.0727 332.18 56.6969 331.764 57.3731C331.4 58.1012 331.218 58.8554 331.218 59.6356C331.27 60.988 331.868 62.0802 333.012 62.9124C334.208 63.7966 335.743 64.2388 337.615 64.2388Z" fill="#F5AD01"/>
<path d="M386.377 33.499C391.058 33.395 394.751 34.3312 397.456 36.3077C400.108 38.2842 401.487 41.0669 401.591 44.6558C401.591 46.4243 401.357 48.4527 400.889 50.7413C400.369 52.9778 399.848 55.3965 399.328 57.9971C398.756 60.5457 398.236 63.1984 397.768 65.9551C397.3 68.7637 397.092 71.6245 397.144 74.5372C397.196 77.71 397.794 80.6228 398.938 83.2754C400.03 85.8761 401.279 88.4506 402.683 90.9993C404.035 93.5999 405.284 96.2266 406.428 98.8793C407.572 101.584 408.196 104.601 408.3 107.93V108.398C408.613 123.949 402.059 131.855 388.64 132.116C382.762 132.22 378.107 130.815 374.674 127.902C371.189 125.042 369.317 120.985 369.057 115.731L368.979 114.951C368.927 112.039 369.343 109.386 370.227 106.993C371.059 104.601 371.969 102.156 372.958 99.6595C373.946 97.1629 374.856 94.4842 375.688 91.6234C376.521 88.7627 376.911 85.4079 376.859 81.5589C376.807 78.022 376.391 74.9273 375.61 72.2746C374.83 69.6219 373.972 67.1513 373.036 64.8628C372.099 62.5222 371.241 60.2337 370.461 57.9971C369.629 55.7085 369.187 53.1599 369.135 50.3512C369.083 45.0979 370.539 40.9889 373.504 38.0242C376.469 35.1115 380.76 33.603 386.377 33.499Z" fill="#F5AD01"/>
<path d="M427.103 36.8542C429.964 36.8022 432.2 37.3223 433.813 38.4146C435.477 39.5069 436.726 41.4313 437.558 44.188C437.87 45.1242 438.338 46.5026 438.962 48.323C439.586 50.1955 440.34 52.25 441.225 54.4866C442.109 56.7751 443.097 59.1157 444.189 61.5083C445.23 63.9009 446.348 66.0855 447.544 68.062C448.688 70.0385 449.859 71.6248 451.055 72.8211C452.199 74.0694 453.344 74.6936 454.488 74.6936C455.268 74.6936 455.944 74.2774 456.516 73.4452C457.037 72.561 457.453 71.5728 457.765 70.4805C458.025 69.3363 458.207 68.192 458.311 67.0477C458.415 65.9554 458.467 65.1232 458.467 64.5511C458.467 62.7827 458.233 61.0142 457.765 59.2457C457.349 57.5293 456.907 55.8129 456.438 54.0965C455.918 52.3801 455.45 50.6896 455.034 49.0252C454.618 47.3088 454.384 45.5663 454.332 43.7979C454.28 39.8449 455.372 36.8802 457.609 34.9037C459.793 32.9793 462.81 31.991 466.659 31.939C468.063 31.939 469.494 32.225 470.95 32.7972C472.406 33.3693 473.733 34.1755 474.929 35.2157C476.073 36.256 477.035 37.4263 477.816 38.7266C478.544 40.0269 478.934 41.4313 478.986 42.9397C479.038 47.5168 478.856 52.042 478.44 56.5151C477.972 60.9362 477.79 65.4353 477.894 70.0125C477.946 72.9252 478.31 75.7598 478.986 78.5165C479.714 81.2732 480.52 84.0559 481.405 86.8646C482.289 89.6213 483.069 92.352 483.745 95.0566C484.473 97.8133 484.863 100.648 484.915 103.561C484.967 106.421 484.707 109.1 484.135 111.597C483.615 114.093 482.731 116.252 481.483 118.072C480.234 119.893 478.648 121.349 476.723 122.441C474.747 123.482 472.328 124.028 469.468 124.08C466.659 124.132 464.214 123.586 462.134 122.441C460.001 121.297 458.207 119.763 456.75 117.838C455.294 115.966 454.202 113.807 453.474 111.363C452.693 108.918 452.277 106.447 452.225 103.951C452.173 102.234 451.809 100.076 451.133 97.4752C450.405 94.9266 449.521 92.404 448.48 89.9074C447.388 87.4628 446.192 85.3823 444.892 83.6658C443.539 81.8974 442.265 81.0392 441.069 81.0912C440.496 81.0912 440.054 81.2732 439.742 81.6373C439.378 82.0014 439.118 82.4695 438.962 83.0416C438.754 83.6138 438.65 84.212 438.65 84.8361C438.598 85.4083 438.572 85.9023 438.572 86.3184C438.624 88.0869 438.988 89.8294 439.664 91.5458C440.392 93.2622 441.147 95.0046 441.927 96.773C442.707 98.5415 443.435 100.44 444.111 102.468C444.84 104.445 445.23 106.656 445.282 109.1C445.282 111.493 444.944 113.755 444.267 115.888C443.539 118.02 442.473 119.893 441.069 121.505C439.716 123.118 438.052 124.392 436.075 125.328C434.047 126.264 431.784 126.758 429.288 126.81C426.895 126.81 424.685 126.368 422.656 125.484C420.627 124.6 418.859 123.404 417.351 121.895C415.79 120.335 414.568 118.54 413.684 116.512C412.8 114.431 412.331 112.195 412.279 109.802C412.227 105.849 412.514 101.922 413.138 98.0213C413.814 94.1724 414.542 90.3495 415.322 86.5525C416.05 82.7036 416.753 78.8546 417.429 75.0056C418.105 71.1567 418.417 67.2818 418.365 63.3808C418.313 60.4161 417.949 57.5033 417.273 54.6426C416.545 51.8339 416.18 49.2332 416.18 46.8406C416.128 43.6158 417.195 41.1452 419.379 39.4288C421.564 37.7644 424.138 36.9062 427.103 36.8542Z" fill="#F5AD01"/>
<path d="M488.816 82.1051C488.712 74.6153 489.441 67.9316 491.001 62.0541C492.561 56.1246 494.824 51.1314 497.789 47.0744C500.805 42.9654 504.524 39.7925 508.945 37.556C513.314 35.3194 518.256 34.1491 523.769 34.0451C527.15 33.9931 530.349 34.3052 533.365 34.9814C536.33 35.6056 538.931 36.5678 541.167 37.8681C543.352 39.2204 545.094 40.8329 546.395 42.7053C547.747 44.6298 548.449 46.8143 548.501 49.2589C548.553 51.9636 547.071 54.1481 544.054 55.8125C541.089 57.477 537.11 58.3612 532.117 58.4652C529.204 58.5172 526.422 58.8033 523.769 59.3234C521.116 59.8435 518.776 60.7798 516.747 62.1321C514.719 63.4844 513.106 65.357 511.91 67.7495C510.714 70.0901 510.142 73.1588 510.194 76.9558C510.246 78.5162 510.584 79.9986 511.208 81.4029C511.832 82.8593 512.69 84.1075 513.783 85.1478C514.875 86.2401 516.253 87.0723 517.918 87.6445C519.53 88.2686 521.324 88.5547 523.301 88.5027C525.069 88.5027 526.786 88.2426 528.45 87.7225C530.167 87.2544 531.727 86.6302 533.131 85.85C534.484 85.1218 535.602 84.2896 536.486 83.3534C537.318 82.4172 537.734 81.507 537.734 80.6227C537.682 78.6983 535.68 77.762 531.727 77.8141C530.583 77.8661 529.386 77.97 528.138 78.1261C526.942 78.2821 525.772 78.3602 524.627 78.3602C522.183 78.4122 520.414 77.9961 519.322 77.1119C518.23 76.2276 517.658 74.8233 517.606 72.8988C517.553 71.0263 517.996 69.5179 518.932 68.3736C519.868 67.2294 521.064 66.3712 522.521 65.7991C523.977 65.2269 525.537 64.8628 527.202 64.7068C528.866 64.5507 530.427 64.4727 531.883 64.4727C536.876 64.3686 541.271 64.5508 545.068 65.0189C548.813 65.487 551.96 66.5792 554.509 68.2956C557.057 69.9601 558.982 72.4047 560.282 75.6295C561.582 78.8543 562.285 83.2234 562.389 88.7368C562.493 94.3542 561.634 99.6855 559.814 104.731C557.942 109.776 555.315 114.197 551.934 117.994C548.553 121.843 544.522 124.912 539.841 127.2C535.16 129.437 529.959 130.607 524.237 130.711C518.62 130.815 513.653 129.697 509.335 127.356C504.966 125.016 501.299 121.713 498.335 117.448C495.318 113.131 493.029 107.955 491.469 101.922C489.857 95.8885 488.972 89.2829 488.816 82.1051Z" fill="#F5AD01"/>
<path d="M632.84 72.8212C632.892 74.1735 633.074 75.7339 633.386 77.5023C633.698 79.2708 634.089 81.2732 634.557 83.5098C634.973 85.6943 635.363 88.1649 635.727 90.9216C636.039 93.6783 636.247 96.6431 636.351 99.8158C636.403 103.457 635.701 106.89 634.245 110.114C632.84 113.339 630.682 116.2 627.769 118.696C624.856 121.141 621.215 123.118 616.846 124.626C612.477 126.134 607.328 126.941 601.398 127.045C595.833 127.149 590.97 126.576 586.809 125.328C582.596 124.08 579.085 122.259 576.276 119.867C573.468 117.526 571.335 114.614 569.879 111.129C568.422 107.696 567.642 103.847 567.538 99.5817C567.486 95.2127 567.694 91.0256 568.162 87.0206C568.682 83.0157 568.916 79.5569 568.864 76.6441C568.812 74.7197 568.63 72.7952 568.318 70.8707C568.058 68.9462 567.746 67.0217 567.382 65.0972C567.07 63.1728 566.758 61.1963 566.446 59.1678C566.134 57.1393 565.978 55.0588 565.978 52.9262C565.926 50.2216 566.16 47.6729 566.68 45.2803C567.252 42.8877 568.162 40.7812 569.411 38.9607C570.711 37.0883 572.323 35.606 574.248 34.5137C576.172 33.4214 578.461 32.8492 581.113 32.7972C585.847 32.7452 589.566 34.2536 592.27 37.3224C594.923 40.3911 596.301 44.6562 596.405 50.1176C596.457 52.5101 596.301 54.7987 595.937 56.9832C595.573 59.1157 595.157 61.1443 594.689 63.0687C594.221 64.9412 593.779 66.7096 593.362 68.374C592.998 70.0384 592.816 71.5208 592.816 72.8212C592.868 74.2255 593.05 75.7338 593.362 77.3462C593.675 78.9066 594.195 80.3631 594.923 81.7154C595.651 83.0677 596.535 84.1859 597.576 85.0702C598.668 86.0064 600.02 86.4486 601.633 86.3966C602.985 86.3966 604.233 86.0324 605.377 85.3043C606.47 84.5761 607.406 83.5878 608.186 82.3395C608.966 81.1432 609.538 79.7388 609.903 78.1264C610.267 76.514 610.449 74.8236 610.449 73.0552C610.397 71.2347 610.163 69.4923 609.747 67.8279C609.382 66.1635 608.966 64.4731 608.498 62.7567C608.03 61.0922 607.614 59.4018 607.25 57.6854C606.834 55.917 606.6 54.0445 606.548 52.068C606.548 49.7795 606.756 47.6729 607.172 45.7484C607.64 43.8239 608.446 42.1596 609.591 40.7552C610.735 39.3509 612.191 38.2326 613.96 37.4004C615.728 36.5682 617.913 36.1261 620.513 36.0741C622.438 36.0741 624.258 36.4121 625.975 37.0883C627.691 37.7124 629.199 38.6747 630.5 39.975C631.8 41.2754 632.814 42.8357 633.542 44.6562C634.323 46.4766 634.739 48.5311 634.791 50.8197C634.791 53.1602 634.713 55.3708 634.557 57.4513C634.349 59.5318 634.115 61.5084 633.855 63.3808C633.594 65.2013 633.36 66.8917 633.152 68.4521C632.944 70.0645 632.84 71.5208 632.84 72.8212Z" fill="#F5AD01"/>
<path fill-rule="evenodd" clip-rule="evenodd" d="M350.098 191.332C350.098 192.061 350.774 192.971 352.127 194.063C353.427 195.155 355.039 196.404 356.964 197.808C358.94 199.212 361.073 200.747 363.362 202.411C365.702 204.076 367.835 205.844 369.759 207.716C371.736 209.641 373.374 211.643 374.674 213.724C376.027 215.804 376.729 217.989 376.781 220.278C376.781 222.358 376.287 224.361 375.299 226.285C374.31 228.209 373.01 229.9 371.398 231.356C369.837 232.865 368.043 234.061 366.014 234.945C364.038 235.829 362.035 236.297 360.007 236.35C358.758 236.35 357.484 236.271 356.184 236.115C354.883 236.011 353.661 235.725 352.517 235.257C351.373 234.841 350.306 234.243 349.318 233.463C348.33 232.683 347.498 231.668 346.821 230.42C346.197 229.38 345.651 227.819 345.183 225.739C344.715 223.71 344.273 221.5 343.857 219.107C343.389 216.663 342.946 214.166 342.53 211.617C342.062 209.017 341.542 206.676 340.97 204.596C340.346 202.567 339.644 200.877 338.863 199.524C338.083 198.224 337.121 197.574 335.977 197.574C334.884 197.626 333.948 198.042 333.168 198.822C332.388 199.654 331.998 200.643 331.998 201.787C332.05 203.607 332.518 205.324 333.402 206.936C334.286 208.549 335.249 210.135 336.289 211.695C337.277 213.204 338.213 214.79 339.098 216.455C339.982 218.067 340.45 219.861 340.502 221.838C340.554 224.179 340.06 226.363 339.02 228.392C337.927 230.42 336.523 232.188 334.806 233.697C333.09 235.205 331.114 236.375 328.877 237.208C326.692 238.092 324.508 238.56 322.323 238.612C317.382 238.664 313.351 237.546 310.23 235.257C307.162 232.969 305.523 229.354 305.315 224.413L305.237 223.554C305.237 221.37 305.549 219.237 306.173 217.157C306.849 215.076 307.578 212.996 308.358 210.915C309.138 208.835 309.866 206.754 310.542 204.674C311.219 202.593 311.531 200.435 311.479 198.198C311.427 195.285 311.063 192.477 310.386 189.772C309.71 187.015 308.956 184.285 308.124 181.58C307.292 178.823 306.537 176.067 305.861 173.31C305.185 170.553 304.821 167.719 304.769 164.806C304.717 161.477 305.315 158.434 306.563 155.677C307.864 152.869 309.58 150.45 311.713 148.422C313.845 146.445 316.342 144.885 319.203 143.741C322.063 142.596 325.08 141.998 328.253 141.946C332.466 141.842 336.679 142.414 340.892 143.662C345.105 144.859 348.902 146.679 352.283 149.124C355.612 151.516 358.342 154.533 360.475 158.174C362.659 161.763 363.778 165.95 363.83 170.735C363.934 174.272 363.257 177.159 361.801 179.395C360.397 181.684 358.81 183.53 357.042 184.935C355.274 186.391 353.687 187.587 352.283 188.524C350.826 189.46 350.098 190.396 350.098 191.332ZM328.955 174.402C328.955 175.182 329.033 176.145 329.189 177.289C329.293 178.485 329.527 179.577 329.891 180.566C330.203 181.606 330.697 182.49 331.374 183.218C332.05 183.895 332.96 184.233 334.104 184.233C334.936 184.233 335.795 183.895 336.679 183.218C337.511 182.594 338.291 181.814 339.02 180.878C339.696 179.942 340.268 178.927 340.736 177.835C341.204 176.795 341.412 175.833 341.36 174.948C341.36 174.012 341.178 173.128 340.814 172.296C340.398 171.463 339.878 170.709 339.254 170.033C338.629 169.409 337.901 168.889 337.069 168.473C336.237 168.109 335.379 167.927 334.494 167.927C332.778 167.979 331.426 168.681 330.437 170.033C329.397 171.437 328.903 172.894 328.955 174.402Z" fill="#F5AD01"/>
<path d="M445.906 182.126C445.906 183.427 446.062 184.961 446.374 186.729C446.738 188.55 447.128 190.552 447.544 192.737C448.012 194.973 448.402 197.444 448.714 200.149C449.079 202.905 449.287 205.87 449.339 209.043C449.391 212.684 448.714 216.117 447.31 219.341C445.854 222.618 443.669 225.479 440.756 227.924C437.844 230.42 434.203 232.397 429.834 233.853C425.465 235.361 420.341 236.168 414.464 236.272C408.899 236.376 404.009 235.803 399.796 234.555C395.583 233.307 392.072 231.486 389.264 229.094C386.455 226.753 384.322 223.867 382.866 220.434C381.41 216.949 380.656 213.1 380.604 208.887C380.5 204.518 380.708 200.305 381.228 196.248C381.696 192.243 381.904 188.784 381.852 185.871C381.852 183.947 381.696 182.022 381.384 180.098C381.072 178.225 380.76 176.301 380.448 174.324C380.083 172.4 379.771 170.423 379.511 168.395C379.199 166.366 379.017 164.312 378.965 162.231C378.913 159.475 379.173 156.9 379.745 154.507C380.265 152.115 381.176 150.008 382.476 148.188C383.724 146.315 385.311 144.833 387.235 143.741C389.16 142.648 391.448 142.076 394.101 142.024C398.886 141.972 402.605 143.481 405.258 146.549C407.962 149.618 409.341 153.883 409.393 159.345C409.445 161.737 409.289 164.026 408.925 166.21C408.56 168.343 408.144 170.371 407.676 172.296C407.26 174.168 406.844 175.937 406.428 177.601C406.012 179.265 405.83 180.774 405.882 182.126C405.882 183.479 406.038 184.961 406.35 186.573C406.714 188.134 407.234 189.59 407.91 190.942C408.639 192.295 409.549 193.413 410.641 194.297C411.733 195.233 413.06 195.676 414.62 195.624C416.024 195.624 417.273 195.259 418.365 194.531C419.509 193.803 420.445 192.841 421.174 191.645C421.954 190.396 422.526 188.966 422.89 187.353C423.306 185.741 423.488 184.051 423.436 182.282C423.384 180.514 423.176 178.771 422.812 177.055C422.396 175.391 421.954 173.726 421.486 172.062C421.07 170.345 420.653 168.629 420.237 166.912C419.821 165.144 419.613 163.272 419.613 161.295C419.561 159.059 419.769 156.978 420.237 155.054C420.705 153.077 421.512 151.387 422.656 149.982C423.748 148.578 425.179 147.46 426.947 146.627C428.767 145.795 430.952 145.379 433.501 145.379C435.425 145.327 437.246 145.639 438.962 146.315C440.73 146.991 442.239 147.98 443.487 149.28C444.787 150.58 445.828 152.115 446.608 153.883C447.336 155.704 447.726 157.784 447.778 160.125C447.83 162.413 447.752 164.598 447.544 166.678C447.336 168.811 447.102 170.787 446.842 172.608C446.582 174.428 446.348 176.119 446.14 177.679C445.932 179.292 445.854 180.774 445.906 182.126Z" fill="#F5AD01"/>
<path d="M478.05 145.223C480.65 145.223 482.809 145.873 484.525 147.173C486.294 148.525 487.776 150.19 488.972 152.166C490.169 154.195 491.183 156.353 492.015 158.642C492.847 160.983 493.628 163.167 494.356 165.196C495.084 167.224 495.812 168.888 496.54 170.189C497.321 171.541 498.283 172.217 499.427 172.217C500.259 172.217 501.065 171.541 501.846 170.189C502.626 168.836 503.432 167.146 504.264 165.118C505.096 163.089 506.007 160.878 506.995 158.486C508.035 156.145 509.231 153.961 510.584 151.932C511.988 149.852 513.627 148.135 515.499 146.783C517.371 145.431 519.582 144.728 522.131 144.676C524.679 144.624 526.786 145.067 528.45 146.003C530.115 146.939 531.441 148.291 532.429 150.06C533.365 151.828 534.042 154.013 534.458 156.613C534.874 159.266 535.108 162.231 535.16 165.508C535.212 167.796 535.706 170.449 536.642 173.466C537.579 176.534 538.619 179.863 539.763 183.452C540.855 186.989 541.896 190.734 542.884 194.687C543.82 198.64 544.34 202.645 544.444 206.702C544.496 212.111 544.106 216.662 543.274 220.355C542.39 223.996 541.167 226.935 539.607 229.171C537.995 231.408 536.096 233.02 533.912 234.009C531.727 234.945 529.308 235.439 526.656 235.491C523.899 235.543 521.377 235.127 519.088 234.243C516.799 233.359 514.823 232.11 513.158 230.498C511.546 228.885 510.272 226.909 509.336 224.568C508.399 222.28 507.905 219.705 507.853 216.844C507.749 213.047 508.009 209.875 508.633 207.326C509.257 204.777 509.96 202.489 510.74 200.46C511.572 198.432 512.3 196.455 512.924 194.531C513.549 192.606 513.835 190.292 513.783 187.587C513.731 186.027 513.471 184.83 513.002 183.998C512.482 183.166 511.806 182.75 510.974 182.75C510.246 182.75 509.648 183.322 509.179 184.466C508.711 185.611 508.295 187.015 507.931 188.679C507.567 190.396 507.203 192.242 506.839 194.219C506.475 196.247 505.981 198.094 505.357 199.758C504.784 201.475 504.03 202.905 503.094 204.049C502.158 205.193 500.961 205.766 499.505 205.766C498.049 205.818 496.8 205.271 495.76 204.127C494.772 203.035 493.888 201.657 493.108 199.992C492.379 198.328 491.729 196.507 491.157 194.531C490.637 192.554 490.143 190.708 489.675 188.992C489.259 187.327 488.842 185.949 488.426 184.856C488.01 183.712 487.516 183.14 486.944 183.14C486.32 183.14 485.8 183.452 485.384 184.076C484.915 184.7 484.577 185.429 484.369 186.261C484.161 187.145 484.031 188.081 483.979 189.07C483.927 190.058 483.901 190.916 483.901 191.644C483.953 194.297 484.473 196.689 485.462 198.822C486.398 200.954 487.464 203.035 488.66 205.063C489.857 207.092 490.949 209.147 491.937 211.227C492.873 213.308 493.368 215.648 493.42 218.249C493.472 220.797 493.186 223.294 492.561 225.739C491.937 228.183 490.793 230.316 489.128 232.136C487.516 234.009 485.254 235.517 482.341 236.661C479.428 237.858 475.761 238.482 471.34 238.534C468.479 238.586 466.009 237.988 463.928 236.739C461.796 235.439 460.079 233.801 458.779 231.824C457.427 229.848 456.412 227.715 455.736 225.427C455.112 223.138 454.774 220.953 454.722 218.873C454.618 214.036 454.904 209.38 455.58 204.907C456.256 200.434 457.037 195.935 457.921 191.41C458.753 186.885 459.507 182.256 460.183 177.523C460.859 172.789 461.146 167.744 461.042 162.387C461.042 159.994 461.406 157.784 462.134 155.755C462.862 153.727 463.928 151.932 465.333 150.372C466.789 148.812 468.583 147.589 470.716 146.705C472.848 145.769 475.293 145.275 478.05 145.223Z" fill="#F5AD01"/>
<path d="M565.821 142.727C570.503 142.675 574.196 143.637 576.9 145.613C579.553 147.538 580.931 150.295 581.035 153.883C581.035 155.704 580.801 157.732 580.333 159.969C579.813 162.257 579.293 164.676 578.773 167.225C578.201 169.773 577.68 172.452 577.212 175.261C576.744 178.017 576.536 180.852 576.588 183.765C576.64 186.938 577.238 189.85 578.383 192.503C579.475 195.104 580.723 197.704 582.128 200.305C583.48 202.854 584.728 205.48 585.872 208.185C587.017 210.838 587.641 213.828 587.745 217.157V217.625C588.057 233.229 581.529 241.135 568.162 241.343C562.233 241.447 557.551 240.069 554.119 237.208C550.634 234.295 548.761 230.238 548.501 225.037L548.423 224.179C548.371 221.266 548.787 218.613 549.671 216.221C550.504 213.828 551.414 211.384 552.402 208.887C553.39 206.39 554.301 203.712 555.133 200.851C555.965 197.99 556.355 194.635 556.303 190.787C556.251 187.302 555.835 184.207 555.055 181.502C554.275 178.85 553.416 176.379 552.48 174.09C551.544 171.75 550.686 169.461 549.906 167.225C549.073 164.936 548.631 162.413 548.579 159.657C548.527 154.351 549.984 150.217 552.948 147.252C555.913 144.339 560.204 142.831 565.821 142.727Z" fill="#F5AD01"/>
<path d="M625.116 144.521C626.833 144.521 628.809 144.572 631.046 144.677C633.282 144.729 635.597 144.937 637.989 145.301C640.382 145.613 642.723 146.081 645.011 146.705C647.3 147.381 649.354 148.291 651.175 149.436C652.943 150.528 654.399 151.906 655.544 153.571C656.688 155.235 657.26 157.238 657.26 159.578C657.312 162.907 656.74 165.378 655.544 166.99C654.347 168.602 652.033 169.435 648.6 169.487C647.04 169.487 645.557 169.253 644.153 168.785C642.749 168.316 641.37 167.796 640.018 167.224C638.614 166.652 637.209 166.132 635.805 165.664C634.453 165.196 632.97 164.962 631.358 164.962C629.849 165.014 628.471 165.456 627.223 166.288C626.026 167.172 625.454 168.342 625.506 169.799C625.506 171.047 626.495 172.217 628.471 173.31C630.448 174.402 632.918 175.52 635.883 176.664C638.848 177.861 642.046 179.161 645.479 180.565C648.912 181.97 652.111 183.66 655.076 185.637C658.092 187.665 660.589 190.032 662.566 192.736C664.594 195.493 665.634 198.77 665.686 202.567C665.79 208.496 664.88 213.698 662.956 218.171C661.083 222.644 658.3 226.363 654.608 229.328C650.967 232.24 646.546 234.477 641.344 236.037C636.143 237.546 630.292 238.352 623.79 238.456C619.681 238.508 615.702 237.858 611.853 236.505C607.952 235.101 604.493 233.098 601.476 230.498C598.46 227.897 596.041 224.802 594.221 221.213C592.348 217.625 591.386 213.724 591.334 209.511C591.282 207.742 591.49 205.896 591.958 203.971C592.478 202.099 593.258 200.356 594.299 198.744C595.339 197.184 596.639 195.909 598.2 194.921C599.76 193.933 601.58 193.439 603.661 193.439C605.637 193.387 607.536 193.751 609.356 194.531C611.177 195.311 612.997 196.195 614.818 197.184C616.638 198.12 618.485 199.004 620.357 199.836C622.282 200.616 624.258 200.98 626.287 200.928C629.355 200.876 630.864 199.966 630.812 198.198C630.812 196.949 629.927 195.805 628.159 194.765C626.443 193.725 624.258 192.632 621.605 191.488C619.005 190.344 616.17 189.07 613.101 187.665C610.085 186.261 607.25 184.57 604.597 182.594C601.944 180.617 599.734 178.277 597.965 175.572C596.197 172.867 595.287 169.643 595.235 165.898C595.183 163.713 595.625 161.685 596.561 159.812C597.497 157.888 598.746 156.145 600.306 154.585C601.918 152.973 603.765 151.568 605.845 150.372C607.978 149.124 610.163 148.083 612.399 147.251C614.636 146.419 616.846 145.769 619.031 145.301C621.267 144.833 623.296 144.573 625.116 144.521Z" fill="#F5AD01"/>
</svg>
